<svg xmlns="http://www.w3.org/2000/svg" xmlns:xlink="http://www.w3.org/1999/xlink" width="600" zoomAndPan="magnify" viewBox="0 0 450 449.999984" height="600" preserveAspectRatio="xMidYMid meet" version="1.0"><defs><filter x="0%" y="0%" width="100%" height="100%" id="c0d0715cb0"><feColorMatrix values="0 0 0 0 1 0 0 0 0 1 0 0 0 0 1 0 0 0 1 0" color-interpolation-filters="sRGB"/></filter><clipPath id="e5cefa58c4"><path d="M 184 345 L 277 345 L 277 440.878906 L 184 440.878906 Z M 184 345 " clip-rule="nonzero"/></clipPath><clipPath id="5e2e7d8821"><path d="M 71 25.871094 L 115 25.871094 L 115 34 L 71 34 Z M 71 25.871094 " clip-rule="nonzero"/></clipPath><clipPath id="7dd8ecd2a4"><path d="M 47 25.871094 L 78 25.871094 L 78 48 L 47 48 Z M 47 25.871094 " clip-rule="nonzero"/></clipPath><clipPath id="770220b648"><path d="M 44 25.871094 L 81 25.871094 L 81 51 L 44 51 Z M 44 25.871094 " clip-rule="nonzero"/></clipPath><clipPath id="a48ed97084"><path d="M 69 25.871094 L 116 25.871094 L 116 60 L 69 60 Z M 69 25.871094 " clip-rule="nonzero"/></clipPath><clipPath id="17979e2ddd"><path d="M 66 25.871094 L 119 25.871094 L 119 63 L 66 63 Z M 66 25.871094 " clip-rule="nonzero"/></clipPath><clipPath id="916538c3fa"><path d="M 105 37 L 154.574219 37 L 154.574219 62 L 105 62 Z M 105 37 " clip-rule="nonzero"/></clipPath><mask id="b6028a00d6"><g filter="url(#c0d0715cb0)"><rect x="-121" width="648" fill="#000000" y="-98.999996" height="647.999977" fill-opacity="0.4"/></g></mask><clipPath id="01435f3759"><path d="M 0.679688 0.441406 L 49.574219 0.441406 L 49.574219 24.679688 L 0.679688 24.679688 Z M 0.679688 0.441406 " clip-rule="nonzero"/></clipPath><clipPath id="84ddddc0d0"><rect x="0" width="50" y="0" height="25"/></clipPath><mask id="5d39db66e8"><g filter="url(#c0d0715cb0)"><rect x="-121" width="648" fill="#000000" y="-98.999996" height="647.999977" fill-opacity="0.3"/></g></mask><clipPath id="cb6bc982a7"><path d="M 1 0.121094 L 27.441406 0.121094 L 27.441406 6.839844 L 1 6.839844 Z M 1 0.121094 " clip-rule="nonzero"/></clipPath><clipPath id="0632dad299"><rect x="0" width="28" y="0" height="7"/></clipPath><mask id="e799d6842a"><g filter="url(#c0d0715cb0)"><rect x="-121" width="648" fill="#000000" y="-98.999996" height="647.999977" fill-opacity="0.3"/></g></mask><clipPath id="a47079cca4"><path d="M 0.28125 0.679688 L 14.441406 0.679688 L 14.441406 6.441406 L 0.28125 6.441406 Z M 0.28125 0.679688 " clip-rule="nonzero"/></clipPath><clipPath id="4c644f2be8"><rect x="0" width="15" y="0" height="7"/></clipPath><clipPath id="bc4b5a9b24"><path d="M 0.558594 45 L 52 45 L 52 71 L 0.558594 71 Z M 0.558594 45 " clip-rule="nonzero"/></clipPath><clipPath id="e8c4959de1"><path d="M 0.558594 45 L 52 45 L 52 72 L 0.558594 72 Z M 0.558594 45 " clip-rule="nonzero"/></clipPath><mask id="67f0ed0934"><g filter="url(#c0d0715cb0)"><rect x="-121" width="648" fill="#000000" y="-98.999996" height="647.999977" fill-opacity="0.4"/></g></mask><clipPath id="3e725c0004"><path d="M 0.558594 0.359375 L 51.441406 0.359375 L 51.441406 26 L 0.558594 26 Z M 0.558594 0.359375 " clip-rule="nonzero"/></clipPath><clipPath id="76d6e3425b"><rect x="0" width="52" y="0" height="27"/></clipPath><mask id="94bd4d899b"><g filter="url(#c0d0715cb0)"><rect x="-121" width="648" fill="#000000" y="-98.999996" height="647.999977" fill-opacity="0.3"/></g></mask><clipPath id="8fdb5ceeb6"><path d="M 0.121094 0.601562 L 22.441406 0.601562 L 22.441406 3.480469 L 0.121094 3.480469 Z M 0.121094 0.601562 " clip-rule="nonzero"/></clipPath><clipPath id="6af9292161"><rect x="0" width="23" y="0" height="4"/></clipPath><mask id="adf3d9c74e"><g filter="url(#c0d0715cb0)"><rect x="-121" width="648" fill="#000000" y="-98.999996" height="647.999977" fill-opacity="0.3"/></g></mask><clipPath id="f1fa993ff2"><path d="M 0.359375 1 L 16.679688 1 L 16.679688 7.679688 L 0.359375 7.679688 Z M 0.359375 1 " clip-rule="nonzero"/></clipPath><clipPath id="7e2961e2cd"><rect x="0" width="17" y="0" height="8"/></clipPath><mask id="7008e4450a"><g filter="url(#c0d0715cb0)"><rect x="-121" width="648" fill="#000000" y="-98.999996" height="647.999977" fill-opacity="0.3"/></g></mask><clipPath id="eb3fbc6d81"><path d="M 1 0.121094 L 10.160156 0.121094 L 10.160156 6.601562 L 1 6.601562 Z M 1 0.121094 " clip-rule="nonzero"/></clipPath><clipPath id="ec2a3edea6"><rect x="0" width="11" y="0" height="7"/></clipPath><mask id="d85ba40fb1"><g filter="url(#c0d0715cb0)"><rect x="-121" width="648" fill="#000000" y="-98.999996" height="647.999977" fill-opacity="0.4"/></g></mask><clipPath id="05f0cf4bcf"><path d="M 0.480469 0.199219 L 5.28125 0.199219 L 5.28125 3.320312 L 0.480469 3.320312 Z M 0.480469 0.199219 " clip-rule="nonzero"/></clipPath><clipPath id="902c797381"><rect x="0" width="6" y="0" height="4"/></clipPath><mask id="2950a1b05e"><g filter="url(#c0d0715cb0)"><rect x="-121" width="648" fill="#000000" y="-98.999996" height="647.999977" fill-opacity="0.4"/></g></mask><clipPath id="f0a69c10b5"><path d="M 0.359375 0.320312 L 14.28125 0.320312 L 14.28125 3.921875 L 0.359375 3.921875 Z M 0.359375 0.320312 " clip-rule="nonzero"/></clipPath><clipPath id="b6c616a234"><rect x="0" width="15" y="0" height="4"/></clipPath><mask id="a311032703"><g filter="url(#c0d0715cb0)"><rect x="-121" width="648" fill="#000000" y="-98.999996" height="647.999977" fill-opacity="0.4"/></g></mask><clipPath id="ccd9ea4c8a"><path d="M 0.28125 1 L 53 1 L 53 42.199219 L 0.28125 42.199219 Z M 0.28125 1 " clip-rule="nonzero"/></clipPath><clipPath id="2e7defa2e5"><rect x="0" width="54" y="0" height="43"/></clipPath><clipPath id="e56f8f9574"><path d="M 37 52 L 118 52 L 118 77.328125 L 37 77.328125 Z M 37 52 " clip-rule="nonzero"/></clipPath><mask id="65adc2d953"><g filter="url(#c0d0715cb0)"><rect x="-121" width="648" fill="#000000" y="-98.999996" height="647.999977" fill-opacity="0.4"/></g></mask><clipPath id="51732a137a"><path d="M 0.519531 0.320312 L 80.679688 0.320312 L 80.679688 25 L 0.519531 25 Z M 0.519531 0.320312 " clip-rule="nonzero"/></clipPath><clipPath id="14c40269ad"><rect x="0" width="81" y="0" height="26"/></clipPath><mask id="3cb88336d2"><g filter="url(#c0d0715cb0)"><rect x="-121" width="648" fill="#000000" y="-98.999996" height="647.999977" fill-opacity="0.3"/></g></mask><clipPath id="fde0fa3f9a"><path d="M 1 0.761719 L 23.800781 0.761719 L 23.800781 14.921875 L 1 14.921875 Z M 1 0.761719 " clip-rule="nonzero"/></clipPath><clipPath id="134a9f938a"><rect x="0" width="24" y="0" height="15"/></clipPath><mask id="151b37064b"><g filter="url(#c0d0715cb0)"><rect x="-121" width="648" fill="#000000" y="-98.999996" height="647.999977" fill-opacity="0.3"/></g></mask><clipPath id="3a0751c2a2"><path d="M 1 1 L 20.878906 1 L 20.878906 6.558594 L 1 6.558594 Z M 1 1 " clip-rule="nonzero"/></clipPath><clipPath id="084715bc36"><rect x="0" width="21" y="0" height="7"/></clipPath><mask id="4d59ca600c"><g filter="url(#c0d0715cb0)"><rect x="-121" width="648" fill="#000000" y="-98.999996" height="647.999977" fill-opacity="0.3"/></g></mask><clipPath id="1da61fd193"><path d="M 0.679688 0.28125 L 13.398438 0.28125 L 13.398438 2.199219 L 0.679688 2.199219 Z M 0.679688 0.28125 " clip-rule="nonzero"/></clipPath><clipPath id="2c10e0a1ab"><rect x="0" width="14" y="0" height="3"/></clipPath><clipPath id="2a0310d3ad"><rect x="0" width="404" y="0" height="441"/></clipPath></defs><g transform="matrix(1, 0, 0, 1, 22, 0)"><g clip-path="url(#2a0310d3ad)"><path stroke-linecap="round" transform="matrix(0.724195, 0, 0, 0.724195, 34.634543, -21.324241)" fill-opacity="1" fill="#ded7d7" fill-rule="nonzero" stroke-linejoin="round" d="M 450.513928 414.506544 C 450.513928 450.581076 428.803403 461.401278 413.608732 465.732596 L 420.847372 495.312849 C 499.722653 468.618342 485.973553 408.017659 482.354233 378.437406 C 478.40049 346.079285 491.038443 321.82283 499.722653 310.619659 C 512.026183 294.745355 495.380548 286.449507 480.185878 294.02257 C 433.873687 317.108544 450.513928 369.057381 450.513928 414.506544 Z M 450.513928 414.506544 " stroke="#000000" stroke-width="8" stroke-opacity="1" stroke-miterlimit="4"/><path stroke-linecap="round" transform="matrix(0.724195, 0, 0, 0.724195, 34.634543, -21.324241)" fill-opacity="1" fill="#ded7d7" fill-rule="nonzero" stroke-linejoin="round" d="M 195.0687 74.700419 C 211.708941 74.700419 232.69668 120.872368 237.761571 142.518166 L 210.26337 148.63487 L 174.000051 156.704174 L 150.202079 161.995608 C 155.266969 133.13814 179.14585 74.700419 195.0687 74.700419 Z M 195.0687 74.700419 " stroke="#000000" stroke-width="8" stroke-opacity="1" stroke-miterlimit="4"/><path stroke-linecap="round" transform="matrix(0.724195, 0, 0, 0.724195, 34.634543, -21.324241)" fill-opacity="1" fill="#ff8c75" fill-rule="nonzero" stroke-linejoin="round" d="M 195.500213 98.498391 C 206.433687 106.001333 214.497597 136.002311 214.497597 147.000513 L 174.000051 156.704174 C 176.497436 134.999042 185.9314 106.497573 195.500213 98.498391 Z M 195.500213 98.498391 " stroke="#000000" stroke-width="8" stroke-opacity="1" stroke-miterlimit="4"/><path fill="#ded7d7" d="M 237.738281 401.117188 C 195.816406 397.460938 186.730469 364.894531 187.953125 348.871094 L 252.410156 371.339844 C 263.921875 387.636719 282.410156 421.882812 268.71875 434.035156 C 268.070312 434.609375 267.355469 435.132812 266.5625 435.601562 C 264.328125 436.925781 262.234375 437.617188 260.273438 437.777344 C 246.792969 438.886719 239.71875 414.957031 237.738281 401.117188 Z M 237.738281 401.117188 " fill-opacity="1" fill-rule="nonzero"/><g clip-path="url(#e5cefa58c4)"><path stroke-linecap="round" transform="matrix(0.724195, 0, 0, 0.724195, 34.634543, -21.324241)" fill="none" stroke-linejoin="round" d="M 323.233615 628.779987 C 322.338224 629.572893 321.351137 630.295678 320.256172 630.942948 C 317.17085 632.771487 314.279709 633.726211 311.571962 633.947361 M 323.233615 628.779987 C 342.139302 611.999504 316.609882 564.711014 300.714002 542.207583 L 211.708941 511.181759 C 210.020644 533.307616 222.5669 578.276721 280.454441 583.325429 C 283.189158 602.436085 292.957546 635.479234 311.571962 633.947361 M 323.233615 628.779987 C 321.275622 627.334416 316.642246 622.57698 313.745711 615.074038 M 311.571962 633.947361 C 309.16088 631.266584 304.19308 624.308428 303.615931 617.959785 " stroke="#000000" stroke-width="8" stroke-opacity="1" stroke-miterlimit="4"/></g><path fill="#ded7d7" d="M 322.648438 89.203125 C 328.9375 117.625 306.402344 153.988281 292.777344 169.140625 C 293.886719 197.917969 282.355469 216.339844 268.148438 227.433594 C 272.339844 235.496094 278.628906 243.332031 302.210938 259.527344 C 329.054688 277.964844 340.980469 319.089844 342.039062 345.738281 C 342.238281 350.738281 346.503906 350.847656 354.605469 353.050781 C 364.5625 355.757812 386.238281 393.269531 379.152344 412.089844 C 378.03125 415.066406 376.191406 417.574219 373.472656 419.40625 C 371.886719 420.472656 370.3125 421.214844 368.757812 421.664062 C 352.582031 426.335938 338.332031 399.664062 332.597656 383.503906 C 299.878906 397.398438 272.144531 382.683594 261.847656 372.90625 C 189.738281 382.101562 149.707031 310.558594 138.703125 273.636719 C 90.488281 252.214844 55.617188 203.761719 49.089844 199.964844 L 48.921875 199.871094 C 46.191406 198.28125 43.117188 196.496094 40.855469 193.175781 C 38.140625 189.191406 36.585938 182.996094 38.164062 172.277344 C 38.289062 171.433594 38.433594 170.5625 38.597656 169.664062 C 39.644531 163.914062 46.246094 155.9375 59.570312 162.347656 C 74.765625 169.664062 80.53125 182.726562 91.011719 190.5625 C 100.246094 197.464844 124.542969 217.207031 143.941406 224.144531 C 139.261719 221.226562 134.882812 218.066406 130.84375 214.703125 C 91.738281 182.171875 84.238281 130.691406 139.75 94.949219 C 190.0625 62.554688 240.894531 84.5 251.898438 100.175781 C 292.253906 85.542969 314.265625 86.066406 322.648438 89.203125 Z M 322.648438 89.203125 " fill-opacity="1" fill-rule="nonzero"/><path stroke-linecap="round" transform="matrix(0.724195, 0, 0, 0.724195, 34.634543, -21.324241)" fill-opacity="1" fill="#ded7d7" fill-rule="nonzero" stroke-linejoin="round" d="M 168.293284 242.079128 C 174.08096 239.916166 181.319599 243.524698 182.76517 247.127836 C 181.319599 250.736368 176.249315 251.459153 172.635389 250.013583 C 169.01607 248.573406 167.570499 244.964874 168.293284 242.079128 Z M 168.293284 242.079128 " stroke="#000000" stroke-width="8" stroke-opacity="1" stroke-miterlimit="4"/><path fill="#72c2ed" d="M 76.234375 27.75 C 75.722656 28.539062 75.222656 29.34375 74.738281 30.164062 C 75.242188 29.429688 75.742188 28.621094 76.234375 27.75 Z M 76.234375 27.75 " fill-opacity="1" fill-rule="nonzero"/><g clip-path="url(#5e2e7d8821)"><path stroke-linecap="round" transform="matrix(0.724195, 0, 0, 0.724195, 34.634543, -21.324241)" fill="none" stroke-linejoin="round" d="M 106.759454 29.251255 C 95.178709 30.691432 69.854258 46.565736 55.376979 71.097281 C 64.783974 57.385938 73.468184 24.919938 63.338404 4.002319 " stroke="#000000" stroke-width="8" stroke-opacity="1" stroke-miterlimit="4"/></g><g clip-path="url(#7dd8ecd2a4)"><path fill="#72c2ed" d="M 50.96875 47.4375 C 64.386719 47.855469 75.25 33.273438 76.648438 24.449219 C 79.792969 4.59375 70.324219 -5.8125 67.214844 -8.46875 C 63.546875 -11.601562 56.210938 -13.691406 53.066406 -4.289062 C 49.921875 5.117188 51.273438 15.882812 58.832031 21.835938 C 62.878906 25.023438 61.429688 28.644531 58.832031 30.195312 C 43.542969 39.316406 46.019531 47.285156 50.96875 47.4375 Z M 50.96875 47.4375 " fill-opacity="1" fill-rule="nonzero"/></g><g clip-path="url(#770220b648)"><path stroke-linecap="round" transform="matrix(0.724195, 0, 0, 0.724195, 34.634543, -21.324241)" fill="none" stroke-linejoin="round" d="M 22.55498 94.949192 C 41.083093 95.526341 56.083582 75.390841 58.014605 63.205977 C 62.35671 35.788686 49.28185 21.419285 44.98829 17.75142 C 39.9234 13.425496 29.79362 10.53975 25.451515 23.522913 C 21.10941 36.511471 22.975706 51.377112 33.41294 59.597445 C 39.00104 63.998883 36.999896 68.999046 33.41294 71.140432 C 12.30114 83.735234 15.720884 94.738829 22.55498 94.949192 Z M 22.55498 94.949192 " stroke="#000000" stroke-width="8" stroke-opacity="1" stroke-miterlimit="4"/></g><g clip-path="url(#a48ed97084)"><path fill="#72c2ed" d="M 72.585938 57.726562 C 65.566406 48.46875 71.910156 32.546875 78.332031 26.574219 C 92.78125 13.144531 105.894531 13.976562 109.582031 14.679688 C 113.941406 15.507812 119.28125 19.519531 113.261719 27.054688 C 107.246094 34.585938 98.214844 38.492188 89.320312 37.714844 C 84.964844 37.335938 82.53125 40.441406 82.792969 43.128906 C 84.324219 58.890625 75.179688 61.144531 72.585938 57.726562 Z M 72.585938 57.726562 " fill-opacity="1" fill-rule="nonzero"/></g><g clip-path="url(#17979e2ddd)"><path stroke-linecap="round" transform="matrix(0.724195, 0, 0, 0.724195, 34.634543, -21.324241)" fill="none" stroke-linejoin="round" d="M 52.404929 109.156775 C 42.712056 96.373187 51.471781 74.387572 60.339384 66.140269 C 80.291492 47.595975 98.398879 48.74488 103.490739 49.715785 C 109.510352 50.859296 116.88384 56.398851 108.57181 66.803721 C 100.265175 77.203198 87.794433 82.597117 75.512479 81.523727 C 69.498259 81.000517 66.137848 85.288683 66.49924 88.999699 C 68.613657 110.764163 55.986492 113.876455 52.404929 109.156775 Z M 52.404929 109.156775 " stroke="#000000" stroke-width="8" stroke-opacity="1" stroke-miterlimit="4"/></g><path fill="#000000" d="M 172.234375 190.039062 C 175.902344 190.039062 178.457031 188.234375 179.570312 185.859375 C 180.679688 183.484375 178.941406 181.367188 176.425781 182.203125 C 173.105469 183.246094 166.050781 184.1875 162.277344 181.679688 C 157.558594 178.546875 154.9375 173.84375 160.703125 167.574219 C 162.144531 166.007812 166.0625 166.171875 170.136719 163.917969 C 179.570312 158.691406 171.183594 149.808594 163.847656 148.242188 C 143.628906 143.921875 150.222656 157.644531 151.792969 163.394531 C 153.136719 168.300781 150.398438 171.054688 149.175781 171.753906 C 143.304688 175.097656 139.21875 171.753906 137.121094 167.574219 C 136.074219 164.960938 132.40625 166.003906 132.40625 169.140625 C 132.40625 176.664062 142.363281 181.507812 146.554688 182.726562 C 128.734375 196.308594 137.644531 219.296875 154.9375 215.640625 C 167.574219 212.96875 172.757812 200.488281 172.234375 190.039062 Z M 172.234375 190.039062 " fill-opacity="1" fill-rule="nonzero"/><path stroke-linecap="round" transform="matrix(0.724195, 0, 0, 0.724195, 34.634543, -21.324241)" fill="none" stroke-linejoin="round" d="M 102.438924 242.079128 C 95.443011 236.307634 74.795088 225.19616 48.165309 226.927608 " stroke="#000000" stroke-width="8" stroke-opacity="1" stroke-miterlimit="4"/><path stroke-linecap="round" transform="matrix(0.724195, 0, 0, 0.724195, 34.634543, -21.324241)" fill="none" stroke-linejoin="round" d="M 107.503814 224.041862 C 99.305057 215.86468 78.414408 197.924505 60.468839 191.575862 " stroke="#000000" stroke-width="8" stroke-opacity="1" stroke-miterlimit="4"/><path stroke-linecap="round" transform="matrix(0.724195, 0, 0, 0.724195, 34.634543, -21.324241)" fill="none" stroke-linejoin="round" d="M 256.575561 278.15366 C 267.676247 280.316621 294.786085 287.533685 314.468496 299.076672 " stroke="#000000" stroke-width="8" stroke-opacity="1" stroke-miterlimit="4"/><path stroke-linecap="round" transform="matrix(0.724195, 0, 0, 0.724195, 34.634543, -21.324241)" fill="none" stroke-linejoin="round" d="M 249.342315 295.46814 C 259.229369 300.759575 281.614134 314.659705 292.035186 327.93414 " stroke="#000000" stroke-width="8" stroke-opacity="1" stroke-miterlimit="4"/><path stroke-linecap="round" transform="matrix(0.724195, 0, 0, 0.724195, 34.634543, -21.324241)" fill-opacity="1" fill="#ff8c75" fill-rule="nonzero" stroke-linejoin="round" d="M 345.586016 246.410445 C 339.075556 223.32447 326.049241 196.629964 318.087816 184.364191 C 341.243911 167.62686 375.257966 166.326926 384.664961 169.212672 C 381.045642 207.450166 357.404094 240.158892 345.586016 246.410445 Z M 345.586016 246.410445 " stroke="#000000" stroke-width="8" stroke-opacity="1" stroke-miterlimit="4"/><path fill="#000000" d="M 216.316406 160.109375 C 216.078125 160.964844 215.78125 161.792969 215.421875 162.597656 C 215.066406 163.402344 214.65625 164.164062 214.191406 164.886719 C 213.730469 165.609375 213.226562 166.277344 212.675781 166.890625 C 212.125 167.503906 211.542969 168.050781 210.929688 168.53125 C 210.316406 169.011719 209.679688 169.417969 209.023438 169.746094 C 208.363281 170.074219 207.699219 170.320312 207.023438 170.488281 C 206.351562 170.652344 205.679688 170.730469 205.015625 170.726562 C 204.351562 170.722656 203.703125 170.632812 203.074219 170.457031 C 202.441406 170.28125 201.839844 170.023438 201.269531 169.683594 C 200.699219 169.34375 200.167969 168.933594 199.675781 168.441406 C 199.183594 167.953125 198.742188 167.398438 198.351562 166.777344 C 197.960938 166.15625 197.628906 165.484375 197.351562 164.753906 C 197.074219 164.027344 196.859375 163.257812 196.707031 162.449219 C 196.558594 161.640625 196.472656 160.808594 196.453125 159.953125 C 196.429688 159.09375 196.476562 158.230469 196.589844 157.359375 C 196.699219 156.484375 196.875 155.621094 197.113281 154.765625 C 197.355469 153.914062 197.652344 153.082031 198.011719 152.28125 C 198.367188 151.476562 198.777344 150.710938 199.238281 149.988281 C 199.703125 149.265625 200.207031 148.597656 200.757812 147.984375 C 201.304688 147.371094 201.886719 146.824219 202.503906 146.34375 C 203.117188 145.867188 203.753906 145.460938 204.410156 145.132812 C 205.070312 144.800781 205.734375 144.554688 206.410156 144.390625 C 207.082031 144.226562 207.75 144.144531 208.417969 144.152344 C 209.082031 144.15625 209.730469 144.246094 210.359375 144.421875 C 210.992188 144.597656 211.589844 144.855469 212.164062 145.191406 C 212.734375 145.53125 213.265625 145.945312 213.757812 146.433594 C 214.25 146.925781 214.6875 147.480469 215.082031 148.101562 C 215.472656 148.71875 215.804688 149.394531 216.082031 150.125 C 216.359375 150.851562 216.574219 151.621094 216.722656 152.429688 C 216.875 153.234375 216.960938 154.070312 216.980469 154.925781 C 217.003906 155.78125 216.957031 156.648438 216.84375 157.519531 C 216.734375 158.390625 216.558594 159.253906 216.316406 160.109375 Z M 216.316406 160.109375 " fill-opacity="1" fill-rule="nonzero"/><path fill="#000000" d="M 152.089844 133.214844 C 151.785156 134.046875 151.425781 134.855469 151.011719 135.628906 C 150.59375 136.40625 150.128906 137.136719 149.613281 137.824219 C 149.101562 138.507812 148.546875 139.136719 147.953125 139.707031 C 147.359375 140.28125 146.738281 140.78125 146.089844 141.214844 C 145.441406 141.648438 144.777344 142.007812 144.097656 142.285156 C 143.417969 142.566406 142.734375 142.761719 142.050781 142.878906 C 141.367188 142.992188 140.695312 143.023438 140.03125 142.96875 C 139.367188 142.914062 138.730469 142.777344 138.113281 142.554688 C 137.496094 142.335938 136.917969 142.035156 136.371094 141.652344 C 135.828125 141.273438 135.328125 140.824219 134.875 140.296875 C 134.421875 139.773438 134.023438 139.1875 133.679688 138.539062 C 133.332031 137.894531 133.050781 137.195312 132.828125 136.449219 C 132.605469 135.703125 132.449219 134.921875 132.359375 134.101562 C 132.269531 133.285156 132.246094 132.449219 132.289062 131.59375 C 132.332031 130.738281 132.441406 129.878906 132.617188 129.015625 C 132.792969 128.15625 133.03125 127.304688 133.332031 126.472656 C 133.636719 125.636719 133.996094 124.832031 134.410156 124.054688 C 134.828125 123.28125 135.292969 122.550781 135.808594 121.863281 C 136.320312 121.175781 136.875 120.546875 137.46875 119.976562 C 138.0625 119.40625 138.683594 118.902344 139.332031 118.46875 C 139.980469 118.035156 140.644531 117.679688 141.324219 117.398438 C 142.003906 117.121094 142.6875 116.921875 143.371094 116.808594 C 144.054688 116.691406 144.726562 116.660156 145.390625 116.714844 C 146.054688 116.769531 146.691406 116.90625 147.308594 117.128906 C 147.925781 117.351562 148.503906 117.652344 149.050781 118.03125 C 149.59375 118.410156 150.09375 118.863281 150.546875 119.386719 C 151 119.910156 151.398438 120.496094 151.742188 121.144531 C 152.089844 121.792969 152.371094 122.488281 152.59375 123.238281 C 152.816406 123.984375 152.972656 124.765625 153.0625 125.582031 C 153.152344 126.398438 153.175781 127.234375 153.132812 128.09375 C 153.089844 128.949219 152.980469 129.808594 152.804688 130.667969 C 152.628906 131.53125 152.390625 132.378906 152.089844 133.214844 Z M 152.089844 133.214844 " fill-opacity="1" fill-rule="nonzero"/><path fill="#fd8871" d="M 160.359375 203.957031 C 157.324219 208.648438 151.597656 210.347656 147.566406 207.757812 C 143.535156 205.164062 142.726562 199.261719 145.761719 194.570312 C 148.792969 189.878906 157.035156 185.335938 161.226562 188.472656 C 165.421875 191.605469 163.394531 199.269531 160.359375 203.957031 Z M 160.359375 203.957031 " fill-opacity="1" fill-rule="nonzero"/><path stroke-linecap="round" transform="matrix(0.724195, 0, 0, 0.724195, 34.634543, -21.324241)" fill="none" stroke-linejoin="round" d="M 271.063628 363.285887 C 284.67788 362.719526 305.01835 357.099062 322.440709 343.495597 M 167.581287 348.134368 C 183.504137 345.971406 202.431399 349.029759 214.621657 372.660519 C 226.197008 395.110011 245.010998 402.240772 254.417993 392.143355 M 167.581287 348.134368 C 161.772036 345.313348 156.216299 342.244208 150.935652 338.953917 M 167.581287 348.134368 C 160.110709 349.374969 147.817967 354.995433 146.372397 369.774772 M 322.440709 343.495597 C 342.063787 328.176867 357.986637 302.739143 356.454764 263.00214 C 375.268754 242.079128 406.386274 191.867133 397.702064 152.620977 C 386.126714 148.28966 355.731979 147.566874 300.007399 167.772496 C 284.812728 146.126698 214.621657 115.82366 145.147977 160.555432 C 68.49499 209.909793 78.851315 280.996255 132.844447 325.916815 C 138.427154 330.560979 144.473737 334.92466 150.935652 338.953917 M 322.440709 343.495597 C 328.233778 354.628647 336.917988 365.448849 369.481079 387.812038 C 406.548092 413.271337 423.015727 470.058519 424.477479 506.855836 C 424.752569 513.760053 430.642729 513.911082 441.829718 516.953253 C 455.578818 520.691239 485.509676 572.489045 475.725106 598.476948 M 286.258299 449.135506 C 216.067227 482.324291 185.154676 436.875128 179.162032 415.952115 C 176.265497 405.849304 171.923392 402.240772 166.858502 401.523381 C 162.861608 400.951625 157.915384 400.072416 153.821399 395.795038 M 150.935652 338.953917 C 124.149449 329.374317 90.599271 302.113449 77.848046 292.582394 C 63.376161 281.762191 55.414736 263.724925 34.43239 253.622115 C 16.033732 244.770693 6.918008 255.785076 5.472438 263.724925 C 5.245893 264.965527 5.046318 266.168371 4.873713 267.333457 M 313.745711 544.370544 C 214.173962 557.06783 158.891683 458.278199 143.702407 407.294874 C 77.125261 377.714621 28.973744 310.808447 19.960505 305.565557 C 16.130822 303.343262 11.777929 300.867453 8.590123 296.190925 M 313.745711 544.370544 C 327.964082 557.871524 366.260909 578.190418 411.440377 559.004247 M 313.745711 544.370544 C 298.551041 528.49624 279.731656 490.258746 328.940382 458.515532 M 420.847372 554.467961 C 417.681141 556.177834 414.54188 557.682737 411.440377 559.004247 M 411.440377 559.004247 C 419.35865 581.318891 439.035668 618.148572 461.371887 611.697444 M 475.725106 598.476948 C 474.177051 602.587115 471.636516 606.050011 467.882348 608.579759 C 465.692416 610.052299 463.518667 611.077144 461.371887 611.697444 M 475.725106 598.476948 C 472.628997 597.759557 465.277085 594.296661 460.643708 586.21657 M 461.371887 611.697444 C 457.995294 609.933633 450.082414 604.248442 445.449038 595.591202 M 4.873713 267.333457 C 8.692608 265.407828 18.353117 262.570627 26.454784 266.610672 M 4.873713 267.333457 C 2.694569 282.134372 4.841349 290.689128 8.590123 296.190925 M 8.590123 296.190925 C 10.445631 294.02257 16.902153 289.982524 27.905748 291.136823 M 146.372397 369.774772 C 146.140458 372.175066 146.194397 374.812693 146.598941 377.714621 C 147.8773 386.889678 150.579654 392.407657 153.821399 395.795038 M 146.372397 369.774772 C 149.096326 366.894419 157.872232 361.554439 171.184425 363.285887 M 153.821399 395.795038 C 154.781517 393.373169 159.317803 388.534823 169.738855 388.534823 " stroke="#000000" stroke-width="8" stroke-opacity="1" stroke-miterlimit="4"/><g clip-path="url(#916538c3fa)"><path fill="#fff2e6" d="M 132.6875 39.417969 C 133.34375 38.800781 134.058594 38.28125 134.945312 37.929688 C 136.597656 37.269531 138.527344 37.726562 139.847656 39.089844 C 141.023438 40.308594 141.671875 42.210938 141.578125 44.0625 C 141.566406 44.25 141.796875 44.34375 141.917969 44.203125 C 144.535156 41.128906 148.960938 40.460938 152.101562 42.765625 C 153.199219 43.566406 154.160156 44.734375 154.554688 46.195312 C 155.007812 47.894531 154.640625 49.777344 153.945312 51.355469 C 151.824219 56.175781 147.105469 58.453125 142.640625 59.546875 C 138.222656 60.628906 133.703125 60.933594 129.199219 61.179688 C 124.785156 61.421875 120.328125 61.609375 115.984375 60.660156 C 113.632812 60.144531 105.648438 57.808594 105.832031 54.054688 C 105.894531 52.855469 106.625 51.820312 107.5 51.21875 C 110.207031 49.359375 113.488281 50.101562 116.457031 49.789062 C 120.785156 49.328125 125.394531 46.929688 128.828125 43.683594 C 129.417969 43.128906 129.960938 42.5 130.5 41.871094 C 131.261719 40.984375 131.933594 40.132812 132.6875 39.417969 Z M 132.6875 39.417969 " fill-opacity="1" fill-rule="nonzero"/><g mask="url(#b6028a00d6)"><g transform="matrix(1, 0, 0, 1, 105, 37)"><g clip-path="url(#84ddddc0d0)"><g clip-path="url(#01435f3759)"><path fill="#8c52ff" d="M 27.6875 2.417969 C 28.34375 1.800781 29.058594 1.28125 29.945312 0.929688 C 31.597656 0.269531 33.527344 0.726562 34.847656 2.089844 C 36.023438 3.308594 36.671875 5.210938 36.578125 7.0625 C 36.566406 7.25 36.796875 7.34375 36.917969 7.203125 C 39.535156 4.128906 43.960938 3.460938 47.101562 5.765625 C 48.199219 6.566406 49.160156 7.734375 49.554688 9.195312 C 50.007812 10.894531 49.640625 12.777344 48.945312 14.355469 C 46.824219 19.175781 42.105469 21.453125 37.640625 22.546875 C 33.222656 23.628906 28.703125 23.933594 24.199219 24.179688 C 19.785156 24.421875 15.328125 24.609375 10.984375 23.660156 C 8.632812 23.144531 0.648438 20.808594 0.832031 17.054688 C 0.894531 15.855469 1.625 14.820312 2.5 14.21875 C 5.207031 12.359375 8.488281 13.101562 11.457031 12.789062 C 15.785156 12.328125 20.394531 9.929688 23.828125 6.683594 C 24.417969 6.128906 24.960938 5.5 25.5 4.871094 C 26.261719 3.984375 26.933594 3.132812 27.6875 2.417969 Z M 27.6875 2.417969 " fill-opacity="1" fill-rule="nonzero"/></g></g></g></g></g><g mask="url(#5d39db66e8)"><g transform="matrix(1, 0, 0, 1, 114, 51)"><g clip-path="url(#0632dad299)"><g clip-path="url(#cb6bc982a7)"><path fill="#592913" d="M 4.683594 6.613281 C 3.703125 6.613281 2.722656 6.582031 1.742188 6.527344 C 1.378906 6.503906 1.101562 6.191406 1.121094 5.828125 C 1.144531 5.460938 1.457031 5.183594 1.820312 5.203125 C 10.226562 5.699219 18.671875 4.007812 26.242188 0.324219 C 26.570312 0.164062 26.96875 0.300781 27.128906 0.628906 C 27.289062 0.957031 27.152344 1.355469 26.824219 1.515625 C 19.929688 4.871094 12.332031 6.613281 4.683594 6.613281 Z M 4.683594 6.613281 " fill-opacity="1" fill-rule="nonzero"/></g></g></g></g><g mask="url(#e799d6842a)"><g transform="matrix(1, 0, 0, 1, 115, 49)"><g clip-path="url(#4c644f2be8)"><g clip-path="url(#a47079cca4)"><path fill="#592913" d="M 1.203125 6.269531 C 0.882812 6.269531 0.601562 6.039062 0.546875 5.714844 C 0.492188 5.351562 0.734375 5.011719 1.097656 4.953125 C 5.296875 4.277344 9.335938 2.941406 13.113281 0.984375 C 13.433594 0.816406 13.835938 0.941406 14.003906 1.265625 C 14.171875 1.589844 14.046875 1.988281 13.722656 2.160156 C 9.820312 4.183594 5.644531 5.5625 1.308594 6.261719 C 1.273438 6.265625 1.238281 6.269531 1.203125 6.269531 Z M 1.203125 6.269531 " fill-opacity="1" fill-rule="nonzero"/></g></g></g></g><g clip-path="url(#bc4b5a9b24)"><path fill="#fff2e6" d="M 23.347656 47.394531 C 15.992188 49.246094 8.585938 51.800781 1.035156 51.28125 C 0.773438 51.265625 0.570312 51.5 0.617188 51.757812 C 1.269531 55.296875 4.714844 57.792969 8.144531 59.074219 C 11.347656 60.265625 14.792969 60.804688 18.207031 60.644531 C 18.339844 60.636719 18.382812 60.820312 18.261719 60.871094 C 17.289062 61.285156 16.339844 61.769531 15.652344 62.558594 C 14.808594 63.523438 14.503906 65.089844 15.320312 66.074219 C 16.164062 67.09375 18.925781 67.316406 20.238281 67.164062 C 23.277344 66.816406 25.863281 66.910156 28.820312 66.265625 C 28.917969 66.242188 29 66.351562 28.949219 66.441406 C 28.292969 67.582031 27.125 68.230469 27.804688 69.386719 C 28.46875 70.515625 29.96875 70.816406 31.277344 70.785156 C 35.804688 70.683594 39.855469 68.074219 43.527344 65.417969 C 46.035156 63.605469 48.5625 61.652344 50.09375 58.964844 C 54.058594 52.007812 48.300781 48.007812 42.132812 46.394531 C 35.972656 44.785156 29.410156 45.867188 23.347656 47.394531 Z M 23.347656 47.394531 " fill-opacity="1" fill-rule="nonzero"/></g><g clip-path="url(#e8c4959de1)"><g mask="url(#67f0ed0934)"><g transform="matrix(1, 0, 0, 1, -0.000000000000003553, 45)"><g clip-path="url(#76d6e3425b)"><g clip-path="url(#3e725c0004)"><path fill="#8c52ff" d="M 23.347656 2.394531 C 15.992188 4.246094 8.585938 6.800781 1.035156 6.28125 C 0.773438 6.265625 0.570312 6.5 0.617188 6.757812 C 1.269531 10.296875 4.714844 12.792969 8.144531 14.074219 C 11.347656 15.265625 14.792969 15.804688 18.207031 15.644531 C 18.339844 15.636719 18.382812 15.820312 18.261719 15.871094 C 17.289062 16.285156 16.339844 16.769531 15.652344 17.558594 C 14.808594 18.523438 14.503906 20.089844 15.320312 21.074219 C 16.164062 22.09375 18.925781 22.316406 20.238281 22.164062 C 23.277344 21.816406 25.863281 21.910156 28.820312 21.265625 C 28.917969 21.242188 29 21.351562 28.949219 21.441406 C 28.292969 22.582031 27.125 23.230469 27.804688 24.386719 C 28.46875 25.515625 29.96875 25.816406 31.277344 25.785156 C 35.804688 25.683594 39.855469 23.074219 43.527344 20.417969 C 46.035156 18.605469 48.5625 16.652344 50.09375 13.964844 C 54.058594 7.007812 48.300781 3.007812 42.132812 1.394531 C 35.972656 -0.214844 29.410156 0.867188 23.347656 2.394531 Z M 23.347656 2.394531 " fill-opacity="1" fill-rule="nonzero"/></g></g></g></g></g><g mask="url(#94bd4d899b)"><g transform="matrix(1, 0, 0, 1, 23, 51)"><g clip-path="url(#6af9292161)"><g clip-path="url(#8fdb5ceeb6)"><path fill="#592913" d="M 21.5625 3.167969 C 21.480469 3.167969 21.394531 3.152344 21.3125 3.117188 C 19.945312 2.550781 18.464844 2.347656 16.664062 2.21875 C 11.484375 1.84375 6.269531 2.15625 1.171875 3.140625 C 0.808594 3.210938 0.464844 2.976562 0.394531 2.617188 C 0.324219 2.257812 0.558594 1.910156 0.917969 1.839844 C 6.132812 0.832031 11.460938 0.515625 16.757812 0.898438 C 18.429688 1.019531 20.199219 1.222656 21.816406 1.894531 C 22.15625 2.03125 22.316406 2.421875 22.175781 2.757812 C 22.070312 3.011719 21.824219 3.167969 21.5625 3.167969 Z M 21.5625 3.167969 " fill-opacity="1" fill-rule="nonzero"/></g></g></g></g><g mask="url(#adf3d9c74e)"><g transform="matrix(1, 0, 0, 1, 29, 54)"><g clip-path="url(#7e2961e2cd)"><g clip-path="url(#f1fa993ff2)"><path fill="#592913" d="M 1.125 7.316406 C 0.871094 7.316406 0.632812 7.171875 0.519531 6.929688 C 0.367188 6.597656 0.515625 6.203125 0.847656 6.054688 C 5.316406 4.011719 10.71875 2.21875 15.667969 1.136719 C 16.023438 1.058594 16.378906 1.285156 16.457031 1.644531 C 16.535156 2 16.308594 2.351562 15.949219 2.429688 C 11.089844 3.492188 5.785156 5.253906 1.398438 7.257812 C 1.308594 7.296875 1.214844 7.316406 1.125 7.316406 Z M 1.125 7.316406 " fill-opacity="1" fill-rule="nonzero"/></g></g></g></g><g mask="url(#7008e4450a)"><g transform="matrix(1, 0, 0, 1, 36, 57)"><g clip-path="url(#ec2a3edea6)"><g clip-path="url(#eb3fbc6d81)"><path fill="#592913" d="M 1.6875 6.417969 C 1.476562 6.417969 1.273438 6.316406 1.144531 6.132812 C 0.933594 5.832031 1.007812 5.421875 1.308594 5.210938 C 3.828125 3.457031 6.464844 1.808594 9.140625 0.3125 C 9.460938 0.132812 9.863281 0.246094 10.042969 0.566406 C 10.222656 0.886719 10.109375 1.289062 9.789062 1.46875 C 7.148438 2.945312 4.550781 4.570312 2.066406 6.296875 C 1.949219 6.378906 1.816406 6.417969 1.6875 6.417969 Z M 1.6875 6.417969 " fill-opacity="1" fill-rule="nonzero"/></g></g></g></g><path fill="#fff2e6" d="M 26.53125 38.992188 C 23.179688 22.828125 36.3125 7.84375 52.757812 9.226562 C 62.984375 10.082031 72.847656 15.324219 78.644531 23.195312 C 83.839844 30.246094 90.328125 36.476562 97.519531 41.464844 C 101.273438 44.0625 105.285156 46.339844 109.539062 48.015625 C 113.199219 49.460938 117.59375 50.367188 118.566406 54.824219 C 119.171875 57.589844 118.257812 60.503906 116.738281 62.890625 C 110.050781 73.382812 95.351562 76.730469 83.652344 76.917969 C 42.414062 77.582031 30.003906 55.726562 26.53125 38.992188 Z M 26.53125 38.992188 " fill-opacity="1" fill-rule="nonzero"/><g mask="url(#d85ba40fb1)"><g transform="matrix(1, 0, 0, 1, 62, 13)"><g clip-path="url(#902c797381)"><g clip-path="url(#05f0cf4bcf)"><path fill="#fff2e6" d="M 4.425781 3.25 C 4.320312 3.25 4.210938 3.222656 4.113281 3.167969 C 3.113281 2.632812 2.074219 2.136719 1.023438 1.695312 C 0.6875 1.554688 0.527344 1.164062 0.667969 0.828125 C 0.808594 0.492188 1.199219 0.332031 1.535156 0.472656 C 2.625 0.929688 3.703125 1.445312 4.738281 2.003906 C 5.0625 2.175781 5.183594 2.578125 5.007812 2.898438 C 4.890625 3.121094 4.660156 3.25 4.425781 3.25 Z M 4.425781 3.25 " fill-opacity="1" fill-rule="nonzero"/></g></g></g></g><g mask="url(#2950a1b05e)"><g transform="matrix(1, 0, 0, 1, 47, 10)"><g clip-path="url(#b6c616a234)"><g clip-path="url(#f0a69c10b5)"><path fill="#fff2e6" d="M 13.394531 3.675781 C 13.324219 3.675781 13.257812 3.664062 13.1875 3.640625 C 10.582031 2.796875 7.902344 2.253906 5.226562 2.027344 C 3.890625 1.914062 2.546875 1.917969 1.234375 2.03125 C 0.867188 2.0625 0.546875 1.792969 0.515625 1.429688 C 0.484375 1.066406 0.753906 0.742188 1.121094 0.710938 C 2.507812 0.589844 3.925781 0.589844 5.335938 0.707031 C 8.117188 0.941406 10.894531 1.503906 13.597656 2.382812 C 13.945312 2.496094 14.136719 2.867188 14.023438 3.214844 C 13.933594 3.496094 13.671875 3.675781 13.394531 3.675781 Z M 13.394531 3.675781 " fill-opacity="1" fill-rule="nonzero"/></g></g></g></g><path fill="#fff2e6" d="M 93.039062 23.765625 C 101.8125 21.195312 111.066406 19.324219 118.59375 14.167969 C 118.851562 13.988281 119.203125 14.109375 119.3125 14.40625 C 120.800781 18.484375 118.746094 23.179688 115.964844 26.605469 C 113.371094 29.800781 110.117188 32.464844 106.476562 34.386719 C 106.332031 34.460938 106.402344 34.675781 106.5625 34.65625 C 107.820312 34.488281 109.105469 34.414062 110.300781 34.8125 C 111.765625 35.300781 113.039062 36.738281 112.792969 38.265625 C 112.539062 39.835938 109.808594 41.753906 108.351562 42.402344 C 104.984375 43.894531 102.355469 45.574219 98.890625 46.710938 C 98.769531 46.75 98.753906 46.910156 98.863281 46.972656 C 100.242188 47.753906 101.847656 47.714844 101.847656 49.332031 C 101.851562 50.910156 100.480469 52.136719 99.101562 52.90625 C 94.335938 55.570312 88.53125 55.335938 83.09375 54.820312 C 79.386719 54.46875 75.566406 53.984375 72.332031 52.128906 C 63.960938 47.324219 67.496094 39.652344 72.917969 34.207031 C 78.332031 28.769531 85.8125 25.886719 93.039062 23.765625 Z M 93.039062 23.765625 " fill-opacity="1" fill-rule="nonzero"/><g mask="url(#a311032703)"><g transform="matrix(1, 0, 0, 1, 67, 13)"><g clip-path="url(#2e7defa2e5)"><g clip-path="url(#ccd9ea4c8a)"><path fill="#8c52ff" d="M 26.039062 10.765625 C 34.8125 8.195312 44.066406 6.324219 51.59375 1.167969 C 51.851562 0.988281 52.203125 1.109375 52.3125 1.40625 C 53.800781 5.484375 51.746094 10.179688 48.964844 13.605469 C 46.371094 16.800781 43.117188 19.464844 39.476562 21.386719 C 39.332031 21.460938 39.402344 21.675781 39.5625 21.65625 C 40.820312 21.488281 42.105469 21.414062 43.300781 21.8125 C 44.765625 22.300781 46.039062 23.738281 45.792969 25.265625 C 45.539062 26.835938 42.808594 28.753906 41.351562 29.402344 C 37.984375 30.894531 35.355469 32.574219 31.890625 33.710938 C 31.769531 33.75 31.753906 33.910156 31.863281 33.972656 C 33.242188 34.753906 34.847656 34.714844 34.847656 36.332031 C 34.851562 37.910156 33.480469 39.136719 32.101562 39.90625 C 27.335938 42.570312 21.53125 42.335938 16.09375 41.820312 C 12.386719 41.46875 8.566406 40.984375 5.332031 39.128906 C -3.039062 34.324219 0.496094 26.652344 5.917969 21.207031 C 11.332031 15.769531 18.8125 12.886719 26.039062 10.765625 Z M 26.039062 10.765625 " fill-opacity="1" fill-rule="nonzero"/></g></g></g></g><path fill="#592913" d="M 46.332031 18.046875 C 46.628906 18.117188 46.910156 18.222656 47.183594 18.363281 C 47.453125 18.5 47.710938 18.667969 47.949219 18.867188 C 48.1875 19.066406 48.40625 19.289062 48.605469 19.539062 C 48.800781 19.789062 48.976562 20.0625 49.125 20.355469 C 49.269531 20.648438 49.390625 20.957031 49.484375 21.28125 C 49.578125 21.605469 49.640625 21.941406 49.675781 22.28125 C 49.710938 22.625 49.714844 22.972656 49.6875 23.320312 C 49.664062 23.671875 49.609375 24.015625 49.523438 24.359375 C 49.4375 24.699219 49.324219 25.03125 49.183594 25.351562 C 49.046875 25.671875 48.878906 25.976562 48.6875 26.265625 C 48.496094 26.550781 48.285156 26.816406 48.050781 27.0625 C 47.816406 27.304688 47.566406 27.523438 47.300781 27.710938 C 47.03125 27.902344 46.75 28.0625 46.460938 28.191406 C 46.167969 28.320312 45.871094 28.414062 45.566406 28.480469 C 45.261719 28.542969 44.957031 28.570312 44.652344 28.566406 C 44.347656 28.5625 44.046875 28.523438 43.753906 28.449219 C 43.460938 28.378906 43.175781 28.269531 42.90625 28.132812 C 42.632812 27.996094 42.375 27.828125 42.136719 27.628906 C 41.898438 27.429688 41.679688 27.207031 41.480469 26.957031 C 41.285156 26.707031 41.113281 26.433594 40.964844 26.140625 C 40.816406 25.847656 40.695312 25.539062 40.601562 25.214844 C 40.507812 24.890625 40.445312 24.554688 40.410156 24.210938 C 40.375 23.867188 40.371094 23.523438 40.398438 23.171875 C 40.425781 22.824219 40.480469 22.480469 40.5625 22.136719 C 40.648438 21.796875 40.761719 21.464844 40.902344 21.144531 C 41.042969 20.824219 41.207031 20.519531 41.398438 20.230469 C 41.589844 19.941406 41.800781 19.675781 42.035156 19.433594 C 42.269531 19.191406 42.519531 18.972656 42.789062 18.785156 C 43.054688 18.59375 43.335938 18.433594 43.628906 18.304688 C 43.917969 18.175781 44.214844 18.078125 44.519531 18.015625 C 44.824219 17.953125 45.128906 17.925781 45.433594 17.929688 C 45.738281 17.933594 46.039062 17.972656 46.332031 18.046875 Z M 46.332031 18.046875 " fill-opacity="1" fill-rule="nonzero"/><path fill="#ffd21d" d="M 30.363281 18.121094 C 27.074219 16.914062 23.324219 16.164062 19.332031 15.648438 C 18.78125 15.578125 18.417969 16.207031 18.75 16.648438 C 21.1875 19.878906 23.738281 22.808594 26.5 25.171875 C 26.636719 25.285156 26.558594 25.507812 26.378906 25.507812 C 23.535156 25.511719 20.679688 26.144531 17.824219 27.042969 C 17.347656 27.191406 17.226562 27.8125 17.617188 28.125 C 19.789062 29.875 22.214844 31.375 24.90625 32.613281 C 26.25 33.234375 27.820312 33.117188 29.046875 32.289062 C 32.71875 29.820312 34.21875 26.179688 32.980469 21.058594 C 32.652344 19.707031 31.667969 18.601562 30.363281 18.121094 Z M 30.363281 18.121094 " fill-opacity="1" fill-rule="nonzero"/><g clip-path="url(#e56f8f9574)"><g mask="url(#65adc2d953)"><g transform="matrix(1, 0, 0, 1, 37, 52)"><g clip-path="url(#14c40269ad)"><g clip-path="url(#51732a137a)"><path fill="#fff2e6" d="M 79.738281 10.890625 C 80.046875 10.40625 80.328125 9.898438 80.578125 9.378906 C 55.566406 24.933594 27.195312 10.242188 18.449219 3.144531 C 10.683594 -3.15625 1.539062 2.734375 0.773438 9.460938 C 9.253906 18.480469 23.351562 25.292969 46.652344 24.917969 C 58.351562 24.730469 73.050781 21.382812 79.738281 10.890625 Z M 79.738281 10.890625 " fill-opacity="1" fill-rule="nonzero"/></g></g></g></g></g><g mask="url(#3cb88336d2)"><g transform="matrix(1, 0, 0, 1, 73, 29)"><g clip-path="url(#134a9f938a)"><g clip-path="url(#fde0fa3f9a)"><path fill="#592913" d="M 1.738281 14.742188 C 1.597656 14.742188 1.457031 14.699219 1.339844 14.609375 C 1.046875 14.386719 0.988281 13.972656 1.207031 13.679688 C 2.46875 12.007812 4.171875 10.726562 5.824219 9.585938 C 11.082031 5.957031 16.800781 3.035156 22.820312 0.902344 C 23.164062 0.777344 23.542969 0.960938 23.664062 1.304688 C 23.789062 1.648438 23.605469 2.027344 23.261719 2.148438 C 17.351562 4.246094 11.738281 7.113281 6.574219 10.675781 C 5.015625 11.75 3.414062 12.957031 2.265625 14.480469 C 2.136719 14.652344 1.9375 14.742188 1.738281 14.742188 Z M 1.738281 14.742188 " fill-opacity="1" fill-rule="nonzero"/></g></g></g></g><g mask="url(#151b37064b)"><g transform="matrix(1, 0, 0, 1, 74, 40)"><g clip-path="url(#084715bc36)"><g clip-path="url(#3a0751c2a2)"><path fill="#592913" d="M 1.875 6.257812 C 1.597656 6.257812 1.339844 6.082031 1.246094 5.800781 C 1.132812 5.453125 1.324219 5.082031 1.671875 4.96875 C 7.460938 3.066406 14.15625 1.628906 20.039062 1.019531 C 20.40625 0.984375 20.726562 1.25 20.765625 1.613281 C 20.804688 1.976562 20.539062 2.300781 20.175781 2.339844 C 14.382812 2.9375 7.789062 4.355469 2.082031 6.226562 C 2.015625 6.246094 1.945312 6.257812 1.875 6.257812 Z M 1.875 6.257812 " fill-opacity="1" fill-rule="nonzero"/></g></g></g></g><g mask="url(#4d59ca600c)"><g transform="matrix(1, 0, 0, 1, 75, 47)"><g clip-path="url(#2c10e0a1ab)"><g clip-path="url(#1da61fd193)"><path fill="#592913" d="M 12.535156 2.148438 C 12.515625 2.148438 12.5 2.144531 12.484375 2.144531 C 8.839844 1.867188 5.144531 1.765625 1.496094 1.847656 C 1.136719 1.859375 0.828125 1.566406 0.820312 1.199219 C 0.8125 0.832031 1.101562 0.53125 1.464844 0.523438 C 5.160156 0.441406 8.898438 0.542969 12.582031 0.824219 C 12.949219 0.851562 13.222656 1.171875 13.195312 1.535156 C 13.167969 1.882812 12.878906 2.144531 12.535156 2.144531 Z M 12.535156 2.148438 " fill-opacity="1" fill-rule="nonzero"/></g></g></g></g></g></g></svg>