<svg xmlns="http://www.w3.org/2000/svg" xmlns:xlink="http://www.w3.org/1999/xlink" width="600" zoomAndPan="magnify" viewBox="0 0 450 449.999984" height="600" preserveAspectRatio="xMidYMid meet" version="1.0"><defs><clipPath id="fbafd3ee75"><path d="M 3 12 L 446.890625 12 L 446.890625 438.523438 L 3 438.523438 Z M 3 12 " clip-rule="nonzero"/></clipPath></defs><path fill="#fcce5d" d="M 398.710938 145.386719 L 300.386719 94.625 C 296.511719 92.621094 294.992188 87.855469 296.988281 83.980469 L 330.144531 19.609375 C 332.140625 15.730469 336.902344 14.207031 340.773438 16.210938 L 439.097656 66.972656 C 442.96875 68.972656 444.492188 73.738281 442.496094 77.617188 L 409.339844 141.984375 C 407.34375 145.867188 402.582031 147.386719 398.710938 145.386719 " fill-opacity="1" fill-rule="nonzero"/><path fill="#fabd42" d="M 404.707031 133.742188 L 306.386719 82.976562 C 302.511719 80.976562 300.988281 76.210938 302.988281 72.332031 L 296.988281 83.980469 C 294.992188 87.855469 296.511719 92.621094 300.386719 94.625 L 398.710938 145.386719 C 402.582031 147.386719 407.34375 145.867188 409.339844 141.984375 L 415.339844 130.339844 C 413.339844 134.214844 408.582031 135.742188 404.707031 133.742188 " fill-opacity="1" fill-rule="nonzero"/><path fill="#fde398" d="M 363.078125 82.65625 C 364.558594 86.191406 368.359375 88.15625 372.09375 87.308594 L 442.898438 71.320312 C 442.246094 69.507812 440.941406 67.925781 439.097656 66.972656 L 340.773438 16.210938 C 338.933594 15.257812 336.886719 15.113281 335.035156 15.628906 L 363.078125 82.65625 " fill-opacity="1" fill-rule="nonzero"/><path fill="#fef3e3" d="M 356.597656 101.585938 C 341.476562 98.355469 326.597656 108.011719 323.367188 123.15625 C 322.585938 126.832031 321.714844 130.445312 320.753906 133.988281 C 317.941406 128.003906 314.660156 123.042969 311.875 119.382812 C 311.875 119.382812 327.222656 65.308594 311.554688 51.15625 C 297.960938 38.878906 248.3125 67.164062 248.3125 67.164062 C 242.839844 65.601562 232.707031 63.457031 218.222656 63.457031 C 203.742188 63.457031 193.605469 65.601562 188.136719 67.164062 C 188.136719 67.164062 138.488281 38.878906 124.898438 51.15625 C 109.230469 65.308594 124.570312 119.382812 124.570312 119.382812 C 114.972656 132.023438 99.359375 160.121094 117.816406 192.523438 C 119.308594 195.144531 120.984375 197.605469 122.804688 199.914062 C 107.511719 217.9375 85.863281 249.839844 83.574219 287.996094 C 82.273438 309.683594 88.945312 322.761719 97.976562 330.625 C 90.097656 337.910156 80.730469 344.257812 70.714844 346.277344 C 58.882812 348.664062 47.097656 344.613281 34.683594 333.898438 C 27.53125 327.714844 16.726562 328.515625 10.558594 335.679688 C 4.386719 342.839844 5.179688 353.65625 12.335938 359.835938 C 22.855469 368.917969 33.890625 375.183594 45.136719 378.46875 C 51.398438 380.292969 57.742188 381.207031 64.101562 381.207031 C 68.59375 381.207031 73.09375 380.75 77.585938 379.835938 C 86.511719 378.019531 95.269531 374.449219 103.820312 369.171875 C 107.910156 385.40625 121.519531 408.257812 154.835938 414.058594 C 201.367188 422.164062 210.847656 380.933594 210.851562 380.929688 C 211.265625 380.96875 211.6875 380.996094 212.109375 381.027344 C 212.375 381.046875 212.640625 381.066406 212.910156 381.082031 C 213.371094 381.105469 213.84375 381.125 214.316406 381.148438 C 214.550781 381.152344 214.78125 381.167969 215.015625 381.175781 C 215.730469 381.195312 216.445312 381.207031 217.171875 381.207031 C 217.863281 381.207031 218.546875 381.195312 219.21875 381.179688 C 219.449219 381.171875 219.675781 381.15625 219.898438 381.148438 C 220.34375 381.136719 220.785156 381.117188 221.222656 381.09375 C 221.484375 381.082031 221.746094 381.058594 222.007812 381.042969 C 222.398438 381.019531 222.789062 380.992188 223.171875 380.960938 C 223.449219 380.9375 223.71875 380.910156 223.996094 380.886719 C 224.355469 380.851562 224.71875 380.820312 225.074219 380.78125 C 225.121094 380.777344 225.167969 380.769531 225.214844 380.769531 C 224.804688 396.753906 226.53125 411.097656 228.0625 420.367188 C 229.195312 427.21875 233.976562 432.609375 241.304688 433.894531 C 254.589844 436.21875 275.578125 436.339844 283.445312 425.78125 C 299.953125 403.632812 318.894531 335.578125 313.238281 291.351562 C 311.957031 281.304688 308.898438 270.753906 305.015625 260.554688 C 310.515625 256.042969 316.613281 250.5 322.914062 243.796875 C 349.996094 215.007812 369.09375 177.335938 378.144531 134.855469 C 381.371094 119.710938 371.726562 104.8125 356.597656 101.585938 " fill-opacity="1" fill-rule="nonzero"/><path fill="#f5dbc6" d="M 105.71875 314.347656 C 95.230469 314.347656 87.703125 304.804688 83.539062 297.683594 C 85.355469 329.382812 106.792969 338.714844 121.929688 341.328125 C 124.257812 341.5625 126.398438 341.585938 128.371094 341.441406 C 122.347656 331.886719 120.246094 319.691406 119.746094 309.417969 C 115.617188 311.84375 109.863281 314.347656 105.71875 314.347656 " fill-opacity="1" fill-rule="nonzero"/><path fill="#f5dbc6" d="M 191.207031 376.46875 L 191.207031 376.472656 C 195.746094 378.199219 201.730469 379.921875 208.835938 380.730469 C 209.234375 380.773438 209.636719 380.816406 210.039062 380.859375 C 210.308594 380.882812 210.578125 380.894531 210.851562 380.929688 C 210.847656 380.933594 201.367188 422.164062 154.835938 414.058594 C 142.589844 411.929688 133.007812 407.488281 125.582031 401.925781 C 189.03125 404.824219 191.207031 376.46875 191.207031 376.46875 " fill-opacity="1" fill-rule="nonzero"/><path fill="#f5dbc6" d="M 215.015625 381.175781 C 214.78125 381.167969 214.554688 381.152344 214.324219 381.148438 C 213.847656 381.125 213.375 381.109375 212.90625 381.082031 C 212.640625 381.066406 212.375 381.046875 212.113281 381.027344 C 211.6875 380.996094 211.265625 380.964844 210.851562 380.929688 C 210.574219 380.90625 210.308594 380.882812 210.039062 380.859375 C 209.636719 380.816406 209.234375 380.773438 208.835938 380.730469 C 201.730469 379.921875 195.746094 378.199219 191.207031 376.472656 L 191.207031 376.46875 C 184.992188 374.105469 181.480469 371.738281 181.480469 371.738281 L 181.476562 371.742188 C 175.921875 368.175781 169.671875 362.421875 167.65625 353.863281 C 167.164062 351.761719 169.660156 350.265625 171.261719 351.707031 C 177.175781 357.023438 190.351562 364.859375 217.171875 365.847656 C 243.996094 364.859375 257.171875 357.023438 263.085938 351.707031 C 264.6875 350.265625 267.179688 351.761719 266.6875 353.863281 C 262.800781 370.378906 243.136719 376.472656 243.136719 376.472656 C 243.136719 376.472656 241.492188 392.554688 242.246094 410.363281 C 242.726562 421.652344 254.582031 430.121094 263.191406 434.804688 C 255.640625 435.597656 247.605469 434.996094 241.304688 433.894531 C 233.976562 432.609375 229.195312 427.21875 228.0625 420.367188 C 226.53125 411.097656 224.804688 396.753906 225.214844 380.769531 C 222.671875 381.046875 219.988281 381.207031 217.171875 381.207031 C 216.445312 381.207031 215.726562 381.195312 215.015625 381.175781 " fill-opacity="1" fill-rule="nonzero"/><path fill="#ffffff" d="M 159.445312 305.292969 C 159.445312 276.679688 185.300781 243.71875 217.1875 243.71875 C 249.078125 243.71875 274.929688 276.679688 274.929688 305.292969 C 274.929688 333.90625 249.078125 347.34375 217.1875 347.34375 C 185.300781 347.34375 159.445312 333.90625 159.445312 305.292969 " fill-opacity="1" fill-rule="nonzero"/><path fill="#fbc78a" d="M 229.53125 63.921875 C 238.09375 64.636719 244.402344 66.042969 248.3125 67.160156 C 248.3125 67.164062 297.960938 38.878906 311.554688 51.15625 C 327.222656 65.308594 311.875 119.382812 311.875 119.382812 C 320.414062 130.628906 333.714844 154.101562 323.554688 181.964844 C 245.308594 188.996094 231.167969 110.105469 229.53125 63.921875 " fill-opacity="1" fill-rule="nonzero"/><path fill="#f9ac61" d="M 293.128906 102.515625 C 287.253906 97 276.160156 86.792969 267.402344 79.984375 C 265.410156 78.433594 265.722656 75.335938 267.980469 74.210938 C 276.378906 70.015625 293.25 62.617188 299.507812 67.28125 C 305.585938 71.8125 301.355469 91.238281 298.785156 100.902344 C 298.117188 103.40625 295.019531 104.296875 293.128906 102.515625 " fill-opacity="1" fill-rule="nonzero"/><path fill="#fbc78a" d="M 206.917969 63.921875 C 198.355469 64.636719 192.046875 66.042969 188.136719 67.160156 C 188.136719 67.164062 138.488281 38.878906 124.898438 51.15625 C 109.230469 65.308594 124.570312 119.382812 124.570312 119.382812 C 116.035156 130.628906 102.738281 154.101562 112.894531 181.964844 C 191.144531 188.996094 205.285156 110.105469 206.917969 63.921875 " fill-opacity="1" fill-rule="nonzero"/><path fill="#f5dbc6" d="M 218.222656 216.347656 C 218.222656 216.347656 140.59375 217.617188 111.296875 176.921875 C 112.667969 181.972656 114.777344 187.1875 117.816406 192.523438 C 142.945312 236.652344 218.222656 235.3125 218.222656 235.3125 C 218.222656 235.3125 293.503906 236.652344 318.636719 192.523438 C 321.671875 187.1875 323.78125 181.972656 325.152344 176.921875 C 295.859375 217.617188 218.222656 216.347656 218.222656 216.347656 " fill-opacity="1" fill-rule="nonzero"/><path fill="#f9ac61" d="M 162.710938 159.742188 C 162.710938 163.191406 158.085938 165.988281 152.382812 165.988281 C 146.671875 165.988281 142.046875 163.191406 142.046875 159.742188 C 142.046875 156.292969 146.671875 153.5 152.382812 153.5 C 158.085938 153.5 162.710938 156.292969 162.710938 159.742188 " fill-opacity="1" fill-rule="nonzero"/><path fill="#f9ac61" d="M 270.710938 159.742188 C 270.710938 163.191406 275.335938 165.988281 281.042969 165.988281 C 286.75 165.988281 291.375 163.191406 291.375 159.742188 C 291.375 156.292969 286.75 153.5 281.042969 153.5 C 275.335938 153.5 270.710938 156.292969 270.710938 159.742188 " fill-opacity="1" fill-rule="nonzero"/><path fill="#f9ac61" d="M 143.320312 102.515625 C 149.195312 97 160.289062 86.792969 169.046875 79.984375 C 171.039062 78.433594 170.726562 75.335938 168.472656 74.210938 C 160.070312 70.015625 143.203125 62.617188 136.941406 67.28125 C 130.863281 71.8125 135.097656 91.238281 137.664062 100.902344 C 138.332031 103.40625 141.429688 104.296875 143.320312 102.515625 " fill-opacity="1" fill-rule="nonzero"/><path fill="#f5dbc6" d="M 298.472656 245.160156 C 300.789062 250.121094 303.007812 255.292969 305.015625 260.554688 C 310.515625 256.042969 316.613281 250.5 322.914062 243.796875 C 337.363281 228.4375 349.539062 210.550781 359.125 190.753906 C 349.160156 203.269531 329.125 226.859375 298.472656 245.160156 " fill-opacity="1" fill-rule="nonzero"/><path fill="#f5dbc6" d="M 102.566406 355.710938 C 94.414062 360.570312 86.074219 363.886719 77.585938 365.613281 C 73.09375 366.527344 68.59375 366.984375 64.101562 366.984375 C 57.742188 366.984375 51.398438 366.066406 45.136719 364.246094 C 33.890625 360.960938 22.855469 354.695312 12.335938 345.613281 C 10.402344 343.945312 8.941406 341.9375 7.945312 339.753906 C 4.867188 346.503906 6.441406 354.742188 12.335938 359.835938 C 22.855469 368.917969 33.890625 375.183594 45.136719 378.46875 C 51.398438 380.292969 57.742188 381.207031 64.101562 381.207031 C 68.59375 381.207031 73.09375 380.75 77.585938 379.835938 C 86.511719 378.019531 95.269531 374.449219 103.820312 369.171875 C 102.40625 363.570312 102.128906 358.761719 102.566406 355.710938 " fill-opacity="1" fill-rule="nonzero"/><path fill="#353333" d="M 234.65625 166.023438 C 226.667969 161.304688 224.207031 155.066406 223.492188 150.984375 C 227.945312 149.402344 231.042969 146.027344 231.042969 143.042969 C 231.042969 138.984375 225.304688 137.183594 218.222656 137.183594 C 211.148438 137.183594 205.410156 138.984375 205.410156 143.042969 C 205.410156 146.027344 208.507812 149.402344 212.960938 150.984375 C 212.246094 155.066406 209.785156 161.304688 201.792969 166.023438 C 200.519531 166.773438 201.148438 168.792969 202.609375 168.609375 C 206.996094 168.050781 213.035156 166.046875 218.222656 159.894531 C 223.414062 166.046875 229.457031 168.050781 233.84375 168.609375 C 235.304688 168.792969 235.933594 166.773438 234.65625 166.023438 " fill-opacity="1" fill-rule="nonzero"/><path fill="#353333" d="M 173.714844 131.402344 C 164.726562 129.800781 160.625 135.570312 158.808594 140.203125 C 158.285156 141.535156 159.839844 142.714844 160.914062 141.8125 C 163.628906 139.53125 167.738281 137.199219 172.566406 138.121094 C 176.554688 138.882812 179.46875 142.511719 181.269531 145.589844 C 181.996094 146.824219 183.828125 146.253906 183.769531 144.820312 C 183.5625 139.800781 181.777344 132.835938 173.714844 131.402344 " fill-opacity="1" fill-rule="nonzero"/><path fill="#353333" d="M 275.53125 141.8125 C 276.613281 142.714844 278.167969 141.535156 277.644531 140.203125 C 275.820312 135.570312 271.722656 129.800781 262.730469 131.402344 C 254.671875 132.835938 252.886719 139.800781 252.683594 144.820312 C 252.625 146.253906 254.457031 146.824219 255.175781 145.589844 C 256.980469 142.511719 259.894531 138.882812 263.882812 138.121094 C 268.710938 137.199219 272.820312 139.53125 275.53125 141.8125 " fill-opacity="1" fill-rule="nonzero"/><g clip-path="url(#fbafd3ee75)"><path fill="#353333" d="M 439.6875 76.167969 L 406.535156 140.535156 C 405.335938 142.859375 402.472656 143.773438 400.15625 142.574219 L 381.652344 133.023438 C 382.617188 125.683594 380.972656 118.316406 376.902344 112.035156 C 372.375 105.039062 365.398438 100.234375 357.257812 98.492188 C 349.121094 96.757812 340.789062 98.292969 333.808594 102.828125 C 332.285156 103.816406 330.875 104.925781 329.566406 106.132812 L 319.242188 100.804688 C 319.792969 97.699219 320.300781 94.378906 320.726562 90.960938 C 322.929688 72.964844 321.59375 60.066406 316.753906 52.5 L 332.949219 21.058594 C 333.113281 20.746094 333.308594 20.457031 333.523438 20.199219 L 360.167969 83.878906 C 361.917969 88.0625 365.972656 90.667969 370.34375 90.667969 C 371.152344 90.667969 371.972656 90.578125 372.789062 90.390625 L 440.054688 75.203125 C 439.96875 75.53125 439.851562 75.859375 439.6875 76.167969 Z M 375.054688 134.195312 C 375.054688 134.207031 375.054688 134.21875 375.050781 134.230469 C 366.113281 176.132812 347.292969 213.269531 320.617188 241.628906 C 316.0625 246.476562 311.269531 251.054688 306.339844 255.304688 C 304.789062 251.472656 303.078125 247.550781 301.199219 243.527344 C 300.460938 241.945312 298.578125 241.265625 297 242.003906 C 295.421875 242.746094 294.738281 244.628906 295.480469 246.210938 C 297.972656 251.527344 300.15625 256.667969 302.042969 261.617188 C 302.066406 261.675781 302.089844 261.734375 302.113281 261.796875 C 306.285156 272.765625 308.964844 282.800781 310.109375 291.753906 C 312.613281 311.363281 310.238281 338.464844 303.585938 366.105469 C 297.582031 391.039062 288.898438 413.179688 280.914062 423.890625 C 274.660156 432.28125 256.789062 433.394531 241.84375 430.78125 C 236.128906 429.777344 232.140625 425.695312 231.175781 419.851562 C 229.761719 411.277344 228.164062 398.214844 228.320312 383.558594 C 244.242188 381.238281 254.128906 374.695312 254.628906 374.359375 C 256.074219 373.386719 256.453125 371.425781 255.484375 369.976562 C 254.515625 368.53125 252.554688 368.140625 251.105469 369.113281 C 250.972656 369.203125 237.507812 378.042969 217.171875 378.042969 C 196.875 378.042969 183.417969 369.230469 183.242188 369.113281 C 181.792969 368.140625 179.835938 368.523438 178.863281 369.96875 C 177.890625 371.417969 178.273438 373.386719 179.71875 374.359375 C 180.222656 374.699219 190.375 381.414062 206.675781 383.648438 C 205.332031 387.265625 202.617188 393.179688 197.761719 398.625 C 187.675781 409.941406 173.417969 414.085938 155.375 410.945312 C 132.523438 406.96875 120.363281 394.707031 114.179688 385.125 C 106.097656 372.597656 104.777344 359.476562 105.867188 355.234375 C 106.867188 351.332031 111.164062 348.421875 114.589844 346.667969 C 118.679688 344.578125 123.71875 345.042969 127.425781 347.855469 C 129.734375 349.609375 132.523438 351.667969 135.457031 353.6875 C 135.464844 353.691406 135.46875 353.695312 135.476562 353.699219 C 135.476562 353.703125 135.480469 353.703125 135.484375 353.707031 C 138.921875 356.078125 142.554688 358.398438 145.847656 360.136719 C 147.386719 360.953125 149.296875 360.359375 150.113281 358.816406 C 150.925781 357.273438 150.332031 355.359375 148.792969 354.546875 C 145.761719 352.945312 142.382812 350.789062 139.15625 348.566406 C 136.035156 346.304688 133.355469 343.398438 131.109375 339.871094 C 131.066406 339.804688 131.027344 339.734375 130.976562 339.664062 C 127.570312 334.238281 125.1875 327.359375 123.882812 319.066406 C 121.886719 306.429688 123.085938 294.96875 123.503906 291.757812 C 124.691406 282.585938 131.386719 260.585938 138.242188 245.96875 C 138.988281 244.390625 138.304688 242.507812 136.730469 241.765625 C 135.152344 241.023438 133.269531 241.699219 132.527344 243.28125 C 125.320312 258.648438 118.511719 281.117188 117.242188 290.949219 C 116.785156 294.476562 114.019531 319.1875 123.050781 338.246094 C 122.820312 338.230469 122.589844 338.214844 122.355469 338.195312 C 114.804688 336.875 106.726562 334.039062 100.15625 328.355469 C 100.042969 328.242188 99.925781 328.136719 99.800781 328.046875 C 91.363281 320.546875 85.527344 308.230469 86.726562 288.1875 C 88.796875 253.605469 106.960938 224.230469 122.804688 204.859375 C 133.648438 217.097656 149.753906 226.21875 170.875 232.046875 C 172.554688 232.511719 174.292969 231.519531 174.757812 229.839844 C 175.21875 228.152344 174.234375 226.414062 172.550781 225.949219 C 151.195312 220.0625 135.386719 210.726562 125.417969 198.148438 C 125.347656 198.042969 125.273438 197.941406 125.1875 197.84375 C 123.46875 195.644531 121.921875 193.351562 120.558594 190.957031 C 115.863281 182.714844 113.472656 174.769531 112.679688 167.304688 C 112.675781 167.171875 112.660156 167.035156 112.636719 166.902344 C 112.074219 161.226562 112.433594 155.832031 113.398438 150.804688 C 113.484375 150.550781 113.535156 150.289062 113.558594 150.027344 C 116.066406 137.839844 122.101562 127.863281 127.085938 121.296875 C 127.6875 120.503906 127.882812 119.476562 127.613281 118.519531 C 127.574219 118.382812 123.820312 105.0625 121.992188 90.191406 C 119.703125 71.527344 121.484375 58.5 127.011719 53.503906 C 135.660156 45.691406 168.136719 59.417969 186.574219 69.90625 C 187.316406 70.328125 188.191406 70.433594 189.003906 70.199219 C 194.722656 68.566406 204.4375 66.617188 218.222656 66.617188 C 232.015625 66.617188 241.726562 68.566406 247.445312 70.199219 C 248.25 70.429688 249.125 70.332031 249.871094 69.90625 C 268.320312 59.425781 300.800781 45.703125 309.441406 53.503906 C 309.820312 53.847656 310.179688 54.226562 310.519531 54.632812 C 310.574219 54.707031 310.628906 54.78125 310.691406 54.851562 C 317.621094 63.519531 315.777344 84.914062 312.707031 101.597656 C 312.628906 101.84375 312.582031 102.097656 312.566406 102.347656 C 311.34375 108.867188 309.945312 114.613281 308.839844 118.519531 C 308.570312 119.476562 308.761719 120.503906 309.363281 121.296875 C 312.101562 124.898438 315.152344 129.53125 317.761719 134.988281 C 317.839844 135.21875 317.945312 135.441406 318.074219 135.652344 C 320.089844 139.972656 321.816406 144.800781 322.894531 150.03125 C 322.914062 150.289062 322.960938 150.550781 323.050781 150.800781 C 324.019531 155.832031 324.371094 161.230469 323.808594 166.90625 C 323.789062 167.035156 323.773438 167.167969 323.769531 167.300781 C 322.976562 174.765625 320.589844 182.710938 315.890625 190.957031 C 306.632812 207.21875 289.136719 218.992188 263.886719 225.953125 C 262.203125 226.417969 261.21875 228.15625 261.679688 229.84375 C 262.070312 231.242188 263.339844 232.164062 264.722656 232.164062 C 265 232.164062 265.28125 232.125 265.5625 232.046875 C 292.480469 224.628906 311.257812 211.855469 321.378906 194.089844 C 322.570312 191.992188 323.640625 189.882812 324.597656 187.765625 L 332.5 190.589844 C 332.847656 190.714844 333.207031 190.773438 333.5625 190.773438 C 334.855469 190.773438 336.074219 189.96875 336.535156 188.675781 C 337.117188 187.03125 336.265625 185.222656 334.621094 184.636719 L 326.933594 181.886719 C 328.21875 178.15625 329.148438 174.390625 329.710938 170.59375 L 339.429688 170.59375 C 341.175781 170.59375 342.585938 169.179688 342.585938 167.433594 C 342.585938 165.691406 341.175781 164.277344 339.429688 164.277344 L 330.324219 164.277344 C 330.503906 160.167969 330.265625 156.03125 329.613281 151.871094 L 337.796875 148.949219 C 339.4375 148.359375 340.296875 146.554688 339.710938 144.910156 C 339.125 143.265625 337.316406 142.410156 335.675781 142.996094 L 328.324219 145.621094 C 327.222656 141.332031 325.746094 137.347656 324.097656 133.703125 C 324.960938 130.414062 325.757812 127.097656 326.457031 123.816406 C 327.394531 119.421875 329.449219 115.457031 332.398438 112.234375 C 332.460938 112.171875 332.519531 112.101562 332.578125 112.035156 C 333.949219 110.566406 335.511719 109.253906 337.242188 108.132812 C 342.808594 104.515625 349.453125 103.289062 355.941406 104.675781 C 362.433594 106.0625 367.996094 109.898438 371.605469 115.472656 C 375.214844 121.050781 376.445312 127.695312 375.054688 134.195312 Z M 99.753906 353.660156 C 98.902344 356.960938 99.085938 362.140625 100.230469 367.636719 C 92.613281 372.082031 84.792969 375.144531 76.957031 376.738281 C 72.695312 377.605469 68.371094 378.042969 64.101562 378.042969 C 58.050781 378.042969 51.964844 377.164062 46.019531 375.429688 C 35.207031 372.277344 24.574219 366.222656 14.398438 357.441406 C 11.578125 355.003906 9.875 351.617188 9.597656 347.890625 C 9.324219 344.171875 10.511719 340.566406 12.949219 337.742188 C 17.972656 331.910156 26.796875 331.257812 32.625 336.285156 C 45.824219 347.6875 58.484375 351.96875 71.339844 349.375 C 80.027344 347.621094 89.011719 342.710938 98.074219 334.777344 C 102.117188 337.851562 106.464844 340.035156 110.679688 341.59375 C 104.636719 344.910156 100.957031 348.964844 99.753906 353.660156 Z M 318.003906 107.277344 L 325.277344 111.027344 C 322.882812 114.425781 321.175781 118.308594 320.285156 122.496094 C 320.085938 123.417969 319.882812 124.347656 319.667969 125.273438 C 318.199219 122.828125 316.714844 120.628906 315.328125 118.726562 C 315.882812 116.628906 316.921875 112.523438 318.003906 107.277344 Z M 436.953125 69.421875 L 371.398438 84.226562 C 369.152344 84.734375 366.882812 83.558594 365.992188 81.433594 L 340.027344 19.378906 Z M 446.003906 70.628906 C 445.972656 70.53125 445.929688 70.4375 445.894531 70.34375 C 445.878906 70.28125 445.855469 70.21875 445.828125 70.15625 C 444.871094 67.5625 443.015625 65.441406 440.546875 64.164062 L 342.222656 13.398438 C 339.730469 12.113281 336.96875 11.878906 334.441406 12.527344 C 334.308594 12.554688 334.175781 12.589844 334.039062 12.632812 C 331.246094 13.460938 328.773438 15.371094 327.339844 18.164062 L 312.15625 47.640625 C 305.117188 42.949219 292.542969 44.234375 273.839844 51.550781 C 262.007812 56.179688 251.355469 61.871094 247.90625 63.773438 C 241.683594 62.113281 231.78125 60.296875 218.222656 60.296875 C 204.667969 60.296875 194.769531 62.113281 188.542969 63.773438 C 185.105469 61.875 174.5 56.207031 162.664062 51.570312 C 142.507812 43.675781 129.460938 42.773438 122.785156 48.808594 C 115.476562 55.410156 113.101562 69.589844 115.726562 90.960938 C 117.269531 103.519531 120.066406 114.742188 121.121094 118.726562 C 116.574219 124.949219 111.050781 134.242188 108.125 145.621094 L 100.777344 142.996094 C 99.132812 142.410156 97.328125 143.265625 96.742188 144.910156 C 96.15625 146.554688 97.011719 148.359375 98.652344 148.949219 L 106.835938 151.871094 C 106.183594 156.03125 105.949219 160.167969 106.128906 164.277344 L 97.023438 164.277344 C 95.277344 164.277344 93.863281 165.691406 93.863281 167.433594 C 93.863281 169.179688 95.277344 170.59375 97.023438 170.59375 L 106.738281 170.59375 C 107.304688 174.390625 108.230469 178.15625 109.519531 181.886719 L 101.828125 184.636719 C 100.1875 185.222656 99.328125 187.03125 99.917969 188.675781 C 100.378906 189.96875 101.59375 190.773438 102.890625 190.773438 C 103.246094 190.773438 103.601562 190.714844 103.953125 190.589844 L 111.855469 187.765625 C 112.8125 189.882812 113.878906 191.992188 115.074219 194.089844 C 116.195312 196.0625 117.433594 197.96875 118.769531 199.816406 C 102.125 219.914062 82.636719 250.933594 80.425781 287.808594 C 79.171875 308.722656 85.050781 322.054688 93.296875 330.554688 C 85.296875 337.433594 77.503906 341.683594 70.089844 343.179688 C 59.277344 345.363281 48.371094 341.539062 36.746094 331.503906 C 28.285156 324.195312 15.46875 325.140625 8.164062 333.613281 C 4.628906 337.71875 2.902344 342.953125 3.300781 348.355469 C 3.699219 353.761719 6.175781 358.6875 10.277344 362.230469 C 21.136719 371.609375 32.566406 378.09375 44.25 381.5 C 50.777344 383.402344 57.453125 384.367188 64.101562 384.367188 C 68.792969 384.367188 73.542969 383.882812 78.21875 382.933594 C 86.21875 381.304688 94.171875 378.289062 101.917969 373.953125 C 103.3125 378.207031 105.484375 383.296875 108.875 388.554688 C 115.738281 399.199219 129.195312 412.804688 154.292969 417.175781 C 158.625 417.929688 162.644531 418.269531 166.386719 418.269531 C 184.628906 418.269531 196.019531 410.164062 202.660156 402.625 C 208.828125 395.621094 211.882812 388.121094 213.160156 384.261719 C 214.46875 384.328125 215.804688 384.367188 217.171875 384.367188 C 218.828125 384.367188 220.433594 384.308594 222.003906 384.210938 C 221.902344 399.03125 223.515625 412.195312 224.949219 420.886719 C 226.351562 429.367188 232.40625 435.542969 240.757812 437.003906 C 243.042969 437.40625 249.101562 438.328125 256.226562 438.328125 C 266.722656 438.328125 279.527344 436.320312 285.976562 427.671875 C 294.433594 416.320312 303.535156 393.296875 309.722656 367.585938 C 316.652344 338.808594 319.011719 311.589844 316.375 290.949219 C 315.234375 282.0625 312.675781 272.21875 308.753906 261.546875 C 314.449219 256.757812 319.980469 251.523438 325.214844 245.964844 C 351.84375 217.652344 370.859375 180.898438 380.359375 139.46875 L 397.261719 148.195312 C 398.851562 149.015625 400.574219 149.429688 402.316406 149.429688 C 403.441406 149.429688 404.582031 149.257812 405.6875 148.902344 C 408.5 148.003906 410.792969 146.058594 412.144531 143.433594 L 445.300781 79.066406 C 446.652344 76.441406 446.902344 73.445312 446.003906 70.628906 " fill-opacity="1" fill-rule="nonzero"/></g></svg>