<?xml version="1.0" standalone="no"?><svg xmlns="http://www.w3.org/2000/svg" viewBox="0 0 1440 320"><path fill="#ff608a" fill-opacity="1" d="M0,128L15,128C30,128,60,128,90,138.7C120,149,150,171,180,186.7C210,203,240,213,270,192C300,171,330,117,360,85.3C390,53,420,43,450,69.3C480,96,510,160,540,192C570,224,600,224,630,197.3C660,171,690,117,720,122.7C750,128,780,192,810,202.7C840,213,870,171,900,133.3C930,96,960,64,990,90.7C1020,117,1050,203,1080,218.7C1110,235,1140,181,1170,165.3C1200,149,1230,171,1260,197.3C1290,224,1320,256,1350,240C1380,224,1410,160,1425,128L1440,96L1440,0L1425,0C1410,0,1380,0,1350,0C1320,0,1290,0,1260,0C1230,0,1200,0,1170,0C1140,0,1110,0,1080,0C1050,0,1020,0,990,0C960,0,930,0,900,0C870,0,840,0,810,0C780,0,750,0,720,0C690,0,660,0,630,0C600,0,570,0,540,0C510,0,480,0,450,0C420,0,390,0,360,0C330,0,300,0,270,0C240,0,210,0,180,0C150,0,120,0,90,0C60,0,30,0,15,0L0,0Z"></path></svg>