<svg xmlns="http://www.w3.org/2000/svg" xmlns:xlink="http://www.w3.org/1999/xlink" width="200" zoomAndPan="magnify" viewBox="0 0 150 157.92" height="200" preserveAspectRatio="xMidYMid meet" version="1.2"><defs><clipPath id="cf202a4fd1"><path d="M 1 2 L 143 2 L 143 140 L 1 140 Z M 1 2 "/></clipPath><clipPath id="d115baf2b4"><path d="M -5.632812 36.039062 L 117.703125 -4.039062 L 155.929688 113.59375 L 32.59375 153.671875 Z M -5.632812 36.039062 "/></clipPath><clipPath id="1798810e64"><path d="M -5.632812 36.039062 L 117.703125 -4.039062 L 155.929688 113.59375 L 32.59375 153.671875 Z M -5.632812 36.039062 "/></clipPath><clipPath id="cc44e5b481"><path d="M -5.632812 36.039062 L 117.703125 -4.039062 L 155.929688 113.59375 L 32.59375 153.671875 Z M -5.632812 36.039062 "/></clipPath></defs><g id="a7db04b7e5"><g clip-rule="nonzero" clip-path="url(#cf202a4fd1)"><g clip-rule="nonzero" clip-path="url(#d115baf2b4)"><g clip-rule="nonzero" clip-path="url(#1798810e64)"><g clip-rule="nonzero" clip-path="url(#cc44e5b481)"><path style=" stroke:none;fill-rule:nonzero;fill:#f45783;fill-opacity:1;" d="M 3.417969 44.75 C 11.65625 36.558594 31.476562 46.242188 37.15625 46.898438 C 44.554688 41.699219 52.527344 37.351562 56.914062 35.535156 C 62.394531 33.265625 71.515625 30.320312 77.089844 29.085938 C 82.878906 27.800781 85.28125 2.925781 98.691406 2.761719 C 110.652344 2.617188 116.179688 31.964844 118.265625 35.859375 C 120.347656 39.75 131.902344 42.488281 139.867188 64.46875 C 147.828125 86.453125 135.960938 115.238281 100.054688 131.058594 C 60.652344 148.421875 36.855469 136.9375 25.667969 122.835938 C 11.574219 105.066406 16.558594 84.558594 14.378906 79.628906 C 12.292969 74.902344 -3.972656 52.097656 3.417969 44.75 Z M 3.417969 44.75 "/></g></g></g></g></g></svg>