<svg xmlns="http://www.w3.org/2000/svg" xmlns:xlink="http://www.w3.org/1999/xlink" width="600" zoomAndPan="magnify" viewBox="0 0 450 449.999984" height="600" preserveAspectRatio="xMidYMid meet" version="1.0"><defs><clipPath id="ffcfbec699"><path d="M 0.21875 430 L 283.578125 430 L 283.578125 450 L 0.21875 450 Z M 0.21875 430 " clip-rule="nonzero"/></clipPath><clipPath id="76e8fbcaa4"><path d="M 210 2 L 348 2 L 348 134.453125 L 210 134.453125 Z M 210 2 " clip-rule="nonzero"/></clipPath><clipPath id="4371eabdb4"><rect x="0" width="360" y="0" height="450"/></clipPath></defs><g transform="matrix(1, 0, 0, 1, 79, 0)"><g clip-path="url(#4371eabdb4)"><path fill="#2e0818" d="M 30.085938 431.363281 C 21.683594 424.570312 17.464844 415.898438 18.15625 404.996094 C 19.070312 390.65625 32.824219 379.65625 47.085938 381.859375 C 48.015625 382.003906 48.953125 382.121094 50.144531 382.285156 C 49.855469 378.839844 49.546875 375.535156 49.324219 372.234375 C 48 353.164062 53.171875 335.820312 63.1875 319.710938 C 68.777344 310.722656 72.65625 300.953125 76.105469 290.996094 C 76.765625 289.109375 75.636719 288.929688 74.601562 288.414062 C 65.398438 283.800781 57.21875 277.890625 50.800781 269.742188 C 48.351562 266.628906 46.140625 263.355469 44.4375 259.78125 C 43.714844 258.269531 43.164062 257.75 41.328125 258.359375 C 33.375 260.996094 25.53125 263.875 18.050781 267.652344 C 16.984375 268.191406 15.921875 268.722656 14.734375 269.046875 C 18.140625 265.40625 22.414062 263.011719 26.722656 260.691406 C 31.121094 258.324219 35.703125 256.355469 40.398438 254.683594 C 41.914062 254.140625 42.425781 253.53125 41.578125 252.074219 C 41.34375 251.675781 41.328125 251.15625 41.101562 250.75 C 40.164062 249.105469 41.226562 246.324219 39.128906 245.660156 C 37.496094 245.136719 35.441406 245.972656 33.566406 246.199219 C 26.839844 247.007812 20.167969 248.25 13.027344 248.484375 C 14.144531 247.089844 15.570312 247 16.769531 246.613281 C 23.59375 244.425781 30.589844 242.890625 37.703125 242.097656 C 40.875 241.746094 39.191406 239.765625 39.453125 238.4375 C 39.859375 236.347656 38.234375 237.042969 37.296875 237.058594 C 33.058594 237.140625 28.859375 237.070312 24.683594 235.144531 C 25.34375 234.695312 25.777344 234.34375 26.253906 234.074219 C 35.261719 228.980469 39.460938 220.949219 40.136719 210.945312 C 40.796875 201.265625 41.867188 191.648438 44.292969 182.25 C 45.183594 178.769531 44.355469 175.53125 43.96875 172.21875 C 41.640625 152.464844 41.433594 132.8125 46.527344 113.378906 C 47.097656 111.203125 47.808594 109.054688 48.601562 106.957031 C 51.59375 99.085938 55.886719 96.773438 64.234375 98.222656 C 76.980469 100.445312 87.898438 106.605469 98.367188 113.765625 C 103.1875 117.070312 107.820312 120.628906 112.132812 124.570312 C 113.265625 125.613281 114.152344 125.695312 115.601562 125.210938 C 135.929688 118.398438 156.3125 118.480469 176.625 125.261719 C 178.726562 125.964844 179.746094 125.183594 181.0625 124.058594 C 191.707031 114.964844 203.039062 106.929688 216.191406 101.785156 C 221.554688 99.6875 227.054688 98.097656 232.90625 98 C 237.460938 97.925781 240.640625 99.96875 242.625 103.972656 C 245.410156 109.609375 246.511719 115.726562 247.421875 121.855469 C 250.242188 140.824219 249.558594 159.726562 245.96875 178.554688 C 245.519531 180.910156 246.691406 183.148438 247.097656 185.445312 C 248.601562 193.890625 249.1875 202.425781 249.746094 210.964844 C 250.414062 221.273438 254.703125 229.316406 264.136719 234.21875 C 264.460938 234.386719 264.765625 234.605469 265.097656 234.8125 C 262.9375 236.734375 257.960938 238.28125 252.804688 238.734375 C 251.984375 238.804688 250.902344 238.488281 250.421875 239.21875 C 250 239.855469 249.890625 240.855469 250.007812 241.636719 C 250.125 242.429688 251.082031 242.214844 251.675781 242.285156 C 259.445312 243.210938 267.101562 244.722656 274.546875 247.152344 C 275.574219 247.484375 276.773438 247.558594 277.648438 248.726562 C 269.707031 248.296875 262 247.179688 254.273438 246.335938 C 253.613281 246.261719 252.945312 246.21875 252.316406 246.054688 C 249.972656 245.433594 249.105469 246.433594 248.609375 248.699219 C 247.527344 253.65625 247.394531 253.628906 252.191406 255.457031 C 261.035156 258.820312 269.308594 263.15625 276.808594 269.371094 C 275.792969 269.6875 275.277344 269.128906 274.699219 268.839844 C 266.035156 264.496094 257.085938 260.84375 247.835938 257.921875 C 246.816406 257.597656 245.953125 256.929688 245.15625 258.613281 C 238.855469 272.023438 228.425781 281.363281 215.34375 287.902344 C 213.378906 288.882812 213.21875 289.71875 213.882812 291.699219 C 217.921875 303.78125 223.359375 315.195312 230.121094 325.988281 C 238.800781 339.84375 241.550781 355.042969 240.433594 371.101562 C 239.632812 382.632812 237.523438 393.84375 231.546875 404 C 228.21875 409.640625 224.0625 414.558594 218.574219 418.707031 C 225.109375 420.109375 229.109375 423.832031 230.515625 430.167969 C 231.382812 431.136719 231.203125 432.261719 230.949219 433.378906 C 229.90625 437.972656 227.40625 441.464844 223.007812 443.355469 C 214.335938 447.085938 205.4375 447.292969 196.496094 444.566406 C 194.179688 443.867188 192.347656 443.675781 190.191406 445.199219 C 187.210938 447.3125 183.550781 447.734375 179.980469 448.148438 C 175.371094 448.671875 170.765625 448.851562 166.203125 447.78125 C 163.03125 447.042969 160.101562 445.773438 157.964844 443.183594 C 156.964844 441.96875 155.726562 441.644531 154.214844 441.664062 C 148.183594 441.742188 142.152344 441.734375 136.121094 441.671875 C 134.101562 441.644531 132.515625 442.167969 131.117188 443.695312 C 127.816406 447.3125 123.308594 448.210938 118.757812 448.375 C 111.671875 448.625 104.578125 448.425781 98.328125 444.308594 C 97.066406 443.472656 95.785156 443.894531 94.523438 444.316406 C 87.375 446.710938 80.082031 446.734375 72.746094 445.496094 C 68.96875 444.855469 65.40625 443.5625 62.566406 440.925781 C 60.835938 439.316406 58.96875 438.722656 56.679688 438.847656 C 49.429688 439.269531 42.355469 438.523438 35.710938 435.355469 C 33.601562 434.386719 31.285156 433.628906 30.085938 431.363281 Z M 30.085938 431.363281 " fill-opacity="1" fill-rule="nonzero"/><g clip-path="url(#ffcfbec699)"><path fill="#d3b9bf" d="M 30.085938 431.363281 C 38.46875 437.019531 47.84375 438.773438 57.769531 438.21875 C 59.761719 438.109375 61.195312 438.558594 62.738281 440.027344 C 66.902344 443.992188 72.320312 445.035156 77.839844 445.394531 C 84.183594 445.808594 90.449219 445.421875 96.375 442.75 C 97.011719 442.464844 97.570312 442.335938 98.167969 442.929688 C 101.78125 446.519531 106.496094 446.988281 111.203125 447.4375 C 115.726562 447.871094 120.246094 447.84375 124.679688 446.710938 C 127.195312 446.070312 129.484375 444.855469 130.980469 442.707031 C 132.027344 441.203125 133.207031 440.816406 134.957031 440.824219 C 141.835938 440.878906 148.722656 440.800781 155.609375 440.699219 C 156.503906 440.691406 157.179688 440.621094 157.757812 441.527344 C 160.507812 445.863281 164.933594 447.132812 169.628906 447.527344 C 175.382812 448.011719 181.113281 447.726562 186.6875 445.980469 C 187.488281 445.730469 188.5 445.585938 189.003906 445.027344 C 191.699219 442.03125 194.476562 443.308594 197.675781 444.171875 C 205.953125 446.414062 214.253906 446.160156 222.304688 442.839844 C 227.964844 440.503906 230.246094 435.996094 230.507812 430.175781 C 240.300781 430.203125 250.007812 431.253906 259.726562 432.28125 C 265.621094 432.902344 271.4375 433.871094 277.179688 435.25 C 278.722656 435.617188 280.21875 436.21875 281.695312 436.804688 C 282.570312 437.15625 283.5625 437.660156 283.453125 438.757812 C 283.375 439.640625 282.488281 440.027344 281.679688 440.375 C 277.496094 442.15625 273.050781 442.941406 268.617188 443.722656 C 260.105469 445.226562 251.515625 445.980469 242.886719 446.636719 C 230.230469 447.609375 217.570312 448.375 204.898438 448.976562 C 200.191406 449.199219 195.484375 449.164062 190.789062 449.398438 C 178.457031 449.992188 166.105469 449.992188 153.761719 450 C 137.003906 450 120.246094 450.054688 103.484375 449.859375 C 93.136719 449.730469 82.789062 449.328125 72.457031 448.75 C 58.382812 447.96875 44.300781 447.140625 30.273438 445.84375 C 22.449219 445.125 14.589844 444.207031 6.953125 442.085938 C 5.3125 441.625 3.707031 441.097656 2.21875 440.285156 C 0.300781 439.242188 0.234375 438.171875 2.148438 437.082031 C 5.222656 435.347656 8.65625 434.683594 12.089844 434.125 C 18.078125 433.160156 24.082031 432.28125 30.085938 431.363281 Z M 30.085938 431.363281 " fill-opacity="1" fill-rule="nonzero"/></g><path fill="#fdfdfd" d="M 44.121094 208.320312 C 44.382812 205.613281 44.652344 202.914062 44.914062 200.207031 C 46.050781 199.386719 47.085938 200.097656 48.132812 200.429688 C 50.703125 201.257812 53.289062 201.492188 55.941406 200.824219 C 60.230469 199.753906 61.828125 195.796875 59.328125 192.109375 C 57.347656 189.1875 54.398438 187.511719 51.125 186.398438 C 49.875 185.964844 48.585938 185.640625 47.746094 184.488281 C 50.089844 176.601562 47.035156 168.925781 46.746094 161.148438 C 46.132812 144.566406 46.121094 128.089844 51 112.003906 C 51.351562 110.84375 51.722656 109.675781 52.144531 108.539062 C 54.472656 102.332031 56.480469 101.03125 63.015625 102.082031 C 74.375 103.90625 84.382812 108.917969 93.667969 115.519531 C 94.011719 116.933594 93.074219 118.003906 92.648438 119.199219 C 91.667969 121.972656 91.957031 124.875 91.605469 127.710938 C 90.269531 128.726562 89.53125 127.46875 88.78125 126.835938 C 83.933594 122.78125 78.800781 119.128906 73.3125 115.988281 C 71.140625 114.828125 68.851562 113.957031 66.515625 113.210938 C 63.890625 112.371094 62.835938 112.957031 62.050781 115.496094 C 61.359375 117.742188 60.140625 119.804688 59.617188 122.113281 C 55.714844 138.359375 55.15625 154.679688 58.300781 171.859375 C 61.089844 168.628906 62.953125 165.617188 65.253906 162.953125 C 72.933594 154.074219 82.5 147.96875 93.308594 143.632812 C 94.101562 143.316406 94.921875 143.101562 95.785156 143.28125 C 98.4375 145.082031 100.519531 147.527344 102.847656 149.6875 C 104.207031 150.945312 103.980469 152.808594 103.738281 154.5 C 103.015625 159.507812 104.082031 164.214844 106.101562 168.765625 C 106.605469 169.898438 107.34375 170.871094 108.21875 171.742188 C 110.527344 174.039062 113.070312 174.128906 115.441406 171.878906 C 118 169.449219 119.0625 166.203125 120.027344 162.945312 C 120.75 160.507812 120.976562 157.953125 121.488281 155.46875 C 121.796875 153.96875 122.109375 152.332031 124.09375 152.332031 C 126.113281 152.332031 126.402344 153.949219 126.617188 155.488281 C 127.671875 162.972656 130.207031 169.882812 134.523438 176.125 C 136.046875 178.328125 137.949219 180.136719 140.242188 181.511719 C 142.539062 182.890625 144.332031 182.511719 145.828125 180.28125 C 147.378906 177.949219 147.976562 175.289062 148.199219 172.535156 C 149.128906 161.351562 146.296875 151 140.554688 141.535156 C 138.210938 137.675781 137.09375 134.167969 139.03125 129.949219 C 139.539062 128.851562 139.664062 127.585938 139.761719 126.359375 C 139.863281 125.226562 140.265625 124.363281 141.511719 124.148438 C 153.394531 123.6875 165.015625 125.109375 176.210938 129.195312 C 178.601562 130.066406 180.257812 129.878906 182.285156 128.140625 C 192.429688 119.40625 203.128906 111.445312 215.625 106.265625 C 220.925781 104.070312 226.335938 102.152344 232.167969 101.945312 C 236.089844 101.804688 238.019531 103.042969 239.550781 106.734375 C 242.175781 113.039062 243.203125 119.722656 244.039062 126.425781 C 246.175781 143.550781 245.210938 160.5625 242.226562 177.519531 C 241.535156 181.46875 243.425781 185.246094 243.769531 189.148438 C 244.03125 192.144531 244.445312 195.121094 244.789062 198.101562 C 245.285156 200.042969 244.363281 199.972656 243.023438 199.351562 C 239.714844 197.832031 236.261719 197.902344 232.796875 198.523438 C 226.011719 199.746094 224.136719 205.628906 226.390625 211.179688 C 228.550781 216.503906 232.960938 219.761719 237.882812 222.28125 C 241.550781 224.160156 245.410156 225.671875 249.648438 225.789062 C 251.738281 228.875 253.832031 231.960938 257.355469 234.234375 C 254.585938 235.316406 252.117188 235.351562 249.65625 235.421875 C 246.355469 235.753906 243.101562 235.511719 239.820312 235.019531 C 233.90625 234.117188 229.09375 236.152344 225.398438 240.835938 C 221.113281 241.109375 216.832031 241.367188 212.550781 241.636719 C 216.328125 243.222656 220.457031 242.257812 224.316406 243.277344 C 225.308594 244.453125 225.191406 245.820312 224.890625 247.171875 C 224.628906 248.394531 223.828125 248.800781 222.636719 248.394531 C 213.792969 247.601562 204.949219 247.40625 195.339844 247.855469 C 198.9375 249.105469 202.03125 248.996094 205.023438 249.320312 C 216.210938 250.515625 227.363281 251.804688 237.890625 256.148438 C 238.214844 256.28125 238.632812 256.191406 239.011719 256.210938 C 239.082031 257.046875 238.496094 257.507812 237.863281 257.578125 C 235.71875 257.839844 234.402344 259.386719 232.871094 260.601562 C 221.609375 269.535156 209.214844 276.34375 195.394531 280.464844 C 185.515625 283.40625 175.398438 285.105469 165.175781 286.335938 C 155.421875 287.523438 145.621094 287.8125 135.832031 287.417969 C 115.636719 286.597656 95.921875 283.171875 77.179688 275.316406 C 73.394531 273.726562 69.5 272.195312 66.28125 269.480469 C 65.910156 268.625 66.398438 267.984375 66.992188 267.554688 C 72.753906 263.378906 74.683594 257.832031 73.015625 250.976562 C 78.964844 249.796875 85.023438 249.492188 91.046875 248.835938 C 92.414062 248.683594 93.8125 248.699219 95.542969 247.835938 C 87.738281 247.40625 80.390625 247.621094 73.050781 247.828125 C 71.925781 248.078125 70.886719 248.25 70.335938 246.792969 C 69.921875 245.695312 68.851562 245.210938 67.867188 244.660156 C 67.21875 244.300781 66.101562 244.355469 66.273438 243.121094 C 69.933594 242.230469 73.773438 242.996094 77.433594 241.621094 C 72.96875 241.351562 68.5 241.089844 64.035156 240.820312 C 58.71875 240.800781 53.425781 240.34375 48.207031 239.363281 C 46.457031 239.039062 44.347656 239.46875 43.175781 237.507812 C 42.335938 234.101562 45.644531 235.089844 46.953125 233.964844 C 48.503906 232.867188 50.289062 232.839844 52.082031 232.8125 C 55.210938 232.761719 58.265625 232.28125 61.0625 230.789062 C 64.40625 229 65.695312 225.941406 64.605469 222.28125 C 63.800781 219.582031 62.144531 217.476562 59.816406 215.875 C 55.976562 213.230469 51.613281 212.214844 47.078125 211.816406 C 43.90625 211.566406 43.894531 211.675781 44.121094 208.320312 Z M 44.121094 208.320312 " fill-opacity="1" fill-rule="nonzero"/><path fill="#fdfdfd" d="M 61.375 402.453125 C 57.429688 396.378906 55.355469 389.660156 54.371094 382.554688 C 53.652344 380.324219 54.625 379.316406 56.777344 378.792969 C 62.402344 377.417969 67.316406 374.734375 71.128906 370.292969 C 75.214844 365.542969 73.84375 360.765625 67.867188 358.707031 C 64.019531 357.375 60.113281 357.3125 56.148438 358.058594 C 54.308594 358.398438 53.128906 357.933594 53.714844 355.710938 C 54.667969 348.164062 56.769531 340.957031 60.085938 334.113281 C 63.324219 333.375 66.351562 332.179688 68.984375 330.117188 C 72.539062 327.339844 72.628906 325.242188 69.417969 322.113281 C 68.785156 321.5 67.75 321.113281 67.902344 319.933594 C 70.894531 314.269531 73.492188 308.414062 76.054688 302.539062 C 79.136719 305.496094 82.210938 308.4375 85.601562 311.082031 C 96.03125 319.234375 107.714844 324.710938 120.613281 327.492188 C 147.859375 333.367188 173.605469 328.96875 198.027344 315.921875 C 203.515625 312.992188 208.972656 309.996094 213.53125 305.667969 C 213.820312 305.398438 214.171875 305.289062 214.570312 305.371094 C 216.878906 310.078125 219.1875 314.78125 221.492188 319.484375 C 221.554688 320.601562 220.617188 320.566406 219.953125 320.734375 C 218.492188 321.121094 217.050781 321.535156 215.652344 322.101562 C 210.9375 324.039062 210.027344 327.941406 213.570312 331.664062 C 216.308594 334.542969 219.671875 336.65625 223.316406 338.269531 C 226.324219 339.597656 229.453125 340.542969 232.726562 340.984375 C 234.671875 345.859375 235.917969 350.898438 236.132812 356.160156 C 232.886719 356.890625 229.660156 355.394531 226.34375 356.230469 C 224.433594 356.71875 222.496094 357.042969 220.683594 357.859375 C 215.253906 360.324219 214.28125 365.289062 218.320312 369.742188 C 222.070312 373.871094 226.875 376.101562 232.148438 377.542969 C 233.304688 377.859375 234.621094 377.8125 235.53125 378.800781 C 234.59375 387.707031 232.25 396.136719 227.019531 403.574219 C 223.71875 403.484375 220.449219 403.117188 217.246094 402.335938 C 212.035156 401.058594 209.738281 398.070312 209.285156 392.78125 C 208.574219 384.558594 208.855469 376.21875 206.449219 368.1875 C 205.933594 366.46875 206.484375 364.597656 205.652344 362.925781 C 204.976562 359.289062 204.769531 355.546875 203.039062 352.148438 C 203.742188 362.304688 203.066406 372.359375 201.660156 382.398438 C 200.453125 391.0625 197.839844 399.394531 195.910156 407.882812 C 194.394531 414.558594 193.394531 421.332031 192.472656 428.117188 C 192.25 429.753906 191.808594 431.355469 191.464844 432.972656 C 188.382812 434.710938 185.351562 433.324219 182.332031 432.773438 C 181.621094 432.648438 181.414062 431.929688 181.773438 431.210938 C 181.953125 430.140625 182.132812 429.058594 182.359375 427.746094 C 180.726562 429.097656 180.242188 430.824219 179.472656 432.378906 C 177.074219 432.675781 174.679688 432.648438 172.269531 432.621094 C 170.109375 432.59375 169.167969 431.652344 169.855469 429.457031 C 169.855469 428.816406 169.855469 428.1875 169.855469 427.296875 C 168.546875 428.960938 167.996094 430.632812 167.554688 432.363281 C 166.84375 433.136719 165.878906 433.242188 164.949219 433.152344 C 163.121094 432.972656 161.480469 433.65625 159.777344 434.070312 C 158.46875 425.792969 159.46875 417.535156 160.074219 409.304688 C 161.308594 392.3125 163.769531 375.5 168.195312 359.011719 C 168.339844 358.488281 168.285156 357.914062 168.132812 357.304688 C 165.699219 361.574219 164.023438 366.164062 162.535156 370.8125 C 160.300781 373.414062 159.386719 376.695312 157.882812 379.675781 C 156.277344 382.867188 154.53125 385.953125 151.878906 388.4375 C 146.523438 393.457031 139.890625 392.898438 135.632812 386.953125 C 132.425781 382.464844 131.171875 377.074219 129.027344 372.089844 C 128.484375 370.839844 128.53125 369.265625 127.058594 368.527344 C 125.726562 365.164062 124.554688 361.710938 122.472656 358.652344 C 123.652344 364.335938 125.023438 369.96875 126.023438 375.671875 C 129.0625 392.84375 130.757812 410.132812 130.757812 427.574219 C 130.757812 429.726562 130.394531 431.882812 130.207031 434.035156 C 127.816406 433.566406 125.238281 434.3125 122.984375 432.9375 C 122.390625 430.976562 121.824219 429.007812 120.234375 427.019531 C 120.433594 428.878906 120.585938 430.308594 120.742188 431.730469 C 121.101562 432.488281 120.902344 433.152344 120.074219 433.152344 C 117.089844 433.171875 114.085938 433.46875 111.113281 433 C 110.832031 432.953125 110.726562 432.621094 110.589844 432.378906 C 109.839844 431.019531 109.410156 429.4375 107.796875 428.527344 C 108.644531 432.089844 109.320312 435.554688 108.6875 439.117188 C 107.183594 438.695312 107.445312 437.371094 107.445312 436.347656 C 107.445312 434.359375 106.46875 433.78125 104.632812 433.746094 C 102.566406 433.703125 100.492188 434.1875 98.445312 433.621094 C 97.003906 425.445312 95.660156 417.238281 94.082031 409.089844 C 92.515625 401.011719 89.945312 393.148438 88.828125 384.953125 C 87.476562 374.953125 87.007812 364.96875 88.257812 354.929688 C 88.351562 354.207031 88.332031 353.46875 88.386719 352.175781 C 86.78125 355.566406 86.167969 358.660156 85.5 361.746094 C 84.09375 363.914062 83.851562 366.46875 83.28125 368.878906 C 81.902344 374.726562 81.28125 380.699219 80.75 386.671875 C 80.542969 389.011719 80.144531 391.316406 79.714844 393.617188 C 78.984375 397.496094 76.640625 400.078125 73.007812 401.253906 C 69.253906 402.515625 65.359375 403.171875 61.375 402.453125 Z M 61.375 402.453125 " fill-opacity="1" fill-rule="nonzero"/><path fill="#b9d4dd" d="M 214.578125 305.378906 C 212.082031 308.980469 208.222656 310.894531 204.652344 313.097656 C 193.132812 320.214844 180.773438 325.433594 167.503906 328.203125 C 156.339844 330.53125 145.082031 331.378906 133.613281 330.324219 C 118.710938 328.96875 104.984375 324.449219 92.226562 316.796875 C 86.808594 313.546875 82.210938 309.222656 77.324219 305.273438 C 76.386719 304.515625 76.800781 303.292969 76.054688 302.546875 C 77.207031 299.183594 78.34375 295.808594 79.515625 292.453125 C 79.738281 291.796875 79.882812 290.824219 80.992188 291.320312 C 90.433594 295.539062 100.582031 297.210938 110.519531 299.675781 C 111.851562 302.269531 112.210938 305.199219 113.609375 307.800781 C 117.097656 314.277344 122.308594 318.550781 129.414062 320.4375 C 131.207031 320.914062 132.929688 321.753906 134.847656 321.671875 C 144.929688 324.117188 154.257812 322.875 162.4375 316.066406 C 166.753906 312.46875 169.628906 307.882812 170.9375 302.449219 C 171.324219 300.839844 171.945312 300.441406 173.488281 300.21875 C 185.144531 298.542969 196.546875 295.863281 207.527344 291.507812 C 208.324219 291.195312 209.261719 290.070312 209.863281 291.894531 C 211.378906 296.421875 213 300.890625 214.578125 305.378906 Z M 214.578125 305.378906 " fill-opacity="1" fill-rule="nonzero"/><path fill="#f6a67f" d="M 91.234375 128.070312 C 90.621094 123.617188 91.035156 119.351562 93.667969 115.519531 C 99.609375 118.851562 104.828125 123.175781 109.867188 127.675781 C 112.105469 129.671875 113.953125 129.894531 116.675781 128.886719 C 124.664062 125.929688 132.984375 124.417969 141.511719 124.140625 C 139.84375 125.246094 140.890625 127.144531 140.222656 128.539062 C 137.886719 133.46875 138.96875 137.632812 141.816406 142.292969 C 147.425781 151.441406 149.878906 161.632812 148.992188 172.480469 C 148.785156 175.035156 148.253906 177.5 147.109375 179.792969 C 145.242188 183.519531 142.394531 184.203125 139.058594 181.726562 C 132.191406 176.609375 129.214844 169.144531 126.941406 161.308594 C 126.347656 159.25 126.085938 157.089844 125.769531 154.957031 C 125.609375 153.859375 125.457031 152.851562 124.058594 152.835938 C 122.625 152.816406 122.535156 153.894531 122.335938 154.949219 C 121.472656 159.4375 121.136719 164.0625 118.917969 168.207031 C 118.523438 168.953125 118.199219 169.746094 117.746094 170.457031 C 114.394531 175.703125 109.28125 175.816406 106.128906 170.511719 C 103.332031 165.804688 102.160156 160.542969 102.925781 155.09375 C 103.351562 152.0625 102.808594 149.9375 100.160156 148.148438 C 98.492188 147.023438 97.285156 145.222656 95.867188 143.730469 C 96.058594 142.183594 97.472656 142.425781 98.402344 142.148438 C 100.3125 141.5625 100.429688 140.734375 99.421875 139.125 C 97.480469 136.03125 94.914062 133.457031 92.648438 130.632812 C 92.027344 129.859375 91.027344 129.292969 91.234375 128.070312 Z M 91.234375 128.070312 " fill-opacity="1" fill-rule="nonzero"/><path fill="#b9d4dd" d="M 66.371094 269.15625 C 81.679688 277.664062 98.265625 282.351562 115.457031 284.863281 C 127.644531 286.644531 139.996094 287.300781 152.3125 286.605469 C 170.640625 285.574219 188.769531 283.042969 205.851562 275.902344 C 216.371094 271.503906 226.207031 265.765625 234.582031 257.902344 C 236.007812 256.5625 238.019531 257.9375 239.027344 256.230469 C 241.542969 256.078125 242.183594 256.722656 240.769531 259.171875 C 231.699219 274.824219 217.769531 284.242188 201.039062 289.890625 C 179.429688 297.1875 157.136719 299.417969 134.433594 298.257812 C 118.847656 297.464844 103.550781 295 88.710938 290.078125 C 77.785156 286.453125 67.757812 281.199219 59.332031 273.230469 C 58.582031 272.527344 57.941406 271.71875 57.257812 270.953125 C 59.394531 269.171875 62.261719 269.722656 64.613281 268.632812 C 65.261719 268.589844 65.894531 268.625 66.371094 269.15625 Z M 66.371094 269.15625 " fill-opacity="1" fill-rule="nonzero"/><path fill="#b9d4dc" d="M 127.058594 368.574219 C 127.773438 367.421875 128.140625 368.078125 128.449219 368.84375 C 130.027344 372.839844 131.566406 376.839844 133.183594 380.816406 C 134.128906 383.15625 135.210938 385.421875 136.832031 387.417969 C 140.476562 391.917969 146.289062 392.449219 150.714844 388.617188 C 153.457031 386.230469 155.367188 383.246094 156.925781 380.050781 C 158.398438 377.046875 159.675781 373.960938 160.964844 370.867188 C 161.5625 369.4375 162.011719 370.542969 162.535156 370.839844 C 158.695312 385.242188 157.070312 399.96875 156.078125 414.785156 C 155.628906 421.546875 155.421875 428.324219 156.070312 435.070312 C 156.234375 436.742188 155.972656 437.136719 154.320312 437.128906 C 148.011719 437.074219 141.691406 437.066406 135.382812 437.21875 C 133.632812 437.265625 133.652344 436.542969 133.75 435.25 C 135.175781 416.367188 133.171875 397.71875 129.710938 379.1875 C 129.027344 375.617188 127.953125 372.109375 127.058594 368.574219 Z M 127.058594 368.574219 " fill-opacity="1" fill-rule="nonzero"/><path fill="#b9d4dd" d="M 49.476562 408.011719 C 52.75 410.027344 56.058594 410.863281 59.328125 408.066406 C 60.476562 407.085938 60.554688 408.335938 60.890625 408.757812 C 63.765625 412.355469 66.714844 415.871094 70.554688 418.660156 C 64.722656 420.363281 60.386719 423.484375 59.3125 429.84375 C 59.222656 430.390625 59.023438 431.019531 59.1875 431.507812 C 60.242188 434.699219 58.457031 434.78125 56.003906 434.789062 C 47.855469 434.808594 40.074219 433.574219 33.25 428.734375 C 28.542969 425.390625 24.964844 421.171875 23.378906 415.484375 C 24.839844 414.234375 26.625 414.667969 28.253906 414.730469 C 33.015625 414.910156 37.585938 414.363281 42.046875 412.527344 C 44.796875 411.382812 46.996094 409.511719 49.476562 408.011719 Z M 49.476562 408.011719 " fill-opacity="1" fill-rule="nonzero"/><path fill="#b9d4dd" d="M 61.375 402.453125 C 63.9375 401.363281 66.703125 401.804688 69.371094 401.453125 C 74.65625 400.742188 77.738281 398.339844 78.957031 393.210938 C 80.226562 387.84375 80.273438 382.320312 81.011719 376.878906 C 81.679688 371.964844 82.96875 367.207031 84.023438 362.394531 C 84.210938 361.53125 84.796875 361.441406 85.519531 361.792969 C 82.203125 382.050781 88.808594 401.183594 92.8125 421.0625 C 87.835938 418.21875 83.148438 417.25 78.136719 418.195312 C 77.261719 418.355469 76.476562 418.246094 75.738281 417.699219 C 70.011719 413.488281 64.773438 408.828125 61.375 402.453125 Z M 61.375 402.453125 " fill-opacity="1" fill-rule="nonzero"/><path fill="#b9d3dc" d="M 167.242188 301.089844 C 165.03125 311.101562 155.59375 318.542969 145.054688 318.972656 C 134.011719 319.421875 125.03125 313.269531 122.597656 303.535156 C 122.328125 302.464844 121.542969 301.097656 123.914062 301.332031 C 138.285156 302.761719 152.652344 302.746094 167.242188 301.089844 Z M 167.242188 301.089844 " fill-opacity="1" fill-rule="nonzero"/><path fill="#bad4dd" d="M 205.652344 362.953125 C 207.367188 367.386719 208.402344 372.019531 208.933594 376.707031 C 209.585938 382.453125 209.753906 388.246094 210.152344 394.023438 C 210.378906 397.359375 212.289062 399.535156 215.210938 400.839844 C 217.886719 402.039062 220.789062 402.386719 223.703125 402.453125 C 224.992188 402.476562 226.109375 402.65625 227.039062 403.59375 C 223.765625 409.351562 219.042969 413.730469 213.757812 417.582031 C 213.136719 418.03125 212.476562 418.308594 211.648438 418.140625 C 206.707031 417.113281 202.183594 418.570312 197.421875 420.730469 C 197.890625 415.613281 198.722656 410.761719 200.054688 406.058594 C 204.03125 391.953125 206.304688 377.652344 205.652344 362.953125 Z M 205.652344 362.953125 " fill-opacity="1" fill-rule="nonzero"/><path fill="#f7a781" d="M 44.121094 208.320312 C 43.90625 210.65625 44.851562 211.089844 47.242188 211.207031 C 53.875 211.539062 60.105469 213.285156 64.136719 219.230469 C 67.5625 224.285156 65.875 229.710938 60.269531 232.101562 C 56.003906 233.929688 51.425781 233.507812 46.96875 233.984375 C 46.566406 232.398438 45.320312 232.777344 44.246094 232.867188 C 40.804688 233.15625 37.394531 233.992188 33.933594 233.6875 C 33.773438 233.40625 33.683594 233.21875 33.960938 232.964844 C 40.6875 226.976562 43.292969 219.203125 43.753906 210.488281 C 43.789062 209.765625 43.996094 209.046875 44.121094 208.320312 Z M 44.121094 208.320312 " fill-opacity="1" fill-rule="nonzero"/><path fill="#bad3db" d="M 81.417969 428.332031 C 77.414062 431.03125 76.558594 435.015625 77.109375 439.351562 C 77.386719 441.546875 76.648438 441.726562 74.835938 441.464844 C 68.867188 440.601562 66.433594 435.214844 69.058594 428.582031 C 69.90625 426.453125 71.257812 424.671875 73.085938 423.050781 C 67.832031 423.726562 65.738281 428.386719 66.234375 437.910156 C 62.125 435.070312 61.773438 428.988281 65.503906 425.300781 C 66.9375 423.878906 68.652344 422.699219 70.617188 422.539062 C 75.359375 422.167969 80.019531 420.667969 84.859375 421.675781 C 87.800781 422.285156 90.269531 423.734375 92.613281 425.507812 C 93.523438 426.191406 93.75 427.199219 93.9375 428.214844 C 94.507812 431.355469 94.976562 434.511719 95.644531 437.625 C 95.902344 438.828125 95.535156 439.316406 94.488281 439.71875 C 90.476562 441.25 86.292969 441.734375 82.058594 442.003906 C 80.128906 442.121094 79.640625 440.898438 79.40625 439.414062 C 78.777344 435.5 79.503906 431.820312 81.417969 428.332031 Z M 81.417969 428.332031 " fill-opacity="1" fill-rule="nonzero"/><path fill="#f7a67f" d="M 249.65625 225.796875 C 249.207031 226.078125 249.007812 226.761719 248.285156 226.597656 C 238.839844 224.492188 230.335938 220.867188 225.75 211.59375 C 222.648438 205.324219 225.648438 199.386719 232.492188 197.839844 C 236.234375 197.003906 240.027344 196.992188 243.492188 198.730469 C 244.753906 199.359375 244.546875 198.675781 244.789062 198.101562 C 245.582031 202.722656 245.554688 207.410156 245.898438 212.070312 C 246.25 216.882812 247.71875 221.40625 249.65625 225.796875 Z M 249.65625 225.796875 " fill-opacity="1" fill-rule="nonzero"/><path fill="#bad3dc" d="M 213.101562 441.3125 C 214.046875 436.078125 213.585938 431.273438 208.609375 427.980469 C 210.125 430.742188 211.269531 433.574219 211.242188 436.789062 C 211.199219 441.574219 210.40625 442.363281 205.609375 441.886719 C 202.335938 441.5625 199.074219 441.140625 196.015625 439.773438 C 194.917969 439.277344 194.4375 438.757812 194.664062 437.453125 C 195.234375 434.125 195.628906 430.761719 196.070312 427.414062 C 196.242188 426.082031 197.035156 425.210938 198.082031 424.515625 C 203.382812 421.007812 209.261719 420.109375 215.066406 422.285156 C 219.042969 423.769531 220.871094 427.664062 221.375 431.929688 C 221.429688 432.398438 221.402344 432.863281 221.414062 433.34375 C 221.464844 439.621094 219.773438 441.277344 213.101562 441.3125 Z M 213.101562 441.3125 " fill-opacity="1" fill-rule="nonzero"/><path fill="#f6a67f" d="M 235.53125 378.820312 C 228.273438 377.964844 221.972656 375.140625 217.121094 369.582031 C 213.640625 365.585938 214.425781 360.308594 218.996094 357.851562 C 224.414062 354.9375 230.203125 354.433594 236.152344 356.167969 C 237.269531 363.761719 236.757812 371.300781 235.53125 378.820312 Z M 235.53125 378.820312 " fill-opacity="1" fill-rule="nonzero"/><path fill="#f6a782" d="M 53.722656 355.710938 C 53.839844 356.878906 53.921875 357.753906 55.671875 357.394531 C 59.851562 356.519531 64.054688 356.511719 68.175781 357.933594 C 74.855469 360.234375 76.332031 365.832031 71.597656 371.03125 C 67.625 375.402344 62.691406 378.171875 56.96875 379.484375 C 55.191406 379.890625 54.054688 380.539062 54.371094 382.5625 C 52.660156 373.636719 52.289062 364.695312 53.722656 355.710938 Z M 53.722656 355.710938 " fill-opacity="1" fill-rule="nonzero"/><path fill="#fcfcfb" d="M 49.476562 408.011719 C 49.359375 408.929688 48.773438 409.441406 48.042969 409.972656 C 43.363281 413.34375 38.234375 415.421875 32.402344 415.503906 C 29.390625 415.546875 26.378906 415.496094 23.367188 415.484375 C 21.566406 410.621094 21.566406 405.691406 22.882812 400.714844 C 23.269531 399.960938 23.910156 400.011719 24.585938 400.175781 C 31.292969 401.8125 37.847656 400.839844 44.363281 399.058594 C 45.183594 398.835938 46.78125 397.835938 46.574219 400.113281 C 46.113281 403.269531 47.203125 405.859375 49.476562 408.011719 Z M 49.476562 408.011719 " fill-opacity="1" fill-rule="nonzero"/><path fill="#f5a780" d="M 46.582031 400.121094 C 46.355469 399.375 46.042969 399.140625 45.160156 399.457031 C 38.964844 401.703125 32.617188 402.34375 26.0625 401.417969 C 24.964844 401.265625 24.082031 400.273438 22.882812 400.714844 C 25.660156 390.710938 37.414062 383.199219 46.464844 385.628906 C 48.503906 388.679688 50.449219 391.753906 48.765625 395.660156 C 48.042969 397.144531 47.3125 398.636719 46.582031 400.121094 Z M 46.582031 400.121094 " fill-opacity="1" fill-rule="nonzero"/><path fill="#f4a781" d="M 66.371094 269.15625 C 65.804688 269.15625 65.234375 269.164062 64.675781 269.164062 C 58.914062 266 53.957031 261.742188 48.910156 257.605469 C 48.601562 257.355469 48.511719 256.992188 48.691406 256.605469 C 56.625 253.933594 64.757812 252.101562 73.050781 250.992188 C 75.601562 254.664062 74.773438 260.726562 71.03125 264.800781 C 69.597656 266.367188 67.929688 267.707031 66.371094 269.15625 Z M 66.371094 269.15625 " fill-opacity="1" fill-rule="nonzero"/><path fill="#f4a682" d="M 232.734375 340.992188 C 231.90625 341.5625 230.988281 341.660156 230.039062 341.398438 C 223.808594 339.679688 217.988281 337.144531 213.351562 332.492188 C 208.898438 328.011719 209.953125 323.40625 215.902344 321.222656 C 217.734375 320.546875 219.628906 320.070312 221.492188 319.503906 C 225.683594 326.429688 230.507812 333.03125 232.734375 340.992188 Z M 232.734375 340.992188 " fill-opacity="1" fill-rule="nonzero"/><path fill="#f6aa83" d="M 47.738281 184.488281 C 51.910156 185.714844 55.996094 187.097656 59.003906 190.5 C 60.863281 192.585938 61.855469 194.84375 60.90625 197.703125 C 59.996094 200.449219 57.832031 201.257812 55.335938 201.789062 C 51.648438 202.5625 48.304688 201.238281 44.90625 200.214844 C 45.527344 194.90625 46.1875 189.617188 47.738281 184.488281 Z M 47.738281 184.488281 " fill-opacity="1" fill-rule="nonzero"/><path fill="#f0a985" d="M 66.296875 243.148438 C 68.238281 244.230469 70.789062 244.527344 71.382812 247.316406 C 71.445312 247.601562 72.492188 247.675781 73.085938 247.84375 C 64.234375 248.925781 55.410156 250.15625 46.753906 252.378906 C 45.953125 252.585938 45.519531 252.449219 45.292969 251.632812 C 44.796875 249.824219 44.238281 248.035156 43.761719 246.226562 C 43.5 245.238281 44.050781 244.976562 44.96875 244.859375 C 52.046875 243.996094 59.132812 243.070312 66.296875 243.148438 Z M 66.296875 243.148438 " fill-opacity="1" fill-rule="nonzero"/><path fill="#75808b" d="M 134.867188 321.671875 C 132.757812 322.824219 130.8125 321.574219 128.925781 321.050781 C 119.054688 318.316406 113.332031 311.496094 110.589844 301.910156 C 110.390625 301.214844 110.535156 300.425781 110.519531 299.667969 C 112.5625 299.902344 114.609375 300.109375 116.648438 300.378906 C 117.503906 300.496094 118.207031 300.785156 118.40625 301.863281 C 120.199219 311.515625 125.960938 317.902344 134.867188 321.671875 Z M 134.867188 321.671875 " fill-opacity="1" fill-rule="nonzero"/><path fill="#eea681" d="M 222.65625 248.402344 C 223.765625 248.277344 224.496094 247.898438 224.332031 246.53125 C 224.199219 245.460938 224.324219 244.363281 224.332031 243.285156 C 230.90625 243.472656 237.40625 244.445312 243.941406 245.046875 C 245.726562 245.210938 245.96875 245.839844 245.402344 247.574219 C 243.816406 252.425781 243.949219 252.359375 238.929688 251.335938 C 233.519531 250.238281 228.082031 249.367188 222.65625 248.402344 Z M 222.65625 248.402344 " fill-opacity="1" fill-rule="nonzero"/><path fill="#eea783" d="M 225.414062 240.847656 C 226.820312 236.691406 230.335938 235.019531 234.132812 234.261719 C 237.015625 233.6875 240.117188 233.703125 243.003906 234.835938 C 245.175781 235.691406 247.484375 234.835938 249.664062 235.429688 C 248.214844 236 246.707031 235.601562 245.230469 235.726562 C 244.363281 235.808594 243.453125 235.835938 243.328125 236.933594 C 243.210938 237.996094 244.148438 237.941406 244.824219 238.183594 C 245.554688 238.4375 246.554688 238.320312 246.71875 239.488281 C 246.925781 241.027344 246.4375 241.628906 244.753906 241.546875 C 238.316406 241.242188 231.859375 241.0625 225.414062 240.847656 Z M 225.414062 240.847656 " fill-opacity="1" fill-rule="nonzero"/><path fill="#b9d1dc" d="M 169.855469 429.492188 C 169.746094 431.40625 170.65625 431.832031 172.523438 431.949219 C 174.832031 432.089844 177.285156 430.660156 179.472656 432.414062 C 178.769531 435.753906 178.671875 439.117188 179.375 442.445312 C 179.628906 443.625 179.328125 443.792969 178.257812 443.984375 C 172.585938 444.972656 170.890625 443.839844 169.855469 438.089844 C 169.339844 435.222656 168.953125 432.351562 169.855469 429.492188 Z M 169.855469 429.492188 " fill-opacity="1" fill-rule="nonzero"/><path fill="#bed0da" d="M 110.597656 432.414062 C 113.773438 432.476562 116.9375 432.566406 120.109375 432.578125 C 120.324219 432.578125 120.542969 432.054688 120.75 431.769531 C 121.289062 435.292969 120.433594 438.566406 119.144531 441.84375 C 117.980469 444.800781 115.675781 444.074219 113.492188 444.074219 C 111.402344 444.074219 110.148438 443.882812 110.90625 441.042969 C 111.652344 438.28125 111.3125 435.277344 110.597656 432.414062 Z M 110.597656 432.414062 " fill-opacity="1" fill-rule="nonzero"/><path fill="#f0ab88" d="M 67.902344 319.933594 C 68.34375 320.277344 68.777344 320.636719 69.238281 320.96875 C 75.078125 325.261719 72.519531 328.5 68.777344 331.136719 C 66.273438 332.898438 63.613281 334.96875 60.097656 334.113281 C 62.160156 329.09375 64.847656 324.414062 67.902344 319.933594 Z M 67.902344 319.933594 " fill-opacity="1" fill-rule="nonzero"/><path fill="#b6cfd8" d="M 181.765625 431.238281 C 181.945312 432.101562 182.457031 432.40625 183.351562 432.453125 C 186.054688 432.585938 188.757812 432.8125 191.457031 433 C 191.417969 439.332031 189.398438 442.105469 184.144531 443.148438 C 182.835938 443.40625 182.015625 443.265625 181.765625 441.734375 C 181.1875 438.226562 180.78125 434.734375 181.765625 431.238281 Z M 181.765625 431.238281 " fill-opacity="1" fill-rule="nonzero"/><path fill="#da8267" d="M 48.691406 256.617188 C 53.714844 260.511719 58.457031 264.773438 63.964844 268.03125 C 64.414062 268.300781 64.605469 268.6875 64.683594 269.171875 C 62.402344 270.558594 59.773438 270.503906 57.265625 270.964844 C 53.300781 267.5625 50.578125 263.246094 48.167969 258.703125 C 47.746094 257.921875 47.035156 256.921875 48.691406 256.617188 Z M 48.691406 256.617188 " fill-opacity="1" fill-rule="nonzero"/><path fill="#c0d3dc" d="M 98.445312 433.664062 C 101.222656 432.433594 104.164062 433.199219 107.019531 433.035156 C 108.199219 432.964844 108.191406 433.925781 108.28125 434.789062 C 108.433594 436.246094 107.847656 437.769531 108.6875 439.160156 C 107.964844 444.144531 107.722656 444.191406 103.214844 442.148438 C 99.457031 440.429688 98.734375 437.21875 98.445312 433.664062 Z M 98.445312 433.664062 " fill-opacity="1" fill-rule="nonzero"/><path fill="#bed1db" d="M 159.777344 434.105469 C 160.390625 432.855469 161.246094 432.179688 162.796875 432.363281 C 164.363281 432.542969 165.960938 432.398438 167.546875 432.398438 C 167.320312 436.238281 167.320312 440.050781 169.167969 443.613281 C 163.238281 443.929688 159.839844 440.476562 159.777344 434.105469 Z M 159.777344 434.105469 " fill-opacity="1" fill-rule="nonzero"/><path fill="#c5d0d8" d="M 122.996094 432.980469 C 125.382812 433.46875 128.078125 431.949219 130.214844 434.078125 C 129.820312 440.414062 127.4375 442.949219 120.832031 443.730469 C 122.914062 440.3125 123.003906 436.652344 122.996094 432.980469 Z M 122.996094 432.980469 " fill-opacity="1" fill-rule="nonzero"/><path fill="#d2ccd6" d="M 223.621094 438.308594 C 224.269531 431.34375 224.070312 425.382812 216.914062 422.457031 C 221.132812 422.59375 224.234375 424.453125 225.910156 428.105469 C 227.507812 431.570312 226.6875 434.835938 223.621094 438.308594 Z M 223.621094 438.308594 " fill-opacity="1" fill-rule="nonzero"/><path fill="#b9584b" d="M 48.773438 395.660156 C 49.394531 392 47.167969 388.992188 46.472656 385.628906 C 48.007812 385.414062 49.925781 385.332031 50.648438 386.546875 C 51.765625 388.4375 52.269531 390.863281 51.882812 393.023438 C 51.695312 394.058594 49.863281 394.796875 48.773438 395.660156 Z M 48.773438 395.660156 " fill-opacity="1" fill-rule="nonzero"/><path fill="#e7b9b0" d="M 43.203125 237.535156 C 44.003906 238.148438 44.949219 238.09375 45.898438 238.183594 C 51.648438 238.714844 57.175781 240.910156 63.0625 240.414062 C 63.378906 240.386719 63.730469 240.695312 64.0625 240.847656 C 58.265625 240.9375 52.460938 240.972656 46.664062 241.132812 C 43.058594 241.242188 43.066406 241.324219 43.203125 237.535156 Z M 43.203125 237.535156 " fill-opacity="1" fill-rule="nonzero"/><path fill="#ebeaf1" d="M 50.539062 403.027344 C 49.195312 401.453125 50.421875 400.246094 51.179688 399.03125 C 51.8125 398.027344 52.621094 397.125 53.578125 395.875 C 54.921875 398.84375 56.128906 401.515625 57.335938 404.179688 C 55.996094 405.304688 54.589844 404.863281 53.261719 404.242188 C 52.363281 403.828125 51.488281 403.34375 50.539062 403.027344 Z M 50.539062 403.027344 " fill-opacity="1" fill-rule="nonzero"/><path fill="#a8a1b9" d="M 50.539062 403.027344 C 51.019531 402.800781 51.308594 401.839844 52.054688 402.675781 C 53.496094 404.277344 55.371094 404.375 57.335938 404.179688 C 57.050781 406.257812 54.964844 407.265625 53.019531 406.15625 C 51.820312 405.472656 50.703125 404.59375 50.539062 403.027344 Z M 50.539062 403.027344 " fill-opacity="1" fill-rule="nonzero"/><path fill="#360318" d="M 81.003906 221.777344 C 81.046875 210.972656 89.378906 202.390625 99.71875 202.488281 C 109.644531 202.589844 117.765625 211.394531 117.640625 221.9375 C 117.523438 232.148438 109.15625 240.703125 99.265625 240.730469 C 88.988281 240.765625 80.957031 232.417969 81.003906 221.777344 Z M 81.003906 221.777344 " fill-opacity="1" fill-rule="nonzero"/><path fill="#360318" d="M 172.125 221.777344 C 172.152344 211.035156 180.285156 202.527344 190.5 202.535156 C 200.488281 202.542969 208.492188 211.109375 208.484375 221.792969 C 208.484375 232.191406 200.144531 240.757812 190.066406 240.710938 C 180.007812 240.65625 172.101562 232.320312 172.125 221.777344 Z M 172.125 221.777344 " fill-opacity="1" fill-rule="nonzero"/><path fill="#fbb8b4" d="M 218.140625 116.097656 C 220.800781 114.144531 223.875 113.054688 227.011719 112.308594 C 228.398438 111.984375 229.957031 113.082031 230.300781 114.414062 C 230.90625 116.78125 232.527344 118.777344 232.664062 121.269531 C 232.066406 123.652344 233.203125 125.847656 233.527344 128.113281 C 234.367188 133.863281 234.386719 139.59375 233.898438 145.339844 C 233.457031 146.339844 232.824219 146.4375 232.355469 145.449219 C 230.878906 142.292969 227.894531 141.003906 225.109375 139.484375 C 219.328125 136.328125 213.40625 133.46875 207.394531 130.796875 C 206.292969 130.308594 205.113281 129.859375 204.382812 128.789062 C 204.003906 127.414062 205.066406 126.730469 205.816406 125.957031 C 209.511719 122.140625 213.695312 118.957031 218.140625 116.097656 Z M 218.140625 116.097656 " fill-opacity="1" fill-rule="nonzero"/><path fill="#fcb7b5" d="M 59.03125 121.738281 C 59.96875 119.011719 60.878906 116.269531 61.84375 113.550781 C 62.621094 111.390625 64.585938 111.886719 65.929688 112.28125 C 68.589844 113.066406 71.300781 113.894531 73.664062 115.457031 C 77.253906 118.570312 81.425781 120.992188 84.574219 124.617188 C 85.347656 125.515625 86.492188 126.199219 86.367188 127.636719 C 85.691406 129.699219 84.011719 130.742188 82.203125 131.597656 C 76.925781 134.078125 71.644531 136.527344 66.515625 139.304688 C 64.371094 140.476562 62.195312 141.589844 60.195312 143.019531 C 59.402344 143.585938 58.417969 144.746094 57.355469 143.253906 C 56.398438 138.308594 57.5625 133.476562 58.121094 128.609375 C 58.382812 126.308594 59.148438 124.085938 59.03125 121.738281 Z M 59.03125 121.738281 " fill-opacity="1" fill-rule="nonzero"/><path fill="#350c17" d="M 233.382812 146.078125 C 233.816406 138.847656 233.546875 131.648438 232.5 124.480469 C 232.347656 123.417969 231.761719 122.304688 232.671875 121.277344 C 235.566406 132.675781 236.3125 144.253906 235.628906 155.957031 C 235.332031 161.128906 234.53125 166.230469 233.238281 171.238281 C 233.070312 171.914062 233.238281 172.992188 232.457031 173.183594 C 231.4375 173.425781 231.128906 172.292969 230.714844 171.617188 C 224.765625 161.832031 216.742188 154.230469 206.636719 148.824219 C 201.992188 146.339844 197.277344 144 192.148438 142.695312 C 189.742188 142.085938 189.28125 141.167969 190.832031 139.082031 C 198.117188 129.25 207.132812 121.503906 218.140625 116.105469 C 214.21875 119.496094 210.277344 122.878906 206.375 126.289062 C 205.609375 126.953125 204.960938 127.746094 204.257812 128.484375 C 204.285156 129.769531 203.265625 130.417969 202.5 131.15625 C 200.363281 133.214844 198.425781 135.429688 196.800781 137.902344 C 195.214844 139.511719 196.546875 139.765625 197.800781 140.203125 C 208.429688 143.945312 217.6875 149.855469 225.558594 157.917969 C 227.460938 159.871094 229.03125 162.101562 231.058594 164.269531 C 231.546875 161.832031 232.203125 159.546875 232.003906 157.125 C 232.285156 154.410156 232.601562 151.703125 232.519531 148.964844 C 232.484375 147.921875 232.546875 146.871094 233.382812 146.078125 Z M 233.382812 146.078125 " fill-opacity="1" fill-rule="nonzero"/><path fill="#320e16" d="M 86.25 127.414062 C 83.15625 123.320312 78.929688 120.488281 75.050781 117.25 C 74.492188 116.78125 73.917969 116.320312 73.367188 115.84375 C 73.339844 115.816406 73.382812 115.664062 73.4375 115.609375 C 73.492188 115.539062 73.59375 115.511719 73.671875 115.457031 C 80.109375 118.867188 85.761719 123.339844 91.242188 128.070312 C 94.15625 131.625 97.527344 134.789062 100.050781 138.667969 C 102.027344 141.699219 101.988281 141.742188 98.464844 142.8125 C 97.597656 143.074219 96.5625 142.949219 95.878906 143.730469 C 83.921875 147.519531 73.890625 154.210938 65.730469 163.664062 C 63.125 166.6875 60.855469 169.988281 58.167969 173.507812 C 56.589844 168.539062 56.074219 163.816406 55.742188 159.09375 C 54.847656 146.734375 55.996094 134.527344 58.617188 122.4375 C 58.671875 122.1875 58.886719 121.972656 59.03125 121.738281 C 60.140625 124.101562 58.851562 126.378906 58.679688 128.683594 C 58.300781 133.710938 57.652344 138.710938 57.941406 143.765625 C 58.925781 144.863281 58.71875 146.222656 58.707031 147.5 C 58.699219 151.042969 58.71875 154.589844 59.210938 158.105469 C 59.023438 160.09375 59.691406 162 59.753906 164.421875 C 64.0625 158.464844 68.984375 153.625 74.738281 149.605469 C 80.480469 145.585938 86.628906 142.390625 93.300781 140.242188 C 95.046875 139.675781 95.867188 139.0625 94.34375 137.425781 C 92.0625 134.167969 89.429688 131.210938 86.628906 128.394531 C 86.367188 128.132812 85.691406 128 86.25 127.414062 Z M 86.25 127.414062 " fill-opacity="1" fill-rule="nonzero"/><path fill="#2d0c18" d="M 145.359375 248.773438 C 140.835938 255.410156 132.722656 256.902344 126.96875 252.191406 C 126.320312 251.660156 125.71875 251.039062 125.230469 250.355469 C 124.507812 249.347656 123.789062 248.105469 125.03125 247.125 C 126.402344 246.039062 127.203125 247.316406 128.007812 248.230469 C 130.585938 251.171875 134.054688 252.089844 137.671875 250.785156 C 141.394531 249.445312 143.289062 246.765625 143.367188 242.933594 C 143.394531 241.683594 143.117188 240.945312 141.910156 240.289062 C 139.132812 238.761719 136.976562 236.511719 135.679688 233.585938 C 134.535156 231.003906 135.21875 229.457031 137.898438 228.59375 C 142.78125 227.03125 147.703125 226.949219 152.609375 228.503906 C 155.277344 229.351562 156.0625 230.890625 155.035156 233.460938 C 153.84375 236.4375 151.78125 238.832031 148.894531 240.171875 C 147.445312 240.847656 147.199219 241.613281 147.261719 242.941406 C 147.417969 246.695312 149.390625 249.355469 153.132812 250.734375 C 156.664062 252.027344 160.136719 251.164062 162.605469 248.402344 C 163.4375 247.46875 164.203125 245.8125 165.726562 247.042969 C 167.421875 248.402344 166.050781 249.804688 165.15625 250.921875 C 160.902344 256.21875 151.5 256.128906 146.921875 250.796875 C 146.371094 250.15625 145.894531 249.464844 145.359375 248.773438 Z M 145.359375 248.773438 " fill-opacity="1" fill-rule="nonzero"/><path fill="#f5f5f7" d="M 109.527344 215.765625 C 109.480469 218.078125 107.652344 219.726562 105.261719 219.609375 C 103.152344 219.507812 101.558594 217.84375 101.574219 215.785156 C 101.601562 213.609375 103.316406 211.988281 105.59375 211.988281 C 107.984375 211.988281 109.570312 213.507812 109.527344 215.765625 Z M 109.527344 215.765625 " fill-opacity="1" fill-rule="nonzero"/><path fill="#f0edf0" d="M 90.082031 225.679688 C 89.972656 224.1875 91.164062 223.628906 92.738281 223.546875 C 94.640625 223.457031 95.136719 224.761719 95.148438 226.28125 C 95.15625 228.082031 93.929688 228.675781 92.335938 228.667969 C 90.640625 228.65625 90.117188 227.558594 90.082031 225.679688 Z M 90.082031 225.679688 " fill-opacity="1" fill-rule="nonzero"/><path fill="#f0eaee" d="M 99.636719 230.90625 C 99.527344 232.246094 98.886719 233.21875 97.417969 233.300781 C 95.96875 233.378906 95.121094 232.597656 94.992188 231.140625 C 94.847656 229.367188 96.03125 228.828125 97.472656 228.765625 C 98.824219 228.703125 99.484375 229.558594 99.636719 230.90625 Z M 99.636719 230.90625 " fill-opacity="1" fill-rule="nonzero"/><path fill="#f5f5f6" d="M 195.980469 212.050781 C 198.398438 212.050781 199.992188 213.574219 199.9375 215.820312 C 199.882812 217.933594 198.082031 219.726562 195.945312 219.761719 C 193.835938 219.796875 191.996094 217.980469 191.996094 215.839844 C 191.996094 213.609375 193.636719 212.050781 195.980469 212.050781 Z M 195.980469 212.050781 " fill-opacity="1" fill-rule="nonzero"/><path fill="#f2eef1" d="M 181.203125 225.984375 C 181.097656 224.113281 182.386719 223.613281 183.902344 223.585938 C 185.757812 223.558594 186.253906 224.953125 186.226562 226.4375 C 186.199219 228.019531 185.082031 228.722656 183.59375 228.738281 C 181.816406 228.746094 181.113281 227.714844 181.203125 225.984375 Z M 181.203125 225.984375 " fill-opacity="1" fill-rule="nonzero"/><path fill="#eae1e8" d="M 188.453125 228.613281 C 189.878906 228.847656 190.816406 229.621094 190.742188 231.015625 C 190.671875 232.453125 189.769531 233.523438 188.226562 233.445312 C 186.867188 233.371094 185.964844 232.375 185.945312 231.042969 C 185.929688 229.484375 187.082031 228.828125 188.453125 228.613281 Z M 188.453125 228.613281 " fill-opacity="1" fill-rule="nonzero"/><path fill="#fb989e" d="M 196.386719 137.542969 C 198.414062 134.007812 201.226562 131.15625 204.246094 128.476562 C 212.453125 132.398438 220.808594 136.023438 228.660156 140.644531 C 230.832031 141.921875 232.78125 143.425781 233.382812 146.070312 C 233.671875 150.054688 233.148438 153.984375 232.699219 157.925781 C 232.167969 158.609375 232.988281 159.859375 232.03125 160.183594 C 231.050781 160.507812 230.320312 159.574219 229.6875 158.90625 C 225.550781 154.515625 220.917969 150.738281 215.957031 147.292969 C 210.8125 143.714844 205.058594 141.417969 199.289062 139.132812 C 198.242188 138.738281 197.054688 138.613281 196.386719 137.542969 Z M 196.386719 137.542969 " fill-opacity="1" fill-rule="nonzero"/><path fill="#fa999f" d="M 58.519531 159.042969 C 57.734375 153.976562 57.707031 148.875 57.941406 143.777344 C 64.46875 138.9375 71.859375 135.6875 79.171875 132.289062 C 81.8125 131.066406 84.507812 129.921875 86.257812 127.40625 C 89.757812 129.96875 92.234375 133.441406 94.742188 136.894531 C 94.652344 138.324219 93.316406 138.128906 92.503906 138.476562 C 84.5625 141.933594 76.65625 145.441406 69.867188 150.964844 C 66.957031 153.328125 64.089844 155.757812 61.402344 158.394531 C 60.699219 159.085938 59.898438 160.777344 58.519531 159.042969 Z M 58.519531 159.042969 " fill-opacity="1" fill-rule="nonzero"/><path fill="#e3757e" d="M 196.386719 137.542969 C 203.238281 139.566406 209.71875 142.371094 215.722656 146.277344 C 221.628906 150.117188 226.859375 154.75 231.734375 160.050781 C 232.132812 159.1875 232.410156 158.554688 232.699219 157.925781 C 232.796875 160.5625 231.949219 163.035156 231.464844 166.113281 C 221.871094 153.1875 209.773438 144.460938 194.242188 139.855469 C 195.078125 138.953125 195.738281 138.253906 196.386719 137.542969 Z M 196.386719 137.542969 " fill-opacity="1" fill-rule="nonzero"/><path fill="#e6737f" d="M 58.519531 159.042969 C 59.898438 159.84375 60.339844 158.492188 60.988281 157.871094 C 64.421875 154.542969 68.019531 151.429688 71.878906 148.597656 C 78.875 143.460938 86.789062 140.167969 94.730469 136.902344 C 95.148438 137.398438 95.550781 137.921875 95.984375 138.398438 C 96.914062 139.40625 97.003906 139.945312 95.398438 140.410156 C 80.703125 144.667969 68.902344 153.09375 59.589844 165.644531 C 58.871094 163.339844 58.664062 161.199219 58.519531 159.042969 Z M 58.519531 159.042969 " fill-opacity="1" fill-rule="nonzero"/><path fill="#f4959e" d="M 145.28125 230.160156 C 146.859375 230.359375 148.453125 230.492188 150.023438 230.753906 C 153.277344 231.285156 153.5 231.78125 151.582031 234.335938 C 146.515625 241.097656 141.492188 238.078125 138.285156 233.328125 C 137.480469 232.140625 137.859375 231.390625 139.140625 231.03125 C 141.132812 230.476562 143.179688 230.152344 145.28125 230.160156 Z M 145.28125 230.160156 " fill-opacity="1" fill-rule="nonzero"/><g clip-path="url(#76e8fbcaa4)"><path fill="#e20613" d="M 230.800781 88.382812 C 243.996094 101.832031 279.679688 134.488281 279.679688 134.488281 C 279.679688 134.488281 314.863281 101.359375 327.835938 87.742188 C 349.195312 65.3125 357.253906 22.542969 332.332031 5.449219 C 311.195312 -9.03125 278.601562 31.628906 278.601562 31.628906 C 278.601562 31.628906 246.753906 -8.585938 225.863281 6.171875 C 201.164062 23.597656 209.082031 66.257812 230.800781 88.382812 Z M 230.800781 88.382812 " fill-opacity="1" fill-rule="nonzero"/></g></g></g></svg>