<svg xmlns="http://www.w3.org/2000/svg" xmlns:xlink="http://www.w3.org/1999/xlink" width="1920" zoomAndPan="magnify" viewBox="0 0 1440 809.999993" height="1080" preserveAspectRatio="xMidYMid meet" version="1.2"><defs><clipPath id="1bde8d91d9"><path d="M 0 116 L 82 116 L 82 194 L 0 194 Z M 0 116 "/></clipPath><clipPath id="acda9e913d"><path d="M 63.058594 103.957031 L 89.164062 183.007812 L 14.386719 207.703125 L -11.71875 128.652344 Z M 63.058594 103.957031 "/></clipPath><clipPath id="b33d1511fc"><path d="M 63.058594 103.957031 L 89.164062 183.007812 L 14.386719 207.703125 L -11.71875 128.652344 Z M 63.058594 103.957031 "/></clipPath><clipPath id="62cf97e753"><path d="M 75 177 L 160 177 L 160 255 L 75 255 Z M 75 177 "/></clipPath><clipPath id="006fa567b0"><path d="M 141.941406 165.003906 L 168.046875 244.054688 L 93.265625 268.75 L 67.160156 189.699219 Z M 141.941406 165.003906 "/></clipPath><clipPath id="18c13867d7"><path d="M 141.941406 165.003906 L 168.046875 244.054688 L 93.265625 268.75 L 67.160156 189.699219 Z M 141.941406 165.003906 "/></clipPath><clipPath id="6f56dc8882"><path d="M 143 88 L 226 88 L 226 169 L 143 169 Z M 143 88 "/></clipPath><clipPath id="65018b3aaa"><path d="M 215.21875 81 L 229.886719 162.949219 L 152.371094 176.824219 L 137.699219 94.878906 Z M 215.21875 81 "/></clipPath><clipPath id="b151674f5a"><path d="M 215.21875 81 L 229.886719 162.949219 L 152.371094 176.824219 L 137.699219 94.878906 Z M 215.21875 81 "/></clipPath><clipPath id="fcb6be1e9b"><path d="M 216 169 L 301 169 L 301 250 L 216 250 Z M 216 169 "/></clipPath><clipPath id="11b9cf66e5"><path d="M 306.164062 175.355469 L 288.296875 256.664062 L 211.378906 239.757812 L 229.25 158.449219 Z M 306.164062 175.355469 "/></clipPath><clipPath id="1499461784"><path d="M 306.164062 175.355469 L 288.296875 256.664062 L 211.378906 239.757812 L 229.25 158.449219 Z M 306.164062 175.355469 "/></clipPath><clipPath id="30396a9cf3"><path d="M 300 110 L 387 110 L 387 190 L 300 190 Z M 300 110 "/></clipPath><clipPath id="9854b14cc8"><path d="M 401.925781 142.777344 L 349.699219 207.605469 L 288.375 158.199219 L 340.601562 93.371094 Z M 401.925781 142.777344 "/></clipPath><clipPath id="cf3662241e"><path d="M 401.925781 142.777344 L 349.699219 207.605469 L 288.375 158.199219 L 340.601562 93.371094 Z M 401.925781 142.777344 "/></clipPath><clipPath id="2a2370c2a7"><path d="M 300 252 L 387 252 L 387 331 L 300 331 Z M 300 252 "/></clipPath><clipPath id="0cbfeaabac"><path d="M 401.925781 284.082031 L 349.699219 348.910156 L 288.375 299.503906 L 340.601562 234.675781 Z M 401.925781 284.082031 "/></clipPath><clipPath id="dd17afc21d"><path d="M 401.925781 284.082031 L 349.699219 348.910156 L 288.375 299.503906 L 340.601562 234.675781 Z M 401.925781 284.082031 "/></clipPath><clipPath id="1365531630"><path d="M 413 207 L 500 207 L 500 287 L 413 287 Z M 413 207 "/></clipPath><clipPath id="0404bbf5d2"><path d="M 515.226562 239.492188 L 463 304.320312 L 401.675781 254.917969 L 453.902344 190.085938 Z M 515.226562 239.492188 "/></clipPath><clipPath id="ef6b6c003f"><path d="M 515.226562 239.492188 L 463 304.320312 L 401.675781 254.917969 L 453.902344 190.085938 Z M 515.226562 239.492188 "/></clipPath><clipPath id="43e75d531d"><path d="M 392 337 L 480 337 L 480 416 L 392 416 Z M 392 337 "/></clipPath><clipPath id="01bbf433b2"><path d="M 492.480469 359.25 L 450.113281 430.914062 L 382.324219 390.832031 L 424.695312 319.171875 Z M 492.480469 359.25 "/></clipPath><clipPath id="e2387b47e3"><path d="M 492.480469 359.25 L 450.113281 430.914062 L 382.324219 390.832031 L 424.695312 319.171875 Z M 492.480469 359.25 "/></clipPath><clipPath id="9a7cd19f4d"><path d="M 505 279 L 593 279 L 593 358 L 505 358 Z M 505 279 "/></clipPath><clipPath id="a501a33b0c"><path d="M 606.804688 306.371094 L 559.230469 374.6875 L 494.605469 329.683594 L 542.183594 261.367188 Z M 606.804688 306.371094 "/></clipPath><clipPath id="3aaf09f65a"><path d="M 606.804688 306.371094 L 559.230469 374.6875 L 494.605469 329.683594 L 542.183594 261.367188 Z M 606.804688 306.371094 "/></clipPath><clipPath id="157881a1dc"><path d="M 520 393 L 605 393 L 605 473 L 520 473 Z M 520 393 "/></clipPath><clipPath id="ce802026a4"><path d="M 611.230469 399.777344 L 591.449219 480.644531 L 514.953125 461.929688 L 534.734375 381.066406 Z M 611.230469 399.777344 "/></clipPath><clipPath id="d25e409ec4"><path d="M 611.230469 399.777344 L 591.449219 480.644531 L 514.953125 461.929688 L 534.734375 381.066406 Z M 611.230469 399.777344 "/></clipPath><clipPath id="ef0a4237eb"><path d="M 622 308 L 706 308 L 706 388 L 622 388 Z M 622 308 "/></clipPath><clipPath id="c87669abe9"><path d="M 691.878906 299.304688 L 711.175781 380.289062 L 634.570312 398.539062 L 615.273438 317.554688 Z M 691.878906 299.304688 "/></clipPath><clipPath id="9ead23be21"><path d="M 691.878906 299.304688 L 711.175781 380.289062 L 634.570312 398.539062 L 615.273438 317.554688 Z M 691.878906 299.304688 "/></clipPath><clipPath id="ad61b1c764"><path d="M 692 391 L 774 391 L 774 476 L 692 476 Z M 692 391 "/></clipPath><clipPath id="a7caa21a1d"><path d="M 732.839844 373.84375 L 790.472656 433.917969 L 733.644531 488.4375 L 676.011719 428.359375 Z M 732.839844 373.84375 "/></clipPath><clipPath id="a7a6a3a18b"><path d="M 732.839844 373.84375 L 790.472656 433.917969 L 733.644531 488.4375 L 676.011719 428.359375 Z M 732.839844 373.84375 "/></clipPath><clipPath id="e6fdc46b8c"><path d="M 716 258 L 802 258 L 802 339 L 716 339 Z M 716 258 "/></clipPath><clipPath id="d03e757a45"><path d="M 770.722656 240.851562 L 814.195312 311.851562 L 747.035156 352.972656 L 703.5625 281.972656 Z M 770.722656 240.851562 "/></clipPath><clipPath id="f82e1273f1"><path d="M 770.722656 240.851562 L 814.195312 311.851562 L 747.035156 352.972656 L 703.5625 281.972656 Z M 770.722656 240.851562 "/></clipPath><clipPath id="e9ad7e8f22"><path d="M 832 284 L 910 284 L 910 372 L 832 372 Z M 832 284 "/></clipPath><clipPath id="7df350b7ef"><path d="M 853.332031 271.601562 L 925.472656 313.15625 L 886.164062 381.394531 L 814.027344 339.84375 Z M 853.332031 271.601562 "/></clipPath><clipPath id="7868127b1a"><path d="M 853.332031 271.601562 L 925.472656 313.15625 L 886.164062 381.394531 L 814.027344 339.84375 Z M 853.332031 271.601562 "/></clipPath><clipPath id="ce8c5612e0"><path d="M 787 156 L 868 156 L 868 237 L 787 237 Z M 787 156 "/></clipPath><clipPath id="d04d7ad4b5"><path d="M 862.121094 150.804688 L 869.785156 233.703125 L 791.371094 240.949219 L 783.707031 158.054688 Z M 862.121094 150.804688 "/></clipPath><clipPath id="8e7cbc49a1"><path d="M 862.121094 150.804688 L 869.785156 233.703125 L 791.371094 240.949219 L 783.707031 158.054688 Z M 862.121094 150.804688 "/></clipPath><clipPath id="89d9b99c0b"><path d="M 919 214 L 1003 214 L 1003 294 L 919 294 Z M 919 214 "/></clipPath><clipPath id="6b50122f6d"><path d="M 989.628906 205.164062 L 1008.921875 286.148438 L 932.316406 304.398438 L 913.023438 223.417969 Z M 989.628906 205.164062 "/></clipPath><clipPath id="380797a8e1"><path d="M 989.628906 205.164062 L 1008.921875 286.148438 L 932.316406 304.398438 L 913.023438 223.417969 Z M 989.628906 205.164062 "/></clipPath><clipPath id="49a016cc92"><path d="M 919 119 L 1002 119 L 1002 199 L 919 199 Z M 919 119 "/></clipPath><clipPath id="34f26e785e"><path d="M 990.164062 110.292969 L 1006.898438 191.84375 L 929.757812 207.675781 L 913.019531 126.125 Z M 990.164062 110.292969 "/></clipPath><clipPath id="e1e7fedc27"><path d="M 990.164062 110.292969 L 1006.898438 191.84375 L 929.757812 207.675781 L 913.019531 126.125 Z M 990.164062 110.292969 "/></clipPath><clipPath id="76b05c5302"><path d="M 1040 187 L 1122 187 L 1122 268 L 1040 268 Z M 1040 187 "/></clipPath><clipPath id="5c2ae27f35"><path d="M 1124.84375 189.4375 L 1115.300781 272.140625 L 1037.070312 263.113281 L 1046.613281 180.414062 Z M 1124.84375 189.4375 "/></clipPath><clipPath id="9ee422d631"><path d="M 1124.84375 189.4375 L 1115.300781 272.140625 L 1037.070312 263.113281 L 1046.613281 180.414062 Z M 1124.84375 189.4375 "/></clipPath><clipPath id="8834042e32"><path d="M 1085 103 L 1169 103 L 1169 184 L 1085 184 Z M 1085 103 "/></clipPath><clipPath id="c584f335ad"><path d="M 1173.214844 107.601562 L 1158.292969 189.503906 L 1080.820312 175.394531 L 1095.738281 93.492188 Z M 1173.214844 107.601562 "/></clipPath><clipPath id="9f2e9f6932"><path d="M 1173.214844 107.601562 L 1158.292969 189.503906 L 1080.820312 175.394531 L 1095.738281 93.492188 Z M 1173.214844 107.601562 "/></clipPath><clipPath id="e7b637c529"><path d="M 1145 243 L 1232 243 L 1232 322 L 1145 322 Z M 1145 243 "/></clipPath><clipPath id="b918002788"><path d="M 1246.894531 274.566406 L 1195.648438 340.175781 L 1133.589844 291.699219 L 1184.835938 226.089844 Z M 1246.894531 274.566406 "/></clipPath><clipPath id="10595cf14a"><path d="M 1246.894531 274.566406 L 1195.648438 340.175781 L 1133.589844 291.699219 L 1184.835938 226.089844 Z M 1246.894531 274.566406 "/></clipPath><clipPath id="adf9c5d73e"><path d="M 1203 134 L 1285 134 L 1285 219 L 1203 219 Z M 1203 134 "/></clipPath><clipPath id="5bb0c2c838"><path d="M 1303.546875 184.453125 L 1235.8125 232.851562 L 1190.03125 168.777344 L 1257.765625 120.378906 Z M 1303.546875 184.453125 "/></clipPath><clipPath id="fcda19cab0"><path d="M 1303.546875 184.453125 L 1235.8125 232.851562 L 1190.03125 168.777344 L 1257.765625 120.378906 Z M 1303.546875 184.453125 "/></clipPath><clipPath id="6c88b2f6b4"><path d="M 1231 315 L 1312 315 L 1312 401 L 1231 401 Z M 1231 315 "/></clipPath><clipPath id="a8810adbf0"><path d="M 1327.148438 373.953125 L 1252.792969 411.394531 L 1217.378906 341.058594 L 1291.734375 303.617188 Z M 1327.148438 373.953125 "/></clipPath><clipPath id="2e28d1a038"><path d="M 1327.148438 373.953125 L 1252.792969 411.394531 L 1217.378906 341.058594 L 1291.734375 303.617188 Z M 1327.148438 373.953125 "/></clipPath><clipPath id="390324a00c"><path d="M 1299 225 L 1379 225 L 1379 309 L 1299 309 Z M 1299 225 "/></clipPath><clipPath id="e6a0099265"><path d="M 1388.140625 294.210938 L 1307.421875 314.59375 L 1288.144531 238.238281 L 1368.859375 217.859375 Z M 1388.140625 294.210938 "/></clipPath><clipPath id="26f468731b"><path d="M 1388.140625 294.210938 L 1307.421875 314.59375 L 1288.144531 238.238281 L 1368.859375 217.859375 Z M 1388.140625 294.210938 "/></clipPath><clipPath id="c4f4902a72"><path d="M 1351 347 L 1430 347 L 1430 431 L 1351 431 Z M 1351 347 "/></clipPath><clipPath id="816a62486d"><path d="M 1439.992188 416.210938 L 1359.277344 436.589844 L 1339.996094 360.238281 L 1420.714844 339.855469 Z M 1439.992188 416.210938 "/></clipPath><clipPath id="595c7ad25d"><path d="M 1439.992188 416.210938 L 1359.277344 436.589844 L 1339.996094 360.238281 L 1420.714844 339.855469 Z M 1439.992188 416.210938 "/></clipPath><clipPath id="1af5d3686b"><path d="M 1267 417 L 1348 417 L 1348 502 L 1267 502 Z M 1267 417 "/></clipPath><clipPath id="500eb6107b"><path d="M 1364.375 474.09375 L 1291.3125 514.003906 L 1253.558594 444.894531 L 1326.621094 404.984375 Z M 1364.375 474.09375 "/></clipPath><clipPath id="17ba99aaa5"><path d="M 1364.375 474.09375 L 1291.3125 514.003906 L 1253.558594 444.894531 L 1326.621094 404.984375 Z M 1364.375 474.09375 "/></clipPath><clipPath id="f938fbca72"><path d="M 1331 507 L 1419 507 L 1419 585 L 1331 585 Z M 1331 507 "/></clipPath><clipPath id="d42bd91961"><path d="M 1433.226562 535.058594 L 1384.582031 602.613281 L 1320.675781 556.597656 L 1369.320312 489.039062 Z M 1433.226562 535.058594 "/></clipPath><clipPath id="0865e67d2c"><path d="M 1433.226562 535.058594 L 1384.582031 602.613281 L 1320.675781 556.597656 L 1369.320312 489.039062 Z M 1433.226562 535.058594 "/></clipPath><clipPath id="fb35a5e677"><path d="M 1410 449 L 1440 449 L 1440 527 L 1410 527 Z M 1410 449 "/></clipPath><clipPath id="83f9b87dea"><path d="M 1510.042969 469.039062 L 1469.53125 541.769531 L 1400.734375 503.449219 L 1441.242188 430.71875 Z M 1510.042969 469.039062 "/></clipPath><clipPath id="165656c92f"><path d="M 1510.042969 469.039062 L 1469.53125 541.769531 L 1400.734375 503.449219 L 1441.242188 430.71875 Z M 1510.042969 469.039062 "/></clipPath></defs><g id="779e586000"><rect x="0" width="1440" y="0" height="809.999993" style="fill:#ffffff;fill-opacity:1;stroke:none;"/><rect x="0" width="1440" y="0" height="809.999993" style="fill:#fff2e6;fill-opacity:1;stroke:none;"/><g clip-rule="nonzero" clip-path="url(#1bde8d91d9)"><g clip-rule="nonzero" clip-path="url(#acda9e913d)"><g clip-rule="nonzero" clip-path="url(#b33d1511fc)"><path style=" stroke:none;fill-rule:nonzero;fill:#fe6892;fill-opacity:1;" d="M 80.625 157.398438 C 80.570312 157.238281 80.507812 157.074219 80.441406 156.914062 C 77.152344 150.75 69.054688 149.4375 62.785156 150.929688 C 57.003906 151.996094 50.699219 156.78125 51.464844 163.261719 C 51.589844 164.199219 51.96875 165.089844 52.484375 165.875 C 57.351562 172.375 67.09375 172.789062 73.921875 169.363281 C 78.453125 167.527344 82.335938 162.367188 80.625 157.398438 Z M 71.175781 129.78125 C 69.734375 125.75 64.566406 123.945312 60.476562 124.582031 C 52.351562 125.757812 43.964844 132.398438 44.179688 141.199219 C 44.265625 142.003906 44.503906 142.785156 44.871094 143.503906 C 47.554688 148.609375 54.375 148.898438 59.191406 147.058594 C 65.59375 144.761719 71.949219 138.945312 71.550781 131.644531 C 71.511719 130.976562 71.382812 130.355469 71.175781 129.78125 Z M 64.371094 182.40625 C 61.628906 175.515625 53.019531 173.011719 46.242188 174.488281 C 41.210938 175.117188 35.722656 179.722656 37.125 185.238281 C 39.699219 192.726562 49.425781 195.199219 56.410156 193.132812 C 61.136719 192.097656 65.796875 187.570312 64.371094 182.40625 Z M 42.492188 121.375 C 41.527344 118.375 38.765625 116.027344 35.402344 116.050781 C 26.40625 116.128906 17.832031 124.769531 18.96875 133.949219 C 19.539062 137.75 23.34375 139.996094 26.960938 139.792969 C 34.691406 139.335938 41.660156 132.726562 42.71875 125.09375 C 42.964844 123.828125 42.867188 122.550781 42.488281 121.375 Z M 38.3125 157.714844 C 36.363281 151.855469 31.421875 146.882812 25.738281 144.546875 C 19.21875 142.148438 12.101562 140.773438 5.152344 141.613281 C -0.0664062 141.5625 -4.269531 146.964844 -2.648438 151.992188 C -0.824219 158.078125 5.03125 161.894531 7.320312 167.792969 C 9.777344 172.625 8.632812 178.054688 8.414062 183.203125 C 8.03125 187.648438 10.449219 192.820312 15.296875 193.425781 C 20.089844 193.578125 23.882812 189.773438 27.050781 186.613281 C 31.925781 180.6875 37.023438 174.378906 38.761719 166.730469 C 39.5 163.652344 39.265625 160.578125 38.3125 157.714844 Z M 38.3125 157.714844 "/></g></g></g><g clip-rule="nonzero" clip-path="url(#62cf97e753)"><g clip-rule="nonzero" clip-path="url(#006fa567b0)"><g clip-rule="nonzero" clip-path="url(#18c13867d7)"><path style=" stroke:none;fill-rule:nonzero;fill:#fe6892;fill-opacity:1;" d="M 159.507812 218.445312 C 159.449219 218.285156 159.386719 218.121094 159.320312 217.960938 C 156.035156 211.796875 147.933594 210.484375 141.667969 211.976562 C 135.886719 213.042969 129.582031 217.828125 130.347656 224.308594 C 130.472656 225.246094 130.851562 226.136719 131.367188 226.921875 C 136.234375 233.421875 145.976562 233.835938 152.800781 230.410156 C 157.332031 228.574219 161.21875 223.414062 159.507812 218.445312 Z M 150.058594 190.828125 C 148.617188 186.796875 143.449219 184.992188 139.359375 185.625 C 131.234375 186.804688 122.847656 193.445312 123.0625 202.246094 C 123.144531 203.050781 123.382812 203.832031 123.75 204.546875 C 126.4375 209.65625 133.253906 209.945312 138.074219 208.105469 C 144.472656 205.808594 150.832031 199.992188 150.433594 192.691406 C 150.390625 192.023438 150.261719 191.402344 150.058594 190.828125 Z M 143.253906 243.453125 C 140.511719 236.5625 131.902344 234.058594 125.125 235.53125 C 120.09375 236.164062 114.605469 240.769531 116.007812 246.285156 C 118.582031 253.769531 128.308594 256.246094 135.289062 254.175781 C 140.019531 253.144531 144.679688 248.617188 143.253906 243.453125 Z M 121.371094 182.421875 C 120.410156 179.421875 117.648438 177.074219 114.28125 177.097656 C 105.289062 177.175781 96.714844 185.816406 97.847656 194.996094 C 98.421875 198.796875 102.226562 201.042969 105.84375 200.839844 C 113.574219 200.378906 120.542969 193.773438 121.601562 186.140625 C 121.847656 184.875 121.746094 183.597656 121.371094 182.421875 Z M 117.195312 218.761719 C 115.246094 212.902344 110.304688 207.929688 104.617188 205.59375 C 98.101562 203.195312 90.984375 201.820312 84.03125 202.660156 C 78.8125 202.609375 74.609375 208.011719 76.234375 213.039062 C 78.058594 219.125 83.914062 222.941406 86.203125 228.839844 C 88.65625 233.671875 87.515625 239.101562 87.292969 244.25 C 86.914062 248.695312 89.332031 253.867188 94.179688 254.472656 C 98.96875 254.625 102.765625 250.820312 105.929688 247.65625 C 110.804688 241.734375 115.902344 235.425781 117.644531 227.777344 C 118.382812 224.699219 118.148438 221.625 117.195312 218.761719 Z M 117.195312 218.761719 "/></g></g></g><g clip-rule="nonzero" clip-path="url(#6f56dc8882)"><g clip-rule="nonzero" clip-path="url(#65018b3aaa)"><g clip-rule="nonzero" clip-path="url(#b151674f5a)"><path style=" stroke:none;fill-rule:nonzero;fill:#fe6892;fill-opacity:1;" d="M 225.054688 136.386719 C 225.023438 136.21875 224.984375 136.050781 224.941406 135.882812 C 222.558594 129.316406 214.726562 126.871094 208.308594 127.464844 C 202.433594 127.699219 195.519531 131.546875 195.359375 138.070312 C 195.351562 139.015625 195.597656 139.949219 196 140.800781 C 199.898438 147.925781 209.484375 149.710938 216.726562 147.285156 C 221.472656 146.105469 226.046875 141.550781 225.054688 136.386719 Z M 219.605469 107.710938 C 218.746094 103.515625 213.886719 101 209.75 101.050781 C 201.539062 101.066406 192.296875 106.457031 191.265625 115.199219 C 191.234375 116.007812 191.363281 116.8125 191.625 117.578125 C 193.558594 123.015625 200.269531 124.261719 205.300781 123.121094 C 211.960938 121.753906 219.074219 116.894531 219.710938 109.609375 C 219.765625 108.941406 219.726562 108.3125 219.605469 107.710938 Z M 205.429688 158.847656 C 203.6875 151.636719 195.523438 147.941406 188.601562 148.445312 C 183.53125 148.355469 177.449219 152.140625 178.058594 157.800781 C 179.550781 165.574219 188.828125 169.402344 196.03125 168.339844 C 200.859375 167.984375 206.113281 164.164062 205.429688 158.847656 Z M 192.394531 95.335938 C 191.867188 92.230469 189.460938 89.515625 186.128906 89.066406 C 177.210938 87.871094 167.503906 95.210938 167.332031 104.460938 C 167.359375 108.300781 170.808594 111.066406 174.417969 111.371094 C 182.136719 112.011719 189.96875 106.457031 192.09375 99.050781 C 192.519531 97.832031 192.601562 96.550781 192.394531 95.335938 Z M 183.125 130.722656 C 182.023438 124.644531 177.832031 119.023438 172.535156 115.90625 C 166.421875 112.613281 159.570312 110.246094 152.570312 110.09375 C 147.410156 109.308594 142.484375 114.0625 143.382812 119.265625 C 144.328125 125.550781 149.585938 130.15625 151.015625 136.316406 C 152.765625 141.449219 150.867188 146.664062 149.921875 151.726562 C 148.917969 156.074219 150.578125 161.539062 155.292969 162.820312 C 160.011719 163.648438 164.308594 160.417969 167.890625 157.734375 C 173.550781 152.558594 179.488281 147.035156 182.292969 139.710938 C 183.460938 136.765625 183.660156 133.6875 183.125 130.722656 Z M 183.125 130.722656 "/></g></g></g><g clip-rule="nonzero" clip-path="url(#fcb6be1e9b)"><g clip-rule="nonzero" clip-path="url(#11b9cf66e5)"><g clip-rule="nonzero" clip-path="url(#1499461784)"><path style=" stroke:none;fill-rule:nonzero;fill:#fe6892;fill-opacity:1;" d="M 294.015625 230.277344 C 294.050781 230.113281 294.078125 229.941406 294.101562 229.769531 C 294.417969 222.789062 288.121094 217.53125 281.972656 215.617188 C 276.453125 213.582031 268.589844 214.484375 265.941406 220.449219 C 265.570312 221.316406 265.445312 222.277344 265.488281 223.214844 C 266.359375 231.292969 274.527344 236.617188 282.144531 237.148438 C 286.980469 237.882812 292.953125 235.425781 294.015625 230.277344 Z M 299.976562 201.703125 C 300.792969 197.5 297.265625 193.3125 293.425781 191.773438 C 285.835938 188.644531 275.234375 190.078125 270.929688 197.757812 C 270.59375 198.488281 270.402344 199.285156 270.351562 200.089844 C 270.054688 205.851562 275.769531 209.578125 280.855469 210.453125 C 287.53125 211.742188 295.964844 209.980469 299.347656 203.496094 C 299.652344 202.902344 299.859375 202.304688 299.972656 201.703125 Z M 267.277344 243.5 C 268.433594 236.171875 262.308594 229.625 255.726562 227.4375 C 251.074219 225.414062 244.007812 226.574219 242.398438 232.035156 C 240.796875 239.789062 247.898438 246.878906 254.960938 248.660156 C 259.554688 250.183594 265.871094 248.667969 267.277344 243.5 Z M 279.589844 179.84375 C 280.292969 176.773438 279.113281 173.339844 276.207031 171.648438 C 268.429688 167.125 256.648438 170.183594 252.941406 178.660156 C 251.496094 182.21875 253.625 186.09375 256.839844 187.761719 C 263.722656 191.3125 273.085938 189.183594 277.886719 183.160156 C 278.746094 182.195312 279.3125 181.046875 279.589844 179.84375 Z M 257.460938 208.96875 C 258.773438 202.933594 257.058594 196.132812 253.359375 191.226562 C 248.976562 185.839844 243.554688 181.027344 237.152344 178.203125 C 232.6875 175.5 226.316406 178 225.148438 183.152344 C 223.613281 189.320312 226.703125 195.585938 225.664062 201.828125 C 225.308594 207.238281 221.558594 211.324219 218.742188 215.640625 C 216.144531 219.269531 215.585938 224.953125 219.449219 227.945312 C 223.492188 230.519531 228.699219 229.183594 233.03125 228.078125 C 240.246094 225.46875 247.847656 222.644531 253.246094 216.953125 C 255.453125 214.679688 256.820312 211.917969 257.460938 208.96875 Z M 257.460938 208.96875 "/></g></g></g><g clip-rule="nonzero" clip-path="url(#30396a9cf3)"><g clip-rule="nonzero" clip-path="url(#9854b14cc8)"><g clip-rule="nonzero" clip-path="url(#cf3662241e)"><path style=" stroke:none;fill-rule:nonzero;fill:#fe6892;fill-opacity:1;" d="M 366.578125 186.53125 C 366.679688 186.398438 366.785156 186.257812 366.882812 186.113281 C 370.277344 180.007812 366.980469 172.496094 362.328125 168.039062 C 358.292969 163.761719 350.851562 161.0625 345.824219 165.226562 C 345.105469 165.835938 344.5625 166.636719 344.1875 167.5 C 341.367188 175.117188 346.304688 183.523438 352.886719 187.394531 C 356.890625 190.203125 363.332031 190.667969 366.578125 186.53125 Z M 384.644531 163.609375 C 387.246094 160.207031 385.957031 154.890625 383.207031 151.800781 C 377.808594 145.613281 367.675781 142.175781 360.402344 147.132812 C 359.773438 147.636719 359.246094 148.261719 358.84375 148.960938 C 356.007812 153.988281 359.46875 159.871094 363.628906 162.917969 C 369.03125 167.050781 377.367188 169.230469 383.28125 164.933594 C 383.820312 164.539062 384.269531 164.09375 384.644531 163.609375 Z M 336.75 186.453125 C 341.050781 180.410156 338.480469 171.820312 333.5625 166.929688 C 330.304688 163.042969 323.457031 160.933594 319.585938 165.105469 C 314.695312 171.332031 317.894531 180.84375 323.421875 185.585938 C 326.855469 188.996094 333.183594 190.453125 336.75 186.453125 Z M 376.136719 134.953125 C 378.132812 132.515625 378.605469 128.921875 376.757812 126.109375 C 371.8125 118.597656 359.902344 116.085938 352.808594 122.019531 C 349.925781 124.5625 350.105469 128.976562 352.238281 131.90625 C 356.820312 138.148438 366.148438 140.417969 373.132812 137.164062 C 374.332031 136.683594 375.351562 135.90625 376.132812 134.953125 Z M 343.347656 151.167969 C 347.210938 146.351562 348.707031 139.5 347.582031 133.457031 C 346.054688 126.683594 343.347656 119.957031 338.875 114.574219 C 336.082031 110.164062 329.261719 109.566406 325.921875 113.65625 C 321.800781 118.492188 321.773438 125.480469 318.0625 130.605469 C 315.335938 135.289062 310.152344 137.277344 305.710938 139.886719 C 301.769531 141.980469 298.738281 146.816406 300.859375 151.21875 C 303.332031 155.324219 308.589844 156.445312 312.960938 157.390625 C 320.585938 158.269531 328.648438 159.128906 336.015625 156.4375 C 339.003906 155.386719 341.457031 153.519531 343.347656 151.167969 Z M 343.347656 151.167969 "/></g></g></g><g clip-rule="nonzero" clip-path="url(#2a2370c2a7)"><g clip-rule="nonzero" clip-path="url(#0cbfeaabac)"><g clip-rule="nonzero" clip-path="url(#dd17afc21d)"><path style=" stroke:none;fill-rule:nonzero;fill:#fe6892;fill-opacity:1;" d="M 366.578125 327.835938 C 366.679688 327.703125 366.785156 327.5625 366.882812 327.417969 C 370.277344 321.3125 366.980469 313.796875 362.328125 309.34375 C 358.292969 305.066406 350.851562 302.367188 345.824219 306.53125 C 345.105469 307.140625 344.5625 307.941406 344.1875 308.804688 C 341.367188 316.421875 346.304688 324.828125 352.886719 328.699219 C 356.890625 331.507812 363.332031 331.972656 366.578125 327.835938 Z M 384.644531 304.914062 C 387.246094 301.511719 385.957031 296.195312 383.207031 293.105469 C 377.808594 286.917969 367.675781 283.480469 360.402344 288.4375 C 359.773438 288.941406 359.246094 289.566406 358.84375 290.265625 C 356.007812 295.292969 359.46875 301.175781 363.628906 304.222656 C 369.03125 308.355469 377.367188 310.535156 383.28125 306.238281 C 383.820312 305.84375 384.269531 305.398438 384.644531 304.914062 Z M 336.75 327.757812 C 341.050781 321.714844 338.480469 313.125 333.5625 308.234375 C 330.304688 304.347656 323.457031 302.238281 319.585938 306.410156 C 314.695312 312.636719 317.894531 322.148438 323.421875 326.890625 C 326.855469 330.300781 333.183594 331.757812 336.75 327.757812 Z M 376.136719 276.257812 C 378.132812 273.820312 378.605469 270.226562 376.757812 267.414062 C 371.8125 259.902344 359.902344 257.390625 352.808594 263.324219 C 349.925781 265.867188 350.105469 270.28125 352.238281 273.210938 C 356.820312 279.453125 366.148438 281.722656 373.132812 278.46875 C 374.332031 277.988281 375.351562 277.210938 376.132812 276.257812 Z M 343.347656 292.472656 C 347.210938 287.652344 348.707031 280.804688 347.582031 274.761719 C 346.054688 267.988281 343.347656 261.261719 338.875 255.878906 C 336.082031 251.46875 329.261719 250.871094 325.921875 254.960938 C 321.800781 259.796875 321.773438 266.785156 318.0625 271.910156 C 315.335938 276.59375 310.152344 278.582031 305.710938 281.191406 C 301.769531 283.285156 298.738281 288.121094 300.859375 292.523438 C 303.332031 296.628906 308.589844 297.75 312.960938 298.695312 C 320.585938 299.574219 328.648438 300.433594 336.015625 297.742188 C 339.003906 296.691406 341.457031 294.824219 343.347656 292.472656 Z M 343.347656 292.472656 "/></g></g></g><g clip-rule="nonzero" clip-path="url(#1365531630)"><g clip-rule="nonzero" clip-path="url(#0404bbf5d2)"><g clip-rule="nonzero" clip-path="url(#ef6b6c003f)"><path style=" stroke:none;fill-rule:nonzero;fill:#fe6892;fill-opacity:1;" d="M 479.878906 283.25 C 479.980469 283.117188 480.085938 282.976562 480.183594 282.832031 C 483.578125 276.726562 480.28125 269.210938 475.628906 264.757812 C 471.59375 260.476562 464.152344 257.78125 459.125 261.941406 C 458.40625 262.554688 457.863281 263.355469 457.488281 264.214844 C 454.664062 271.832031 459.605469 280.238281 466.1875 284.113281 C 470.191406 286.921875 476.632812 287.386719 479.878906 283.25 Z M 497.945312 260.324219 C 500.546875 256.925781 499.257812 251.605469 496.507812 248.515625 C 491.109375 242.332031 480.976562 238.894531 473.703125 243.847656 C 473.074219 244.355469 472.546875 244.980469 472.144531 245.675781 C 469.308594 250.707031 472.769531 256.589844 476.929688 259.636719 C 482.332031 263.765625 490.667969 265.949219 496.582031 261.648438 C 497.121094 261.253906 497.570312 260.808594 497.945312 260.324219 Z M 450.050781 283.171875 C 454.351562 277.125 451.78125 268.539062 446.863281 263.644531 C 443.605469 259.761719 436.757812 257.652344 432.886719 261.824219 C 427.996094 268.050781 431.195312 277.5625 436.722656 282.304688 C 440.15625 285.714844 446.484375 287.171875 450.050781 283.171875 Z M 489.433594 231.671875 C 491.433594 229.234375 491.90625 225.636719 490.058594 222.828125 C 485.113281 215.3125 473.203125 212.800781 466.109375 218.738281 C 463.226562 221.28125 463.40625 225.695312 465.539062 228.621094 C 470.121094 234.867188 479.449219 237.136719 486.433594 233.878906 C 487.632812 233.398438 488.652344 232.621094 489.433594 231.667969 Z M 456.648438 247.882812 C 460.511719 243.066406 462.007812 236.214844 460.882812 230.175781 C 459.355469 223.398438 456.648438 216.675781 452.171875 211.289062 C 449.382812 206.882812 442.5625 206.285156 439.222656 210.375 C 435.101562 215.210938 435.074219 222.199219 431.363281 227.320312 C 428.636719 232.007812 423.453125 233.996094 419.011719 236.601562 C 415.070312 238.695312 412.039062 243.535156 414.160156 247.933594 C 416.632812 252.042969 421.890625 253.164062 426.261719 254.105469 C 433.886719 254.984375 441.949219 255.84375 449.316406 253.152344 C 452.304688 252.101562 454.757812 250.238281 456.648438 247.882812 Z M 456.648438 247.882812 "/></g></g></g><g clip-rule="nonzero" clip-path="url(#43e75d531d)"><g clip-rule="nonzero" clip-path="url(#01bbf433b2)"><g clip-rule="nonzero" clip-path="url(#e2387b47e3)"><path style=" stroke:none;fill-rule:nonzero;fill:#fe6892;fill-opacity:1;" d="M 463.785156 407.632812 C 463.871094 407.484375 463.953125 407.332031 464.027344 407.175781 C 466.507812 400.644531 462.167969 393.683594 456.921875 389.945312 C 452.316406 386.289062 444.566406 384.6875 440.1875 389.53125 C 439.5625 390.238281 439.140625 391.109375 438.890625 392.015625 C 437.195312 399.957031 443.292969 407.566406 450.363281 410.453125 C 454.726562 412.660156 461.167969 412.195312 463.785156 407.632812 Z M 478.371094 382.351562 C 480.460938 378.613281 478.417969 373.535156 475.25 370.871094 C 469.019531 365.527344 458.5 363.578125 452.011719 369.527344 C 451.460938 370.121094 451.03125 370.8125 450.734375 371.5625 C 448.652344 376.945312 452.917969 382.269531 457.476562 384.6875 C 463.414062 388 471.976562 388.960938 477.214844 383.859375 C 477.691406 383.390625 478.074219 382.886719 478.371094 382.351562 Z M 434.257812 411.84375 C 437.644531 405.242188 433.867188 397.113281 428.296875 392.976562 C 424.511719 389.601562 417.433594 388.5 414.203125 393.183594 C 410.257812 400.046875 414.792969 409.003906 420.941406 412.898438 C 424.832031 415.78125 431.304688 416.3125 434.257812 411.84375 Z M 465.832031 355.214844 C 467.460938 352.519531 467.410156 348.890625 465.179688 346.375 C 459.203125 339.652344 447.054688 338.875 440.886719 345.769531 C 438.402344 348.699219 439.214844 353.042969 441.746094 355.632812 C 447.175781 361.15625 456.738281 362.058594 463.179688 357.835938 C 464.296875 357.1875 465.195312 356.273438 465.832031 355.214844 Z M 435.714844 375.972656 C 438.847656 370.652344 439.339844 363.65625 437.359375 357.839844 C 434.878906 351.355469 431.230469 345.085938 426.027344 340.402344 C 422.632812 336.441406 415.800781 336.828125 413.082031 341.355469 C 409.695312 346.734375 410.671875 353.65625 407.738281 359.257812 C 405.714844 364.289062 400.871094 367 396.847656 370.21875 C 393.25 372.855469 390.941406 378.078125 393.675781 382.128906 C 396.714844 385.839844 402.078125 386.191406 406.539062 386.496094 C 414.210938 386.273438 422.3125 385.964844 429.21875 382.242188 C 432.027344 380.773438 434.183594 378.574219 435.714844 375.972656 Z M 435.714844 375.972656 "/></g></g></g><g clip-rule="nonzero" clip-path="url(#9a7cd19f4d)"><g clip-rule="nonzero" clip-path="url(#a501a33b0c)"><g clip-rule="nonzero" clip-path="url(#3aaf09f65a)"><path style=" stroke:none;fill-rule:nonzero;fill:#fe6892;fill-opacity:1;" d="M 574.597656 352.488281 C 574.691406 352.347656 574.785156 352.199219 574.871094 352.050781 C 577.832031 345.722656 574.019531 338.457031 569.066406 334.335938 C 564.742188 330.351562 557.132812 328.179688 552.40625 332.679688 C 551.730469 333.34375 551.246094 334.179688 550.929688 335.0625 C 548.648438 342.859375 554.164062 350.898438 561 354.304688 C 565.191406 356.828125 571.644531 356.839844 574.597656 352.488281 Z M 591.019531 328.359375 C 593.378906 324.785156 591.722656 319.570312 588.761719 316.679688 C 582.941406 310.886719 572.597656 308.164062 565.683594 313.613281 C 565.09375 314.164062 564.613281 314.824219 564.257812 315.546875 C 561.78125 320.761719 565.644531 326.386719 570.007812 329.136719 C 575.683594 332.882812 584.152344 334.476562 589.753906 329.777344 C 590.261719 329.34375 590.679688 328.867188 591.019531 328.359375 Z M 544.835938 354.492188 C 548.703125 348.164062 545.542969 339.773438 540.292969 335.238281 C 536.769531 331.589844 529.792969 329.964844 526.222656 334.394531 C 521.777344 340.949219 525.632812 350.214844 531.480469 354.558594 C 535.144531 357.71875 541.558594 358.730469 544.835938 354.492188 Z M 580.53125 300.367188 C 582.351562 297.796875 582.574219 294.175781 580.535156 291.503906 C 575.074219 284.351562 563.019531 282.679688 556.355469 289.09375 C 553.660156 291.832031 554.144531 296.222656 556.480469 298.996094 C 561.484375 304.902344 570.953125 306.515625 577.691406 302.78125 C 578.855469 302.21875 579.816406 301.371094 580.527344 300.367188 Z M 548.953125 318.832031 C 552.472656 313.753906 553.484375 306.816406 551.941406 300.867188 C 549.949219 294.214844 546.777344 287.695312 541.9375 282.640625 C 538.84375 278.4375 532 278.316406 528.953125 282.628906 C 525.179688 287.742188 525.640625 294.714844 522.296875 300.082031 C 519.902344 304.949219 514.871094 307.292969 510.621094 310.203125 C 506.835938 312.570312 504.148438 317.605469 506.574219 321.847656 C 509.328125 325.769531 514.652344 326.523438 519.078125 327.160156 C 526.742188 327.503906 534.847656 327.796875 542.007812 324.597656 C 544.917969 323.34375 547.234375 321.308594 548.953125 318.832031 Z M 548.953125 318.832031 "/></g></g></g><g clip-rule="nonzero" clip-path="url(#157881a1dc)"><g clip-rule="nonzero" clip-path="url(#ce802026a4)"><g clip-rule="nonzero" clip-path="url(#d25e409ec4)"><path style=" stroke:none;fill-rule:nonzero;fill:#fe6892;fill-opacity:1;" d="M 597.789062 454.398438 C 597.828125 454.234375 597.863281 454.0625 597.890625 453.894531 C 598.371094 446.921875 592.199219 441.515625 586.09375 439.457031 C 580.625 437.296875 572.746094 438.011719 569.957031 443.914062 C 569.566406 444.773438 569.414062 445.726562 569.4375 446.667969 C 570.117188 454.761719 578.15625 460.277344 585.761719 460.992188 C 590.578125 461.835938 596.605469 459.523438 597.789062 454.398438 Z M 604.421875 425.976562 C 605.335938 421.792969 601.914062 417.523438 598.109375 415.894531 C 590.59375 412.582031 579.964844 413.769531 575.476562 421.34375 C 575.125 422.070312 574.914062 422.859375 574.84375 423.660156 C 574.410156 429.417969 580.039062 433.277344 585.101562 434.269531 C 591.742188 435.71875 600.21875 434.15625 603.75 427.753906 C 604.070312 427.167969 604.289062 426.574219 604.421875 425.976562 Z M 570.75 466.988281 C 572.078125 459.6875 566.105469 453 559.578125 450.660156 C 554.976562 448.523438 547.882812 449.519531 546.148438 454.941406 C 544.359375 462.652344 551.292969 469.910156 558.3125 471.859375 C 562.867188 473.488281 569.21875 472.121094 570.75 466.988281 Z M 584.558594 403.640625 C 585.332031 400.585938 584.234375 397.128906 581.367188 395.367188 C 573.699219 390.664062 561.851562 393.441406 557.945312 401.828125 C 556.417969 405.351562 558.449219 409.277344 561.625 411.019531 C 568.421875 414.730469 577.835938 412.824219 582.777344 406.914062 C 583.660156 405.96875 584.253906 404.835938 584.554688 403.640625 Z M 561.746094 432.234375 C 563.203125 426.234375 561.648438 419.394531 558.066406 414.402344 C 553.8125 408.914062 548.503906 403.972656 542.167969 401 C 537.769531 398.191406 531.339844 400.542969 530.054688 405.664062 C 528.371094 411.792969 531.3125 418.132812 530.125 424.347656 C 529.648438 429.746094 525.796875 433.746094 522.882812 437.992188 C 520.203125 441.558594 519.507812 447.226562 523.300781 450.308594 C 527.277344 452.980469 532.515625 451.765625 536.875 450.761719 C 544.152344 448.324219 551.816406 445.679688 557.347656 440.117188 C 559.609375 437.898438 561.035156 435.167969 561.746094 432.234375 Z M 561.746094 432.234375 "/></g></g></g><g clip-rule="nonzero" clip-path="url(#ef0a4237eb)"><g clip-rule="nonzero" clip-path="url(#c87669abe9)"><g clip-rule="nonzero" clip-path="url(#9ead23be21)"><path style=" stroke:none;fill-rule:nonzero;fill:#fe6892;fill-opacity:1;" d="M 704.84375 354.042969 C 704.800781 353.878906 704.753906 353.710938 704.699219 353.546875 C 701.949219 347.125 693.988281 345.128906 687.617188 346.082031 C 681.765625 346.652344 675.078125 350.886719 675.292969 357.410156 C 675.335938 358.351562 675.636719 359.273438 676.085938 360.097656 C 680.382812 366.988281 690.054688 368.230469 697.144531 365.394531 C 701.816406 363.949219 706.125 359.140625 704.84375 354.042969 Z M 697.773438 325.722656 C 696.679688 321.582031 691.683594 319.347656 687.558594 319.632812 C 679.359375 320.113281 670.441406 326.019531 669.90625 334.808594 C 669.921875 335.613281 670.09375 336.414062 670.398438 337.160156 C 672.640625 342.476562 679.410156 343.34375 684.367188 341.917969 C 690.9375 340.175781 697.765625 334.921875 697.988281 327.609375 C 698.007812 326.941406 697.929688 326.316406 697.773438 325.722656 Z M 686.523438 377.582031 C 684.375 370.480469 676.011719 367.253906 669.132812 368.148438 C 664.066406 368.347656 658.207031 372.472656 659.136719 378.085938 C 661.066406 385.765625 670.546875 389.058594 677.679688 387.589844 C 682.476562 386.960938 687.503906 382.847656 686.523438 377.582031 Z M 669.90625 314.910156 C 669.203125 311.839844 666.648438 309.261719 663.296875 309.003906 C 654.324219 308.316406 645.050781 316.199219 645.402344 325.441406 C 645.648438 329.273438 649.25 331.835938 652.871094 331.941406 C 660.609375 332.140625 668.117188 326.152344 669.816406 318.636719 C 670.171875 317.394531 670.179688 316.113281 669.90625 314.910156 Z M 662.65625 350.765625 C 661.214844 344.757812 656.710938 339.382812 651.246094 336.574219 C 644.953125 333.632812 637.980469 331.65625 630.984375 331.902344 C 625.789062 331.410156 621.140625 336.433594 622.332031 341.578125 C 623.632812 347.800781 629.140625 352.101562 630.921875 358.171875 C 632.957031 363.195312 631.355469 368.507812 630.699219 373.621094 C 629.941406 378.015625 631.910156 383.375 636.691406 384.390625 C 641.449219 384.949219 645.558594 381.480469 648.980469 378.597656 C 654.339844 373.109375 659.953125 367.257812 662.335938 359.785156 C 663.335938 356.777344 663.363281 353.695312 662.65625 350.765625 Z M 662.65625 350.765625 "/></g></g></g><g clip-rule="nonzero" clip-path="url(#ad61b1c764)"><g clip-rule="nonzero" clip-path="url(#a7caa21a1d)"><g clip-rule="nonzero" clip-path="url(#a7a6a3a18b)"><path style=" stroke:none;fill-rule:nonzero;fill:#fe6892;fill-opacity:1;" d="M 771.726562 414.488281 C 771.605469 414.371094 771.480469 414.25 771.351562 414.132812 C 765.726562 409.988281 757.855469 412.296875 752.84375 416.34375 C 748.085938 419.800781 744.457031 426.835938 747.945312 432.351562 C 748.460938 433.144531 749.183594 433.785156 749.992188 434.269531 C 757.183594 438.039062 766.152344 434.210938 770.835938 428.175781 C 774.132812 424.566406 775.414062 418.238281 771.726562 414.488281 Z M 751.296875 393.644531 C 748.257812 390.628906 742.816406 391.226562 739.402344 393.5625 C 732.578125 398.128906 727.875 407.738281 731.859375 415.585938 C 732.28125 416.273438 732.832031 416.875 733.472656 417.367188 C 738.101562 420.816406 744.375 418.140625 747.929688 414.398438 C 752.714844 409.570312 755.945312 401.582031 752.4375 395.164062 C 752.113281 394.578125 751.730469 394.078125 751.296875 393.644531 Z M 767.839844 444.0625 C 762.394531 439.027344 753.550781 440.476562 748.070312 444.730469 C 743.800781 447.46875 740.835938 453.992188 744.476562 458.363281 C 750.027344 464.007812 759.871094 462.050781 765.28125 457.171875 C 769.101562 454.199219 771.355469 448.109375 767.839844 444.0625 Z M 721.789062 398.425781 C 719.628906 396.132812 716.121094 395.203125 713.097656 396.679688 C 705.015625 400.628906 701.003906 412.117188 705.984375 419.914062 C 708.140625 423.09375 712.539062 423.480469 715.714844 421.738281 C 722.492188 417.992188 725.933594 409.027344 723.597656 401.683594 C 723.273438 400.433594 722.632812 399.324219 721.789062 398.429688 Z M 733.683594 433.015625 C 729.402344 428.570312 722.796875 426.210938 716.660156 426.554688 C 709.746094 427.203125 702.730469 429.03125 696.820312 432.78125 C 692.089844 434.988281 690.628906 441.675781 694.257812 445.507812 C 698.527344 450.214844 705.457031 451.136719 710.0625 455.46875 C 714.363281 458.773438 715.675781 464.164062 717.691406 468.90625 C 719.265625 473.082031 723.675781 476.707031 728.3125 475.160156 C 732.699219 473.234375 734.484375 468.164062 735.976562 463.945312 C 737.824219 456.5 739.703125 448.609375 737.976562 440.957031 C 737.316406 437.859375 735.777344 435.1875 733.683594 433.015625 Z M 733.683594 433.015625 "/></g></g></g><g clip-rule="nonzero" clip-path="url(#e6fdc46b8c)"><g clip-rule="nonzero" clip-path="url(#d03e757a45)"><g clip-rule="nonzero" clip-path="url(#f82e1273f1)"><path style=" stroke:none;fill-rule:nonzero;fill:#fe6892;fill-opacity:1;" d="M 800.03125 288.867188 C 799.941406 288.722656 799.84375 288.578125 799.742188 288.4375 C 795.132812 283.1875 786.949219 283.761719 781.1875 286.644531 C 775.800781 289.003906 770.757812 295.101562 772.984375 301.238281 C 773.316406 302.121094 773.890625 302.902344 774.574219 303.546875 C 780.796875 308.765625 790.375 306.941406 796.238281 302.046875 C 800.230469 299.222656 802.835938 293.316406 800.03125 288.867188 Z M 784.523438 264.136719 C 782.199219 260.542969 776.757812 259.964844 772.921875 261.519531 C 765.28125 264.519531 758.632812 272.902344 760.851562 281.421875 C 761.117188 282.183594 761.527344 282.890625 762.046875 283.503906 C 765.832031 287.863281 772.535156 286.589844 776.804688 283.695312 C 782.511719 280 787.371094 272.882812 785.316406 265.867188 C 785.125 265.226562 784.855469 264.652344 784.523438 264.140625 Z M 789.921875 316.925781 C 785.675781 310.84375 776.722656 310.371094 770.460938 313.355469 C 765.707031 315.121094 761.414062 320.855469 764.042969 325.90625 C 768.257812 332.609375 778.292969 332.796875 784.617188 329.1875 C 788.984375 327.101562 792.488281 321.628906 789.921875 316.925781 Z M 754.679688 262.507812 C 753.054688 259.808594 749.828125 258.148438 746.558594 258.945312 C 737.820312 261.074219 731.445312 271.445312 734.648438 280.121094 C 736.074219 283.691406 740.292969 285.007812 743.765625 283.984375 C 751.1875 281.773438 756.464844 273.75 755.75 266.078125 C 755.699219 264.785156 755.3125 263.566406 754.675781 262.507812 Z M 758.910156 298.839844 C 755.675781 293.582031 749.726562 289.867188 743.660156 288.890625 C 736.765625 288.046875 729.523438 288.335938 722.949219 290.738281 C 717.855469 291.882812 715 298.101562 717.726562 302.625 C 720.894531 308.132812 727.464844 310.511719 731.039062 315.730469 C 734.535156 319.875 734.664062 325.421875 735.625 330.484375 C 736.269531 334.898438 739.800781 339.382812 744.660156 338.863281 C 749.359375 337.917969 752.1875 333.34375 754.546875 329.546875 C 757.9375 322.664062 761.460938 315.359375 761.40625 307.515625 C 761.425781 304.347656 760.492188 301.410156 758.910156 298.839844 Z M 758.910156 298.839844 "/></g></g></g><g clip-rule="nonzero" clip-path="url(#e9ad7e8f22)"><g clip-rule="nonzero" clip-path="url(#7df350b7ef)"><g clip-rule="nonzero" clip-path="url(#7868127b1a)"><path style=" stroke:none;fill-rule:nonzero;fill:#fe6892;fill-opacity:1;" d="M 902.039062 299.746094 C 901.890625 299.664062 901.734375 299.585938 901.578125 299.511719 C 895.019531 297.105469 888.109375 301.523438 884.429688 306.8125 C 880.828125 311.457031 879.3125 319.226562 884.203125 323.550781 C 884.921875 324.167969 885.796875 324.578125 886.703125 324.816406 C 894.667969 326.421875 902.207031 320.238281 905.011719 313.136719 C 907.167969 308.746094 906.628906 302.3125 902.039062 299.746094 Z M 876.59375 285.449219 C 872.832031 283.40625 867.773438 285.503906 865.148438 288.699219 C 859.875 294.992188 858.046875 305.53125 864.070312 311.953125 C 864.667969 312.496094 865.367188 312.917969 866.121094 313.210938 C 871.527344 315.230469 876.800781 310.902344 879.167969 306.316406 C 882.410156 300.34375 883.277344 291.769531 878.113281 286.589844 C 877.640625 286.121094 877.128906 285.742188 876.59375 285.449219 Z M 906.582031 329.226562 C 899.945312 325.914062 891.859375 329.78125 887.789062 335.398438 C 884.453125 339.222656 883.433594 346.3125 888.152344 349.492188 C 895.0625 353.359375 903.964844 348.722656 907.792969 342.527344 C 910.628906 338.605469 911.085938 332.128906 906.582031 329.226562 Z M 849.601562 298.296875 C 846.886719 296.699219 843.257812 296.789062 840.769531 299.050781 C 834.113281 305.101562 833.476562 317.257812 840.441406 323.347656 C 843.398438 325.796875 847.734375 324.9375 850.292969 322.375 C 855.753906 316.882812 856.546875 307.3125 852.25 300.917969 C 851.589844 299.808594 850.664062 298.921875 849.601562 298.296875 Z M 870.699219 328.175781 C 865.34375 325.105469 858.34375 324.691406 852.546875 326.738281 C 846.089844 329.292969 839.867188 333.007812 835.242188 338.265625 C 831.320312 341.707031 831.785156 348.535156 836.34375 351.199219 C 841.757812 354.523438 848.667969 353.46875 854.304688 356.339844 C 859.355469 358.308594 862.121094 363.121094 865.386719 367.105469 C 868.066406 370.675781 873.3125 372.921875 877.332031 370.140625 C 881.007812 367.0625 881.300781 361.695312 881.554688 357.230469 C 881.242188 349.5625 880.839844 341.464844 877.042969 334.601562 C 875.542969 331.8125 873.316406 329.675781 870.699219 328.175781 Z M 870.699219 328.175781 "/></g></g></g><g clip-rule="nonzero" clip-path="url(#ce8c5612e0)"><g clip-rule="nonzero" clip-path="url(#d04d7ad4b5)"><g clip-rule="nonzero" clip-path="url(#8e7cbc49a1)"><path style=" stroke:none;fill-rule:nonzero;fill:#fe6892;fill-opacity:1;" d="M 867.222656 206.824219 C 867.207031 206.65625 867.179688 206.484375 867.152344 206.3125 C 865.335938 199.566406 857.738281 196.46875 851.296875 196.515625 C 845.421875 196.25 838.203125 199.496094 837.492188 205.984375 C 837.402344 206.925781 837.570312 207.878906 837.898438 208.757812 C 841.179688 216.1875 850.578125 218.78125 858 216.976562 C 862.828125 216.207031 867.773438 212.054688 867.222656 206.824219 Z M 864.226562 177.792969 C 863.726562 173.539062 859.097656 170.617188 854.972656 170.320312 C 846.789062 169.640625 837.125 174.226562 835.351562 182.847656 C 835.253906 183.652344 835.3125 184.464844 835.507812 185.246094 C 836.976562 190.828125 843.554688 192.644531 848.664062 191.929688 C 855.417969 191.136719 862.917969 186.894531 864.171875 179.691406 C 864.28125 179.03125 864.296875 178.398438 864.226562 177.792969 Z M 845.761719 227.539062 C 844.640625 220.207031 836.816406 215.832031 829.878906 215.746094 C 824.835938 215.230469 818.453125 218.484375 818.578125 224.171875 C 819.40625 232.046875 828.324219 236.644531 835.59375 236.199219 C 840.433594 236.253906 845.992188 232.894531 845.761719 227.539062 Z M 838.164062 163.152344 C 837.902344 160.011719 835.738281 157.101562 832.453125 156.371094 C 823.671875 154.425781 813.375 160.914062 812.417969 170.117188 C 812.121094 173.945312 815.324219 176.992188 818.894531 177.605469 C 826.527344 178.898438 834.804688 174.027344 837.550781 166.828125 C 838.078125 165.648438 838.265625 164.382812 838.164062 163.152344 Z M 825.925781 197.621094 C 825.34375 191.472656 821.644531 185.515625 816.628906 181.964844 C 810.820312 178.164062 804.191406 175.222656 797.230469 174.476562 C 792.15625 173.253906 786.847656 177.574219 787.300781 182.835938 C 787.707031 189.175781 792.554688 194.210938 793.457031 200.472656 C 794.765625 205.734375 792.429688 210.769531 791.058594 215.734375 C 789.6875 219.980469 790.878906 225.566406 795.46875 227.246094 C 800.101562 228.472656 804.65625 225.613281 808.453125 223.246094 C 814.535156 218.570312 820.917969 213.570312 824.332031 206.507812 C 825.746094 203.671875 826.207031 200.625 825.925781 197.621094 Z M 825.925781 197.621094 "/></g></g></g><g clip-rule="nonzero" clip-path="url(#89d9b99c0b)"><g clip-rule="nonzero" clip-path="url(#6b50122f6d)"><g clip-rule="nonzero" clip-path="url(#380797a8e1)"><path style=" stroke:none;fill-rule:nonzero;fill:#fe6892;fill-opacity:1;" d="M 1002.589844 259.902344 C 1002.550781 259.738281 1002.5 259.574219 1002.449219 259.40625 C 999.695312 252.984375 991.738281 250.992188 985.367188 251.945312 C 979.515625 252.515625 972.828125 256.746094 973.039062 263.273438 C 973.082031 264.214844 973.382812 265.132812 973.832031 265.957031 C 978.128906 272.851562 987.800781 274.089844 994.894531 271.257812 C 999.566406 269.8125 1003.875 265.003906 1002.589844 259.902344 Z M 995.523438 231.585938 C 994.429688 227.445312 989.433594 225.207031 985.304688 225.492188 C 977.109375 225.976562 968.1875 231.882812 967.652344 240.667969 C 967.667969 241.476562 967.839844 242.273438 968.144531 243.019531 C 970.386719 248.339844 977.15625 249.207031 982.113281 247.78125 C 988.6875 246.039062 995.515625 240.78125 995.738281 233.472656 C 995.753906 232.804688 995.679688 232.175781 995.523438 231.585938 Z M 984.269531 283.441406 C 982.125 276.339844 973.761719 273.117188 966.882812 274.011719 C 961.8125 274.210938 955.953125 278.332031 956.882812 283.949219 C 958.8125 291.625 968.292969 294.917969 975.425781 293.453125 C 980.226562 292.824219 985.253906 288.710938 984.269531 283.441406 Z M 967.65625 220.773438 C 966.953125 217.703125 964.398438 215.125 961.042969 214.867188 C 952.074219 214.179688 942.796875 222.058594 943.148438 231.304688 C 943.394531 235.136719 946.996094 237.699219 950.617188 237.800781 C 958.359375 238.003906 965.863281 232.015625 967.566406 224.5 C 967.917969 223.253906 967.929688 221.976562 967.652344 220.773438 Z M 960.40625 256.625 C 958.960938 250.621094 954.457031 245.246094 948.992188 242.4375 C 942.703125 239.496094 935.726562 237.519531 928.730469 237.761719 C 923.535156 237.273438 918.890625 242.296875 920.078125 247.441406 C 921.378906 253.664062 926.890625 257.964844 928.667969 264.03125 C 930.703125 269.058594 929.105469 274.371094 928.445312 279.480469 C 927.691406 283.878906 929.660156 289.238281 934.4375 290.253906 C 939.199219 290.8125 943.304688 287.339844 946.726562 284.460938 C 952.085938 278.972656 957.703125 273.121094 960.085938 265.648438 C 961.085938 262.640625 961.109375 259.558594 960.40625 256.625 Z M 960.40625 256.625 "/></g></g></g><g clip-rule="nonzero" clip-path="url(#49a016cc92)"><g clip-rule="nonzero" clip-path="url(#34f26e785e)"><g clip-rule="nonzero" clip-path="url(#e1e7fedc27)"><path style=" stroke:none;fill-rule:nonzero;fill:#fe6892;fill-opacity:1;" d="M 1001.394531 165.414062 C 1001.359375 165.246094 1001.316406 165.078125 1001.269531 164.914062 C 998.71875 158.40625 990.828125 156.164062 984.429688 156.917969 C 978.5625 157.300781 971.746094 161.320312 971.753906 167.847656 C 971.765625 168.792969 972.039062 169.722656 972.460938 170.558594 C 976.539062 177.585938 986.167969 179.128906 993.34375 176.519531 C 998.058594 175.21875 1002.519531 170.550781 1001.394531 165.414062 Z M 995.222656 136.886719 C 994.257812 132.714844 989.335938 130.320312 985.203125 130.476562 C 976.996094 130.699219 967.894531 136.324219 967.082031 145.089844 C 967.070312 145.894531 967.21875 146.699219 967.5 147.453125 C 969.574219 152.839844 976.3125 153.921875 981.3125 152.652344 C 987.933594 151.117188 994.925781 146.078125 995.378906 138.777344 C 995.414062 138.113281 995.359375 137.480469 995.222656 136.886719 Z M 982.34375 188.363281 C 980.421875 181.199219 972.164062 177.710938 965.261719 178.390625 C 960.1875 178.429688 954.203125 182.367188 954.953125 188.007812 C 956.640625 195.742188 966.015625 199.332031 973.1875 198.089844 C 978.003906 197.613281 983.160156 193.660156 982.34375 188.363281 Z M 967.710938 125.203125 C 967.101562 122.109375 964.632812 119.453125 961.285156 119.089844 C 952.34375 118.121094 942.824219 125.707031 942.882812 134.957031 C 943.011719 138.796875 946.527344 141.46875 950.144531 141.6875 C 957.875 142.132812 965.566406 136.382812 967.503906 128.921875 C 967.894531 127.691406 967.945312 126.414062 967.707031 125.203125 Z M 959.335938 160.808594 C 958.082031 154.761719 953.75 149.246094 948.375 146.265625 C 942.179688 143.128906 935.269531 140.933594 928.269531 140.957031 C 923.09375 140.304688 918.289062 145.179688 919.316406 150.359375 C 920.421875 156.621094 925.792969 161.089844 927.378906 167.214844 C 929.257812 172.300781 927.492188 177.5625 926.671875 182.648438 C 925.777344 187.019531 927.578125 192.4375 932.324219 193.601562 C 937.0625 194.3125 941.277344 190.972656 944.785156 188.199219 C 950.316406 182.882812 956.113281 177.210938 958.730469 169.816406 C 959.824219 166.84375 959.949219 163.761719 959.335938 160.808594 Z M 959.335938 160.808594 "/></g></g></g><g clip-rule="nonzero" clip-path="url(#76b05c5302)"><g clip-rule="nonzero" clip-path="url(#5c2ae27f35)"><g clip-rule="nonzero" clip-path="url(#9ee422d631)"><path style=" stroke:none;fill-rule:nonzero;fill:#fe6892;fill-opacity:1;" d="M 1118.320312 245.3125 C 1118.335938 245.144531 1118.347656 244.96875 1118.355469 244.796875 C 1117.964844 237.820312 1111.164062 233.226562 1104.851562 231.945312 C 1099.15625 230.480469 1091.425781 232.171875 1089.394531 238.378906 C 1089.113281 239.277344 1089.082031 240.246094 1089.222656 241.175781 C 1090.90625 249.121094 1099.574219 253.589844 1107.207031 253.351562 C 1112.089844 253.589844 1117.78125 250.542969 1118.320312 245.3125 Z M 1121.355469 216.28125 C 1121.742188 212.019531 1117.808594 208.207031 1113.832031 207.066406 C 1105.964844 204.71875 1095.5625 207.222656 1092.058594 215.296875 C 1091.796875 216.058594 1091.6875 216.867188 1091.71875 217.675781 C 1092.007812 223.4375 1098.070312 226.566406 1103.21875 226.921875 C 1109.988281 227.53125 1118.203125 224.921875 1120.910156 218.128906 C 1121.15625 217.507812 1121.296875 216.890625 1121.355469 216.28125 Z M 1093.058594 261.171875 C 1093.46875 253.765625 1086.710938 247.875 1079.9375 246.367188 C 1075.109375 244.820312 1068.191406 246.695312 1067.148438 252.289062 C 1066.335938 260.164062 1074.121094 266.5 1081.324219 267.554688 C 1086.050781 268.605469 1092.179688 266.457031 1093.058594 261.171875 Z M 1098.859375 196.597656 C 1099.246094 193.472656 1097.726562 190.175781 1094.664062 188.789062 C 1086.46875 185.078125 1075.058594 189.3125 1072.230469 198.121094 C 1071.152344 201.808594 1073.660156 205.445312 1077.027344 206.78125 C 1084.234375 209.613281 1093.335938 206.550781 1097.503906 200.070312 C 1098.257812 199.023438 1098.707031 197.820312 1098.859375 196.597656 Z M 1079.792969 227.816406 C 1080.488281 221.679688 1078.09375 215.085938 1073.917969 210.578125 C 1069.011719 205.664062 1063.128906 201.425781 1056.472656 199.261719 C 1051.757812 197.027344 1045.671875 200.160156 1045.035156 205.402344 C 1044.128906 211.695312 1047.835938 217.617188 1047.4375 223.929688 C 1047.632812 229.347656 1044.3125 233.796875 1041.949219 238.375 C 1039.734375 242.246094 1039.753906 247.957031 1043.898438 250.542969 C 1048.179688 252.695312 1053.226562 250.835938 1057.425781 249.300781 C 1064.339844 245.972656 1071.617188 242.394531 1076.410156 236.183594 C 1078.375 233.699219 1079.453125 230.8125 1079.792969 227.816406 Z M 1079.792969 227.816406 "/></g></g></g><g clip-rule="nonzero" clip-path="url(#8834042e32)"><g clip-rule="nonzero" clip-path="url(#c584f335ad)"><g clip-rule="nonzero" clip-path="url(#9f2e9f6932)"><path style=" stroke:none;fill-rule:nonzero;fill:#fe6892;fill-opacity:1;" d="M 1163.058594 162.929688 C 1163.085938 162.761719 1163.109375 162.589844 1163.125 162.417969 C 1163.191406 155.433594 1156.707031 150.40625 1150.488281 148.714844 C 1144.902344 146.882812 1137.078125 148.066406 1134.648438 154.125 C 1134.308594 155.003906 1134.214844 155.96875 1134.292969 156.902344 C 1135.453125 164.945312 1143.808594 169.96875 1151.441406 170.226562 C 1156.300781 170.785156 1162.179688 168.117188 1163.058594 162.929688 Z M 1167.980469 134.160156 C 1168.644531 129.929688 1164.96875 125.871094 1161.078125 124.472656 C 1153.378906 121.617188 1142.835938 123.4375 1138.8125 131.265625 C 1138.5 132.011719 1138.335938 132.808594 1138.316406 133.617188 C 1138.230469 139.386719 1144.074219 142.902344 1149.1875 143.59375 C 1155.90625 144.644531 1164.273438 142.578125 1167.417969 135.976562 C 1167.699219 135.371094 1167.882812 134.765625 1167.980469 134.160156 Z M 1136.816406 177.109375 C 1137.707031 169.746094 1131.347656 163.425781 1124.6875 161.476562 C 1119.96875 159.621094 1112.945312 161.039062 1111.539062 166.554688 C 1110.214844 174.359375 1117.570312 181.1875 1124.691406 182.714844 C 1129.335938 184.070312 1135.59375 182.328125 1136.816406 177.109375 Z M 1146.816406 113.050781 C 1147.410156 109.957031 1146.105469 106.570312 1143.140625 104.984375 C 1135.207031 100.746094 1123.542969 104.226562 1120.144531 112.832031 C 1118.828125 116.441406 1121.09375 120.234375 1124.367188 121.785156 C 1131.375 125.085938 1140.65625 122.621094 1145.238281 116.425781 C 1146.0625 115.429688 1146.585938 114.261719 1146.816406 113.050781 Z M 1125.753906 142.957031 C 1126.847656 136.878906 1124.890625 130.144531 1121.015625 125.375 C 1116.441406 120.152344 1110.851562 115.535156 1104.347656 112.945312 C 1099.789062 110.40625 1093.511719 113.136719 1092.53125 118.324219 C 1091.21875 124.542969 1094.535156 130.695312 1093.71875 136.96875 C 1093.5625 142.386719 1089.960938 146.609375 1087.300781 151.023438 C 1084.839844 154.746094 1084.484375 160.441406 1088.453125 163.292969 C 1092.585938 165.722656 1097.742188 164.195312 1102.035156 162.9375 C 1109.148438 160.066406 1116.644531 156.972656 1121.832031 151.085938 C 1123.957031 148.738281 1125.222656 145.925781 1125.753906 142.957031 Z M 1125.753906 142.957031 "/></g></g></g><g clip-rule="nonzero" clip-path="url(#e7b637c529)"><g clip-rule="nonzero" clip-path="url(#b918002788)"><g clip-rule="nonzero" clip-path="url(#10595cf14a)"><path style=" stroke:none;fill-rule:nonzero;fill:#fe6892;fill-opacity:1;" d="M 1212.207031 318.851562 C 1212.3125 318.714844 1212.410156 318.574219 1212.507812 318.429688 C 1215.808594 312.273438 1212.402344 304.808594 1207.679688 300.425781 C 1203.582031 296.207031 1196.105469 293.621094 1191.136719 297.859375 C 1190.425781 298.480469 1189.898438 299.289062 1189.535156 300.15625 C 1186.828125 307.816406 1191.894531 316.144531 1198.535156 319.917969 C 1202.578125 322.667969 1209.023438 323.035156 1212.207031 318.851562 Z M 1229.929688 295.65625 C 1232.480469 292.21875 1231.113281 286.917969 1228.3125 283.871094 C 1222.820312 277.769531 1212.640625 274.484375 1205.441406 279.546875 C 1204.820312 280.0625 1204.304688 280.695312 1203.910156 281.398438 C 1201.152344 286.46875 1204.699219 292.300781 1208.90625 295.285156 C 1214.367188 299.332031 1222.734375 301.390625 1228.585938 297.003906 C 1229.121094 296.597656 1229.5625 296.148438 1229.929688 295.65625 Z M 1182.382812 319.222656 C 1186.59375 313.113281 1183.894531 304.5625 1178.902344 299.746094 C 1175.585938 295.910156 1168.707031 293.90625 1164.898438 298.132812 C 1160.101562 304.433594 1163.445312 313.898438 1169.042969 318.554688 C 1172.527344 321.914062 1178.878906 323.273438 1182.382812 319.222656 Z M 1220.988281 267.132812 C 1222.949219 264.667969 1223.371094 261.0625 1221.480469 258.28125 C 1216.417969 250.84375 1204.472656 248.511719 1197.46875 254.554688 C 1194.628906 257.140625 1194.871094 261.550781 1197.050781 264.445312 C 1201.722656 270.621094 1211.089844 272.75 1218.023438 269.386719 C 1219.214844 268.890625 1220.222656 268.097656 1220.988281 267.132812 Z M 1188.449219 283.839844 C 1192.238281 278.964844 1193.632812 272.089844 1192.417969 266.066406 C 1190.789062 259.316406 1187.980469 252.632812 1183.425781 247.316406 C 1180.566406 242.949219 1173.742188 242.453125 1170.464844 246.59375 C 1166.414062 251.492188 1166.492188 258.480469 1162.855469 263.660156 C 1160.203125 268.386719 1155.050781 270.453125 1150.648438 273.125 C 1146.738281 275.277344 1143.777344 280.160156 1145.96875 284.527344 C 1148.5 288.597656 1153.777344 289.640625 1158.160156 290.515625 C 1165.796875 291.28125 1173.871094 292.019531 1181.199219 289.21875 C 1184.171875 288.125 1186.597656 286.21875 1188.449219 283.839844 Z M 1188.449219 283.839844 "/></g></g></g><g clip-rule="nonzero" clip-path="url(#adf9c5d73e)"><g clip-rule="nonzero" clip-path="url(#5bb0c2c838)"><g clip-rule="nonzero" clip-path="url(#fcda19cab0)"><path style=" stroke:none;fill-rule:nonzero;fill:#fe6892;fill-opacity:1;" d="M 1257.734375 217.09375 C 1257.871094 216.992188 1258.007812 216.886719 1258.140625 216.773438 C 1263.050781 211.804688 1261.898438 203.683594 1258.613281 198.140625 C 1255.878906 192.933594 1249.4375 188.335938 1243.476562 190.992188 C 1242.617188 191.386719 1241.878906 192.011719 1241.285156 192.742188 C 1236.519531 199.320312 1239.019531 208.742188 1244.316406 214.246094 C 1247.417969 218.027344 1253.496094 220.207031 1257.734375 217.09375 Z M 1281.300781 199.871094 C 1284.722656 197.296875 1284.910156 191.828125 1283.089844 188.113281 C 1279.554688 180.703125 1270.71875 174.667969 1262.378906 177.484375 C 1261.636719 177.800781 1260.964844 178.261719 1260.386719 178.824219 C 1256.308594 182.90625 1258.054688 189.503906 1261.246094 193.558594 C 1265.335938 198.988281 1272.777344 203.332031 1279.632812 200.78125 C 1280.257812 200.546875 1280.8125 200.238281 1281.300781 199.871094 Z M 1229.027344 209 C 1234.792969 204.332031 1234.628906 195.371094 1231.207031 189.335938 C 1229.113281 184.71875 1223.085938 180.84375 1218.234375 183.820312 C 1211.847656 188.503906 1212.375 198.527344 1216.421875 204.578125 C 1218.8125 208.785156 1224.519531 211.894531 1229.027344 209 Z M 1280.808594 169.984375 C 1283.386719 168.175781 1284.8125 164.839844 1283.789062 161.632812 C 1281.042969 153.066406 1270.246094 147.445312 1261.816406 151.253906 C 1258.359375 152.929688 1257.34375 157.230469 1258.613281 160.625 C 1261.34375 167.871094 1269.722656 172.5625 1277.324219 171.304688 C 1278.609375 171.164062 1279.800781 170.691406 1280.808594 169.984375 Z M 1244.867188 176.785156 C 1249.886719 173.183594 1253.167969 166.988281 1253.710938 160.867188 C 1254.0625 153.929688 1253.261719 146.726562 1250.398438 140.335938 C 1248.898438 135.339844 1242.492188 132.929688 1238.171875 135.972656 C 1232.902344 139.519531 1230.996094 146.246094 1226.042969 150.179688 C 1222.160156 153.960938 1216.632812 154.484375 1211.652344 155.800781 C 1207.292969 156.757812 1203.070312 160.597656 1203.933594 165.410156 C 1205.210938 170.027344 1209.972656 172.523438 1213.929688 174.609375 C 1221.035156 177.503906 1228.570312 180.5 1236.390625 179.890625 C 1239.554688 179.683594 1242.417969 178.542969 1244.867188 176.785156 Z M 1244.867188 176.785156 "/></g></g></g><g clip-rule="nonzero" clip-path="url(#6c88b2f6b4)"><g clip-rule="nonzero" clip-path="url(#a8810adbf0)"><g clip-rule="nonzero" clip-path="url(#2e28d1a038)"><path style=" stroke:none;fill-rule:nonzero;fill:#fe6892;fill-opacity:1;" d="M 1276.875 399.183594 C 1277.023438 399.105469 1277.175781 399.019531 1277.324219 398.929688 C 1282.9375 394.773438 1283.046875 386.566406 1280.648438 380.589844 C 1278.746094 375.023438 1273.085938 369.492188 1266.785156 371.203125 C 1265.878906 371.464844 1265.050781 371.96875 1264.351562 372.597656 C 1258.636719 378.367188 1259.660156 388.0625 1264.050781 394.3125 C 1266.535156 398.523438 1272.207031 401.609375 1276.875 399.183594 Z M 1302.800781 385.777344 C 1306.578125 383.757812 1307.601562 378.382812 1306.371094 374.433594 C 1304.015625 366.566406 1296.210938 359.25 1287.539062 360.753906 C 1286.753906 360.953125 1286.019531 361.304688 1285.363281 361.773438 C 1280.703125 365.183594 1281.421875 371.96875 1283.949219 376.464844 C 1287.160156 382.457031 1293.847656 387.890625 1301.015625 386.421875 C 1301.667969 386.285156 1302.261719 386.066406 1302.800781 385.777344 Z M 1249.746094 386.78125 C 1256.160156 383.054688 1257.371094 374.175781 1254.917969 367.6875 C 1253.554688 362.800781 1248.191406 358.050781 1242.941406 360.25 C 1235.914062 363.898438 1234.894531 373.882812 1237.96875 380.484375 C 1239.6875 385.007812 1244.847656 388.953125 1249.746094 386.78125 Z M 1306.898438 356.167969 C 1309.722656 354.777344 1311.644531 351.695312 1311.121094 348.375 C 1309.722656 339.488281 1299.917969 332.277344 1291.003906 334.75 C 1287.328125 335.875 1285.664062 339.96875 1286.398438 343.515625 C 1287.988281 351.09375 1295.546875 357.015625 1303.253906 356.941406 C 1304.542969 357 1305.792969 356.710938 1306.898438 356.167969 Z M 1270.339844 357.378906 C 1275.851562 354.589844 1280.042969 348.96875 1281.515625 343.003906 C 1282.929688 336.203125 1283.242188 328.960938 1281.394531 322.207031 C 1280.671875 317.039062 1274.710938 313.675781 1269.980469 316.019531 C 1264.226562 318.71875 1261.3125 325.074219 1255.816406 328.203125 C 1251.398438 331.34375 1245.855469 331.011719 1240.734375 331.550781 C 1236.28125 331.828125 1231.519531 334.976562 1231.632812 339.863281 C 1232.1875 344.625 1236.511719 347.816406 1240.101562 350.484375 C 1246.679688 354.4375 1253.664062 358.550781 1261.488281 359.148438 C 1264.644531 359.425781 1267.648438 358.742188 1270.339844 357.378906 Z M 1270.339844 357.378906 "/></g></g></g><g clip-rule="nonzero" clip-path="url(#390324a00c)"><g clip-rule="nonzero" clip-path="url(#e6a0099265)"><g clip-rule="nonzero" clip-path="url(#26f468731b)"><path style=" stroke:none;fill-rule:nonzero;fill:#fe6892;fill-opacity:1;" d="M 1333.582031 307.910156 C 1333.742188 307.867188 1333.910156 307.816406 1334.074219 307.757812 C 1340.457031 304.921875 1342.347656 296.9375 1341.308594 290.578125 C 1340.65625 284.734375 1336.335938 278.105469 1329.816406 278.40625 C 1328.875 278.460938 1327.957031 278.773438 1327.140625 279.234375 C 1320.304688 283.625 1319.195312 293.3125 1322.125 300.367188 C 1323.632812 305.015625 1328.5 309.261719 1333.582031 307.910156 Z M 1361.800781 300.460938 C 1365.925781 299.3125 1368.097656 294.285156 1367.753906 290.164062 C 1367.160156 281.972656 1361.136719 273.132812 1352.34375 272.714844 C 1351.535156 272.742188 1350.742188 272.925781 1350 273.242188 C 1344.710938 275.554688 1343.933594 282.332031 1345.425781 287.269531 C 1347.257812 293.820312 1352.605469 300.574219 1359.917969 300.699219 C 1360.585938 300.707031 1361.210938 300.625 1361.800781 300.460938 Z M 1309.796875 289.90625 C 1316.867188 287.664062 1319.984375 279.257812 1318.996094 272.390625 C 1318.726562 267.328125 1314.527344 261.523438 1308.921875 262.527344 C 1301.273438 264.5625 1298.105469 274.085938 1299.671875 281.199219 C 1300.363281 285.988281 1304.542969 290.960938 1309.796875 289.90625 Z M 1372.238281 272.449219 C 1375.300781 271.707031 1377.839844 269.117188 1378.054688 265.761719 C 1378.621094 256.78125 1370.617188 247.613281 1361.378906 248.089844 C 1357.550781 248.386719 1355.035156 252.019531 1354.980469 255.644531 C 1354.882812 263.386719 1360.972656 270.8125 1368.511719 272.410156 C 1369.757812 272.75 1371.039062 272.742188 1372.238281 272.449219 Z M 1336.289062 265.683594 C 1342.277344 264.160156 1347.589844 259.585938 1350.324219 254.082031 C 1353.183594 247.753906 1355.0625 240.75 1354.726562 233.757812 C 1355.148438 228.558594 1350.058594 223.976562 1344.933594 225.238281 C 1338.730469 226.621094 1334.503906 232.1875 1328.457031 234.046875 C 1323.460938 236.152344 1318.125 234.625 1313.007812 234.035156 C 1308.601562 233.339844 1303.269531 235.378906 1302.316406 240.171875 C 1301.824219 244.9375 1305.347656 248.996094 1308.273438 252.378906 C 1313.835938 257.667969 1319.761719 263.203125 1327.265625 265.484375 C 1330.285156 266.445312 1333.367188 266.429688 1336.289062 265.683594 Z M 1336.289062 265.683594 "/></g></g></g><g clip-rule="nonzero" clip-path="url(#c4f4902a72)"><g clip-rule="nonzero" clip-path="url(#816a62486d)"><g clip-rule="nonzero" clip-path="url(#595c7ad25d)"><path style=" stroke:none;fill-rule:nonzero;fill:#fe6892;fill-opacity:1;" d="M 1385.433594 429.90625 C 1385.597656 429.863281 1385.765625 429.8125 1385.929688 429.757812 C 1392.3125 426.921875 1394.199219 418.933594 1393.160156 412.578125 C 1392.511719 406.734375 1388.191406 400.101562 1381.667969 400.402344 C 1380.726562 400.460938 1379.8125 400.773438 1378.992188 401.234375 C 1372.15625 405.625 1371.050781 415.3125 1373.976562 422.363281 C 1375.484375 427.015625 1380.351562 431.257812 1385.433594 429.90625 Z M 1413.65625 422.460938 C 1417.78125 421.308594 1419.949219 416.285156 1419.609375 412.160156 C 1419.015625 403.972656 1412.988281 395.132812 1404.195312 394.714844 C 1403.390625 394.742188 1402.59375 394.925781 1401.851562 395.238281 C 1396.5625 397.550781 1395.789062 404.332031 1397.28125 409.269531 C 1399.109375 415.816406 1404.457031 422.574219 1411.769531 422.699219 C 1412.4375 422.707031 1413.066406 422.621094 1413.65625 422.457031 Z M 1361.652344 411.90625 C 1368.722656 409.664062 1371.835938 401.257812 1370.847656 394.390625 C 1370.582031 389.324219 1366.378906 383.523438 1360.777344 384.527344 C 1353.125 386.558594 1349.960938 396.085938 1351.523438 403.195312 C 1352.21875 407.984375 1356.398438 412.957031 1361.652344 411.90625 Z M 1424.089844 394.449219 C 1427.152344 393.703125 1429.695312 391.117188 1429.910156 387.757812 C 1430.472656 378.78125 1422.46875 369.609375 1413.230469 370.085938 C 1409.402344 370.386719 1406.886719 374.019531 1406.835938 377.640625 C 1406.738281 385.386719 1412.828125 392.808594 1420.363281 394.410156 C 1421.613281 394.746094 1422.894531 394.738281 1424.089844 394.449219 Z M 1388.144531 387.683594 C 1394.128906 386.15625 1399.445312 381.582031 1402.179688 376.082031 C 1405.035156 369.75 1406.917969 362.75 1406.578125 355.757812 C 1407 350.554688 1401.914062 345.976562 1396.785156 347.234375 C 1390.582031 348.621094 1386.355469 354.1875 1380.3125 356.046875 C 1375.316406 358.152344 1369.980469 356.621094 1364.859375 356.035156 C 1360.453125 355.335938 1355.121094 357.375 1354.171875 362.167969 C 1353.675781 366.9375 1357.203125 370.996094 1360.128906 374.378906 C 1365.6875 379.664062 1371.613281 385.199219 1379.121094 387.484375 C 1382.136719 388.441406 1385.222656 388.425781 1388.144531 387.683594 Z M 1388.144531 387.683594 "/></g></g></g><g clip-rule="nonzero" clip-path="url(#1af5d3686b)"><g clip-rule="nonzero" clip-path="url(#500eb6107b)"><g clip-rule="nonzero" clip-path="url(#17ba99aaa5)"><path style=" stroke:none;fill-rule:nonzero;fill:#fe6892;fill-opacity:1;" d="M 1314.96875 500.992188 C 1315.117188 500.910156 1315.265625 500.820312 1315.410156 500.726562 C 1320.882812 496.382812 1320.714844 488.179688 1318.121094 482.28125 C 1316.03125 476.785156 1310.1875 471.445312 1303.949219 473.367188 C 1303.050781 473.65625 1302.242188 474.191406 1301.566406 474.839844 C 1296.046875 480.800781 1297.394531 490.457031 1301.992188 496.554688 C 1304.617188 500.679688 1310.386719 503.574219 1314.96875 500.992188 Z M 1340.433594 486.726562 C 1344.140625 484.582031 1344.984375 479.175781 1343.625 475.269531 C 1341.003906 467.488281 1332.957031 460.433594 1324.339844 462.226562 C 1323.566406 462.457031 1322.839844 462.832031 1322.199219 463.320312 C 1317.660156 466.882812 1318.601562 473.640625 1321.28125 478.050781 C 1324.691406 483.933594 1331.558594 489.136719 1338.667969 487.429688 C 1339.316406 487.269531 1339.902344 487.03125 1340.433594 486.726562 Z M 1287.441406 489.507812 C 1293.730469 485.570312 1294.640625 476.652344 1291.96875 470.25 C 1290.445312 465.414062 1284.925781 460.84375 1279.753906 463.21875 C 1272.851562 467.097656 1272.167969 477.113281 1275.460938 483.605469 C 1277.328125 488.070312 1282.617188 491.839844 1287.441406 489.507812 Z M 1343.535156 456.996094 C 1346.316406 455.511719 1348.128906 452.367188 1347.496094 449.066406 C 1345.800781 440.230469 1335.757812 433.351562 1326.933594 436.121094 C 1323.296875 437.371094 1321.773438 441.515625 1322.625 445.039062 C 1324.46875 452.558594 1332.222656 458.226562 1339.917969 457.890625 C 1341.210938 457.90625 1342.449219 457.578125 1343.535156 456.996094 Z M 1307.039062 459.429688 C 1312.453125 456.457031 1316.457031 450.699219 1317.730469 444.6875 C 1318.914062 437.847656 1318.984375 430.597656 1316.910156 423.910156 C 1316.015625 418.769531 1309.945312 415.609375 1305.296875 418.109375 C 1299.636719 421 1296.933594 427.445312 1291.546875 430.757812 C 1287.234375 434.042969 1281.6875 433.898438 1276.582031 434.609375 C 1272.140625 435.035156 1267.488281 438.34375 1267.769531 443.222656 C 1268.480469 447.960938 1272.910156 451.007812 1276.585938 453.554688 C 1283.292969 457.28125 1290.414062 461.160156 1298.25 461.496094 C 1301.414062 461.667969 1304.394531 460.882812 1307.039062 459.429688 Z M 1307.039062 459.429688 "/></g></g></g><g clip-rule="nonzero" clip-path="url(#f938fbca72)"><g clip-rule="nonzero" clip-path="url(#d42bd91961)"><g clip-rule="nonzero" clip-path="url(#0865e67d2c)"><path style=" stroke:none;fill-rule:nonzero;fill:#fe6892;fill-opacity:1;" d="M 1400.292969 580.660156 C 1400.390625 580.523438 1400.488281 580.375 1400.578125 580.226562 C 1403.636719 573.945312 1399.9375 566.621094 1395.050781 562.425781 C 1390.792969 558.371094 1383.214844 556.078125 1378.421875 560.507812 C 1377.734375 561.15625 1377.238281 561.988281 1376.90625 562.867188 C 1374.503906 570.625 1379.890625 578.75 1386.671875 582.261719 C 1390.820312 584.851562 1397.277344 584.96875 1400.292969 580.660156 Z M 1417.09375 556.792969 C 1419.511719 553.257812 1417.9375 548.015625 1415.019531 545.082031 C 1409.296875 539.195312 1398.992188 536.308594 1391.996094 541.652344 C 1391.398438 542.191406 1390.90625 542.84375 1390.539062 543.5625 C 1387.984375 548.738281 1391.753906 554.421875 1396.074219 557.242188 C 1401.691406 561.074219 1410.132812 562.800781 1415.808594 558.191406 C 1416.324219 557.765625 1416.75 557.296875 1417.09375 556.792969 Z M 1370.507812 582.195312 C 1374.472656 575.929688 1371.445312 567.492188 1366.269531 562.871094 C 1362.804688 559.167969 1355.851562 557.433594 1352.210938 561.808594 C 1347.664062 568.289062 1351.375 577.617188 1357.152344 582.050781 C 1360.765625 585.269531 1367.164062 586.382812 1370.507812 582.195312 Z M 1407.050781 528.640625 C 1408.914062 526.101562 1409.191406 522.484375 1407.195312 519.777344 C 1401.847656 512.542969 1389.820312 510.675781 1383.054688 516.988281 C 1380.316406 519.683594 1380.734375 524.082031 1383.023438 526.890625 C 1387.933594 532.875 1397.375 534.636719 1404.171875 531.007812 C 1405.34375 530.464844 1406.320312 529.632812 1407.046875 528.640625 Z M 1375.183594 546.605469 C 1378.785156 541.585938 1379.90625 534.664062 1378.457031 528.691406 C 1376.566406 522.007812 1373.5 515.4375 1368.738281 510.304688 C 1365.714844 506.054688 1358.875 505.824219 1355.761719 510.089844 C 1351.90625 515.144531 1352.253906 522.121094 1348.824219 527.4375 C 1346.355469 532.265625 1341.289062 534.53125 1336.996094 537.375 C 1333.171875 539.679688 1330.40625 544.671875 1332.765625 548.953125 C 1335.453125 552.917969 1340.765625 553.753906 1345.183594 554.460938 C 1352.839844 554.925781 1360.9375 555.347656 1368.152344 552.261719 C 1371.078125 551.050781 1373.429688 549.054688 1375.183594 546.605469 Z M 1375.183594 546.605469 "/></g></g></g><g clip-rule="nonzero" clip-path="url(#fb35a5e677)"><g clip-rule="nonzero" clip-path="url(#83f9b87dea)"><g clip-rule="nonzero" clip-path="url(#165656c92f)"><path style=" stroke:none;fill-rule:nonzero;fill:#fe6892;fill-opacity:1;" d="M 1482.601562 518.144531 C 1482.683594 517.996094 1482.761719 517.839844 1482.832031 517.683594 C 1485.144531 511.089844 1480.625 504.242188 1475.285156 500.636719 C 1470.585938 497.101562 1462.796875 495.703125 1458.546875 500.65625 C 1457.9375 501.378906 1457.539062 502.261719 1457.316406 503.171875 C 1455.824219 511.15625 1462.113281 518.605469 1469.257812 521.3125 C 1473.675781 523.402344 1480.101562 522.769531 1482.601562 518.144531 Z M 1496.53125 492.496094 C 1498.523438 488.703125 1496.351562 483.679688 1493.117188 481.101562 C 1486.75 475.917969 1476.183594 474.242188 1469.851562 480.355469 C 1469.316406 480.960938 1468.902344 481.667969 1468.625 482.421875 C 1466.683594 487.859375 1471.085938 493.070312 1475.703125 495.371094 C 1481.722656 498.527344 1490.308594 499.269531 1495.414062 494.03125 C 1495.878906 493.550781 1496.246094 493.035156 1496.53125 492.496094 Z M 1453.191406 523.113281 C 1456.410156 516.429688 1452.421875 508.398438 1446.75 504.410156 C 1442.878906 501.132812 1435.773438 500.210938 1432.664062 504.976562 C 1428.898438 511.941406 1433.660156 520.777344 1439.910156 524.511719 C 1443.871094 527.292969 1450.355469 527.660156 1453.191406 523.113281 Z M 1483.296875 465.691406 C 1484.855469 462.953125 1484.714844 459.328125 1482.417969 456.871094 C 1476.269531 450.300781 1464.105469 449.84375 1458.117188 456.890625 C 1455.710938 459.886719 1456.632812 464.207031 1459.230469 466.730469 C 1464.800781 472.109375 1474.382812 472.769531 1480.714844 468.378906 C 1481.816406 467.699219 1482.6875 466.761719 1483.296875 465.691406 Z M 1453.722656 487.21875 C 1456.71875 481.816406 1457.03125 474.8125 1454.902344 469.046875 C 1452.253906 462.628906 1448.445312 456.457031 1443.125 451.910156 C 1439.628906 448.035156 1432.804688 448.601562 1430.207031 453.195312 C 1426.960938 458.660156 1428.117188 465.554688 1425.324219 471.230469 C 1423.429688 476.308594 1418.660156 479.144531 1414.722656 482.46875 C 1411.191406 485.199219 1409.023438 490.476562 1411.859375 494.457031 C 1414.988281 498.085938 1420.363281 498.300781 1424.832031 498.492188 C 1432.492188 498.070312 1440.585938 497.550781 1447.390625 493.652344 C 1450.160156 492.113281 1452.261719 489.859375 1453.722656 487.21875 Z M 1453.722656 487.21875 "/></g></g></g></g></svg>