<svg xmlns="http://www.w3.org/2000/svg" xmlns:xlink="http://www.w3.org/1999/xlink" width="200" zoomAndPan="magnify" viewBox="0 0 150 157.92" height="200" preserveAspectRatio="xMidYMid meet" version="1.2"><defs><clipPath id="af8140fd6b"><path d="M 4 8 L 143 8 L 143 135 L 4 135 Z M 4 8 "/></clipPath><clipPath id="ab1e92d7a3"><path d="M -9.441406 67.910156 L 124.375 -10.648438 L 184.714844 92.140625 L 50.898438 170.695312 Z M -9.441406 67.910156 "/></clipPath><clipPath id="c7326209be"><path d="M -9.441406 67.910156 L 124.375 -10.648438 L 184.714844 92.140625 L 50.898438 170.695312 Z M -9.441406 67.910156 "/></clipPath></defs><g id="857f02dce9"><g clip-rule="nonzero" clip-path="url(#af8140fd6b)"><g clip-rule="nonzero" clip-path="url(#ab1e92d7a3)"><g clip-rule="nonzero" clip-path="url(#c7326209be)"><path style=" stroke:none;fill-rule:nonzero;fill:#f45783;fill-opacity:1;" d="M 132.527344 24.777344 L 132.523438 24.78125 C 121.058594 8.945312 99.21875 4.117188 82.011719 14.21875 C 69.464844 21.585938 62.644531 34.972656 63.066406 48.554688 C 51.40625 41.570312 36.394531 40.996094 23.851562 48.363281 C 7.808594 57.777344 1.128906 77.042969 6.976562 93.972656 L 6.980469 93.980469 C 7.796875 96.351562 8.859375 98.671875 10.175781 100.917969 C 12.011719 104.046875 14.230469 106.8125 16.726562 109.207031 C 46.699219 141.800781 113.460938 133.632812 113.460938 133.632812 C 163.871094 57.027344 132.527344 24.777344 132.527344 24.777344 "/></g></g></g></g></svg>