<svg id="visual" viewBox="0 0 900 600" width="900" height="600" xmlns="http://www.w3.org/2000/svg" xmlns:xlink="http://www.w3.org/1999/xlink" version="1.1"><rect x="0" y="0" width="900" height="600" fill="#FFF3E0"></rect><path d="M0 571L7.8 563C15.7 555 31.3 539 47.2 536.2C63 533.3 79 543.7 94.8 550.5C110.7 557.3 126.3 560.7 142 554.8C157.7 549 173.3 534 189.2 524C205 514 221 509 236.8 508.5C252.7 508 268.3 512 284.2 512.2C300 512.3 316 508.7 331.8 516C347.7 523.3 363.3 541.7 379 552.3C394.7 563 410.3 566 426.2 560.2C442 554.3 458 539.7 473.8 533.3C489.7 527 505.3 529 521 527.2C536.7 525.3 552.3 519.7 568.2 523.3C584 527 600 540 615.8 549.3C631.7 558.7 647.3 564.3 663.2 566.8C679 569.3 695 568.7 710.8 560.7C726.7 552.7 742.3 537.3 758 535.3C773.7 533.3 789.3 544.7 805.2 551.2C821 557.7 837 559.3 852.8 551C868.7 542.7 884.3 524.3 892.2 515.2L900 506L900 601L892.2 601C884.3 601 868.7 601 852.8 601C837 601 821 601 805.2 601C789.3 601 773.7 601 758 601C742.3 601 726.7 601 710.8 601C695 601 679 601 663.2 601C647.3 601 631.7 601 615.8 601C600 601 584 601 568.2 601C552.3 601 536.7 601 521 601C505.3 601 489.7 601 473.8 601C458 601 442 601 426.2 601C410.3 601 394.7 601 379 601C363.3 601 347.7 601 331.8 601C316 601 300 601 284.2 601C268.3 601 252.7 601 236.8 601C221 601 205 601 189.2 601C173.3 601 157.7 601 142 601C126.3 601 110.7 601 94.8 601C79 601 63 601 47.2 601C31.3 601 15.7 601 7.8 601L0 601Z" fill="#FF4F8B" stroke-linecap="round" stroke-linejoin="miter"></path></svg>