<svg width="659" height="226" viewBox="0 0 659 226" fill="none" xmlns="http://www.w3.org/2000/svg">
<path d="M544.261 223.708C542.245 224.002 540.187 224.506 538.213 224.128C536.953 223.918 536.029 223.33 535.273 222.322C534.769 221.608 534.475 220.726 534.265 219.886C533.719 217.45 533.425 214.972 533.047 212.536C532.543 209.26 532.165 205.942 532.123 202.624C532.081 200.986 532.039 199.39 532.249 197.794C532.417 196.576 532.627 195.274 533.257 194.224C533.761 193.385 534.559 192.671 535.441 192.251C536.533 191.747 537.709 191.411 538.927 191.243C541.237 190.949 543.547 191.159 545.857 191.033C548.209 190.949 550.561 190.697 552.955 190.739C553.123 190.739 553.333 190.739 553.543 190.739C553.585 190.739 553.669 190.739 553.711 190.739C554.089 190.739 555.811 190.823 556.188 190.907C556.566 190.991 556.986 191.033 557.322 191.243C558.372 191.915 559.128 193.175 559.338 194.392C559.59 195.694 559.38 197.164 558.876 198.424C558.582 199.054 558.078 199.6 557.49 200.02C556.818 200.482 556.021 200.776 555.223 201.028C553.207 201.658 551.065 201.742 548.923 201.742C547.495 201.742 546.067 201.616 544.639 201.742C544.555 201.742 544.261 201.784 544.219 201.784C544.093 201.784 543.967 201.742 543.841 201.742C543.799 202.456 543.841 203.17 544.009 203.842C545.731 203.548 549.259 203.38 550.351 203.59C552.913 204.052 554.131 207.076 552.577 209.176C551.695 210.394 550.057 210.94 548.587 211.108C547.915 211.192 545.941 211.234 544.597 211.108C544.723 211.318 544.681 211.57 544.681 211.822C544.681 212.326 544.765 212.788 544.807 213.292C544.891 213.25 544.975 213.208 545.059 213.208C545.269 213.208 545.437 213.25 545.647 213.25C547.915 213.418 550.141 212.746 552.409 212.62C554.089 212.494 555.853 212.452 557.364 213.208C558.498 213.754 559.254 215.014 559.632 216.232C559.968 217.282 559.884 218.458 559.674 219.508C559.506 220.222 559.296 220.978 558.834 221.524C558.288 222.154 557.49 222.616 556.692 222.868C556.021 223.078 555.265 223.12 554.509 223.12C554.215 223.12 552.409 223.246 552.115 223.246C549.469 223.372 546.823 223.372 544.261 223.708Z" fill="#2F3655"/>
<path d="M450.693 222.742C448.593 226.438 442.503 226.396 440.109 222.994C439.479 222.112 439.143 221.062 438.891 219.97C437.337 213.67 436.707 205.9 436.12 200.651C435.406 193.595 441.789 187.715 448.089 194.519C449.559 196.115 450.693 198.005 451.911 199.853C454.053 203.213 456.321 206.614 459.135 209.47C458.589 205.732 457.287 199.643 457.035 195.905C456.531 187.925 469.299 187.253 470.223 196.073C470.685 200.399 470.517 207.286 470.517 211.612C470.559 218.29 467.451 225.346 459.933 222.574C458.589 222.07 457.287 221.23 456.279 220.222C453.843 217.744 452.289 214.552 450.651 211.528C450.357 210.94 450.021 210.352 449.727 209.764C450.357 211.948 450.945 214.174 451.365 216.442C451.743 218.5 451.785 220.894 450.693 222.742Z" fill="#2F3655"/>
<path d="M371.501 221.734C369.065 226.48 362.051 224.884 360.498 220.558C357.894 213.419 359.322 206.741 360.834 200.105C361.295 198.131 361.967 196.115 363.059 194.435C367.133 188.345 377.675 190.235 375.281 199.013C374.399 202.247 373.727 205.523 373.433 208.883C373.139 211.781 373.181 214.762 372.677 217.66C372.425 219.046 372.173 220.474 371.501 221.734Z" fill="#2F3655"/>
<path d="M288.921 222.91C286.779 223.12 284.637 223.288 282.495 223.12C280.899 222.994 279.261 222.742 277.875 221.986C277.245 221.65 276.699 221.146 276.321 220.558C275.649 219.55 275.397 218.332 275.229 217.156C275.103 216.358 274.473 211.444 274.389 210.646C273.969 207.622 273.507 204.556 272.962 201.532C272.71 200.146 272.458 198.76 272.458 197.333C272.458 196.283 272.584 195.233 273.045 194.267C273.381 193.553 274.053 192.881 274.767 192.419C275.985 191.621 277.539 191.075 279.051 191.033C280.563 190.949 282.201 191.201 283.503 191.873C284.385 192.335 285.225 192.965 285.771 193.763C286.653 194.939 287.157 196.367 287.409 197.794C287.955 201.07 287.703 204.43 287.409 207.748C287.367 208.294 287.661 210.394 287.871 210.898C287.997 211.192 288.291 211.444 288.585 211.528C289.173 211.654 289.761 211.654 290.349 211.612C291.903 211.57 293.457 211.234 294.969 211.36C295.935 211.444 296.985 211.822 297.699 212.452C298.581 213.25 298.959 214.468 299.085 215.644C299.253 216.862 298.959 218.248 298.203 219.34C297.363 220.474 295.935 221.314 294.507 221.86C292.743 222.49 290.811 222.7 288.921 222.91Z" fill="#2F3655"/>
<path d="M196.605 223.708C194.589 224.002 192.531 224.506 190.557 224.128C189.297 223.918 188.373 223.33 187.617 222.322C187.113 221.608 186.819 220.726 186.609 219.886C186.063 217.45 185.769 214.972 185.391 212.536C184.887 209.26 184.509 205.942 184.467 202.624C184.425 200.986 184.383 199.39 184.593 197.794C184.761 196.576 184.971 195.274 185.601 194.224C186.105 193.385 186.903 192.671 187.785 192.251C188.877 191.747 190.053 191.411 191.271 191.243C193.581 190.949 195.891 191.159 198.201 191.033C200.553 190.949 202.905 190.697 205.299 190.739C205.467 190.739 205.677 190.739 205.887 190.739C205.929 190.739 206.013 190.739 206.055 190.739C206.433 190.739 208.155 190.823 208.533 190.907C208.911 190.991 209.33 191.033 209.666 191.243C210.716 191.915 211.472 193.175 211.682 194.392C211.934 195.694 211.724 197.164 211.22 198.424C210.926 199.054 210.422 199.6 209.834 200.02C209.162 200.482 208.365 200.776 207.567 201.028C205.551 201.658 203.409 201.742 201.267 201.742C199.839 201.742 198.411 201.616 196.983 201.742C196.899 201.742 196.605 201.784 196.563 201.784C196.437 201.784 196.311 201.742 196.185 201.742C196.143 202.456 196.185 203.17 196.353 203.842C198.075 203.548 201.603 203.38 202.695 203.59C205.257 204.052 206.475 207.076 204.921 209.176C204.039 210.394 202.401 210.94 200.931 211.108C200.259 211.192 198.285 211.234 196.941 211.108C197.067 211.318 197.025 211.57 197.025 211.822C197.025 212.326 197.109 212.788 197.151 213.292C197.235 213.25 197.319 213.208 197.403 213.208C197.613 213.208 197.781 213.25 197.991 213.25C200.259 213.418 202.485 212.746 204.753 212.62C206.433 212.494 208.197 212.452 209.708 213.208C210.842 213.754 211.598 215.014 211.976 216.232C212.312 217.282 212.228 218.458 212.018 219.508C211.85 220.222 211.64 220.978 211.178 221.524C210.632 222.154 209.834 222.616 209.037 222.868C208.365 223.078 207.609 223.12 206.853 223.12C206.559 223.12 204.753 223.246 204.459 223.246C201.813 223.372 199.167 223.372 196.605 223.708Z" fill="#2F3655"/>
<path d="M106.893 223.875C105.843 224.085 104.793 224.043 103.785 223.875C102.777 223.707 101.769 223.497 100.929 222.909C99.9632 222.28 99.1232 221.314 98.7872 220.222C98.3673 218.794 98.2833 217.324 98.1573 215.854C97.9893 212.872 97.9473 209.932 98.0733 206.95C98.1993 204.472 98.3253 201.952 98.6192 199.474C98.7032 198.004 98.8712 196.534 99.1232 195.106C99.3752 193.846 99.8372 192.502 100.803 191.62C101.811 190.654 103.323 190.234 104.709 190.234C105.507 190.234 106.305 190.528 106.935 190.948C107.187 191.116 107.439 191.326 107.649 191.578C109.707 190.696 112.059 190.444 114.327 190.486C116.511 190.528 118.779 190.906 120.795 191.83C121.635 192.208 122.433 192.754 123.063 193.426C123.693 194.098 124.155 194.98 124.281 195.904C124.491 197.458 123.945 199.18 122.895 200.314C122.013 201.238 120.753 201.868 119.493 202.12C117.351 202.624 115.083 202.498 112.899 202.246C112.605 202.204 111.555 202.12 110.589 201.994C110.505 202.54 110.379 203.17 110.379 203.338C110.337 203.716 110.253 204.85 110.295 205.606C112.227 205.354 114.243 205.396 116.175 205.396C117.099 205.438 118.065 205.48 118.863 205.9C119.535 206.236 120.081 206.908 120.333 207.58C121.299 209.932 120.375 212.956 118.107 214.048C117.645 214.258 117.141 214.384 116.637 214.426C115.293 214.51 113.991 214.426 112.689 214.258C112.059 214.216 111.429 214.132 110.841 214.006C110.883 214.342 111.009 214.762 111.009 214.93C111.177 217.156 111.135 219.55 110.211 221.524C110.001 221.944 109.791 222.406 109.413 222.742C109.203 222.993 108.741 223.245 108.237 223.455C107.817 223.665 107.355 223.791 106.893 223.875Z" fill="#2F3655"/>
<path d="M605.071 114.189C602.209 114.762 599.205 115.048 596.343 114.475C581.177 111.471 569.444 90.7245 585.04 80.4229C589.189 77.7044 594.197 76.1305 598.632 73.5551C601.923 71.552 605.357 69.5489 608.362 66.9735C606.645 67.4027 604.785 67.6889 602.925 67.9751C597.202 68.5474 591.478 68.2612 585.755 67.5458C583.18 67.2597 580.605 66.2581 578.172 65.2566C573.88 63.2535 569.874 60.3919 567.012 56.8149C564.151 53.3811 562.147 49.3749 560.86 45.2256C559.429 40.3609 560.001 35.0671 561.003 30.2024C567.871 0.299051 604.212 -5.281 628.679 5.02064C649.854 13.7484 660.585 33.064 658.153 56.8149C655.291 85.2875 632.399 108.18 605.071 114.189ZM607.503 31.347C593.768 32.2055 591.908 51.9503 607.789 49.8041C617.233 48.3733 623.814 38.5009 612.511 32.6347C610.937 31.9193 609.22 31.2039 607.503 31.347Z" fill="#FFF2E6"/>
<path d="M70.663 155.444C58.5014 159.164 44.3366 158.305 32.4611 154.013C27.4534 152.296 22.5887 149.864 18.5825 146.573C12.2871 141.279 7.42244 134.125 4.56087 126.542C-1.16226 111.662 -1.44841 95.7803 3.41625 80.3278C4.84703 75.8924 6.56397 71.6 8.9963 67.5939C14.8625 58.1507 23.8764 50.2814 33.8919 45.2737C42.6197 40.9813 52.6352 39.4075 62.2214 39.2644C85.6862 39.1213 116.305 60.8692 101.997 85.3356C99.1356 90.2002 94.5571 94.3495 89.2632 96.4957C85.5431 98.0695 81.1077 97.4972 77.2446 96.4957C71.6646 94.7787 66.6568 91.2018 61.6491 88.1971C57.0706 85.4786 51.3475 83.4755 46.0536 84.4771C43.3351 85.0494 40.9027 87.0525 39.0427 89.1987C34.6073 94.7787 35.3227 102.076 39.1858 107.942C52.349 127.83 75.2415 98.4987 90.4078 113.808C93.4124 116.813 95.4155 120.819 96.5602 124.968C97.4186 128.259 96.9894 131.979 95.8448 135.127C94.1278 139.419 91.6955 143.711 88.1185 146.573C82.9677 150.722 76.8154 153.441 70.663 155.444Z" fill="#FFF2E6"/>
<path d="M165.753 151.008C158.456 151.724 151.159 152.296 143.862 151.724C138.425 151.295 132.845 150.436 128.124 147.861C125.977 146.716 124.117 144.999 122.83 142.996C120.54 139.562 119.682 135.413 119.11 131.407C118.68 128.688 116.534 111.948 116.248 109.23C114.817 98.9279 113.243 88.4832 111.383 78.1815C110.525 73.46 109.667 68.7384 109.667 63.8737C109.667 60.2968 110.096 56.7198 111.67 53.429C112.814 50.9967 115.103 48.7074 117.536 47.1336C121.685 44.4151 126.979 42.5551 132.13 42.412C137.281 42.1258 142.861 42.9843 147.296 45.2736C150.301 46.8474 153.162 48.9936 155.022 51.7121C158.027 55.7183 159.744 60.5829 160.602 65.4476C162.462 76.6077 161.604 88.0539 160.602 99.3571C160.459 101.217 161.461 108.371 162.176 110.088C162.605 111.09 163.607 111.948 164.609 112.234C166.612 112.663 168.615 112.663 170.618 112.52C175.912 112.377 181.206 111.233 186.356 111.662C189.647 111.948 193.224 113.236 195.656 115.382C198.661 118.1 199.949 122.25 200.378 126.256C200.95 130.405 199.949 135.127 197.373 138.847C194.512 142.71 189.647 145.571 184.783 147.431C178.773 149.578 172.192 150.293 165.753 151.008Z" fill="#FFF2E6"/>
<path d="M452.052 153.441C450.192 151.009 449.762 147.575 449.619 144.57C449.619 142.138 449.906 135.27 450.478 127.544C450.335 117.529 450.621 107.513 450.621 97.6407C449.935 44.8298 456.705 51.9793 499.411 40.8387C505.992 38.9787 513.003 38.1202 519.871 39.1217C523.305 39.551 526.739 40.8387 529.886 42.2695C537.326 45.5603 544.194 50.7111 549.202 57.0065C554.925 64.1604 557.786 73.6036 559.217 82.7606C561.22 95.3515 560.791 108.944 556.499 120.962C552.493 132.123 545.339 142.997 535.752 150.007C531.889 152.726 527.311 154.157 522.875 155.158C518.297 156.16 513.718 156.875 509.14 157.018C501.078 157.347 491.003 158.949 483.63 157.215C474.089 161.551 459.725 163.372 452.052 153.441ZM496.263 110.375C500.126 110.518 504.132 110.089 507.709 108.515C513.575 105.939 519.442 100.216 520.443 93.7776C521.159 88.6268 519.298 82.3314 515.292 78.8975C510.571 74.8913 499.697 76.179 494.117 79.3267C493.831 79.4698 492.972 80.0421 492.4 80.4714C492.257 86.4806 492.114 99.6438 491.97 109.802C492.543 109.802 492.972 109.945 493.401 110.089C494.403 110.375 495.404 110.375 496.263 110.375Z" fill="#FFF2E6"/>
<path d="M401.695 152.296C391.822 154.729 381.092 153.298 371.362 150.436C361.49 147.289 351.904 139.992 347.182 130.692C341.602 119.818 339.742 106.941 340.028 94.779C340.6 73.8896 348.613 32.5399 376.799 42.4123C397.546 49.7093 383.81 71.8865 379.375 85.0497C367.928 118.387 399.835 122.393 400.121 83.7619C400.264 78.325 400.264 72.7449 400.55 67.308C400.693 63.5879 400.693 59.8679 401.552 56.2909C402.124 53.7155 403.269 51.1401 404.986 49.2801C406.416 47.9924 407.704 46.5616 409.421 45.7031C411.853 44.4154 414.858 43.8431 417.72 43.7C443.044 42.6985 441.328 68.8818 441.471 85.3358C441.757 112.521 430.74 145.429 401.695 152.296Z" fill="#FFF2E6"/>
<path d="M218.4 42.0658C229.019 37.9894 242.942 54.452 247.772 57.2757C256.453 55.5429 265.317 54.7984 269.965 54.9011C275.774 55.0295 285.108 55.9924 290.591 57.0834C296.285 58.2163 308.28 36.9314 320.355 42.0657C331.127 46.6457 324.467 75.053 324.793 79.353C325.119 83.6529 334.388 90.6485 332.822 113.432C331.255 136.215 309.235 157.265 270.813 157.265C228.648 157.265 211.873 137.627 207.434 120.619C201.84 99.1844 214.418 82.8187 214.418 77.556C214.418 72.5091 208.87 45.7239 218.4 42.0658Z" fill="#FFF2E6"/>
<ellipse cx="290" cy="94.2651" rx="11" ry="8" transform="rotate(90 290 94.2651)" fill="#FE6892"/>
<ellipse cx="249" cy="94.2651" rx="11" ry="8" transform="rotate(90 249 94.2651)" fill="#FE6892"/>
</svg>
