<svg xmlns="http://www.w3.org/2000/svg" xmlns:xlink="http://www.w3.org/1999/xlink" width="1920" zoomAndPan="magnify" viewBox="0 0 1440 232.499993" height="310" preserveAspectRatio="xMidYMid meet" version="1.2"><defs><clipPath id="b22503e12e"><path d="M 1.546875 0 L 1438.453125 0 L 1438.453125 232 L 1.546875 232 Z M 1.546875 0 "/></clipPath><clipPath id="8eedc2f2ca"><path d="M 0.546875 0 L 785.761719 0 L 785.761719 232 L 0.546875 232 Z M 0.546875 0 "/></clipPath><clipPath id="809129064d"><path d="M 657.316406 0 L 1437.453125 0 L 1437.453125 232 L 657.316406 232 Z M 657.316406 0 "/></clipPath><clipPath id="75803631aa"><path d="M 0.472656 0 L 780.453125 0 L 780.453125 232 L 0.472656 232 Z M 0.472656 0 "/></clipPath><clipPath id="7e0c461759"><rect x="0" width="781" y="0" height="232"/></clipPath><clipPath id="77832fe933"><rect x="0" width="1438" y="0" height="232"/></clipPath></defs><g id="37793900bb"><g clip-rule="nonzero" clip-path="url(#b22503e12e)"><g transform="matrix(1,0,0,1,1,0)"><g clip-path="url(#77832fe933)"><g clip-rule="nonzero" clip-path="url(#8eedc2f2ca)"><path style=" stroke:none;fill-rule:nonzero;fill:#ff608a;fill-opacity:1;" d="M 96.277344 200.25 C 174.773438 142.664062 228.863281 104.464844 326.238281 170.058594 C 423.675781 235.71875 484.691406 106.246094 563.441406 138.660156 C 636.890625 168.972656 660.910156 284.667969 786.027344 204.277344 L 786.027344 -187.53125 L -11.519531 -187.53125 L -11.519531 230.847656 C 10.929688 235.742188 48.761719 235.113281 96.277344 200.25 Z M 96.277344 200.25 "/></g><g clip-rule="nonzero" clip-path="url(#809129064d)"><g transform="matrix(1,0,0,1,657,0)"><g id="bf08c59a9a" clip-path="url(#7e0c461759)"><g clip-rule="nonzero" clip-path="url(#75803631aa)"><path style=" stroke:none;fill-rule:nonzero;fill:#ff608a;fill-opacity:1;" d="M 689.957031 200.25 C 611.460938 142.664062 557.371094 104.464844 459.996094 170.058594 C 362.558594 235.71875 301.542969 106.246094 222.792969 138.660156 C 149.34375 168.972656 125.324219 284.667969 0.207031 204.277344 L 0.207031 -187.53125 L 797.753906 -187.53125 L 797.753906 230.847656 C 775.304688 235.742188 737.472656 235.113281 689.957031 200.25 Z M 689.957031 200.25 "/></g></g></g></g></g></g></g></g></svg>