<svg xmlns="http://www.w3.org/2000/svg" xmlns:xlink="http://www.w3.org/1999/xlink" width="1920" zoomAndPan="magnify" viewBox="0 0 1440 232.499993" height="310" preserveAspectRatio="xMidYMid meet" version="1.2"><defs><clipPath id="5be62dab31"><path d="M 1.546875 45 L 782.863281 45 L 782.863281 232 L 1.546875 232 Z M 1.546875 45 "/></clipPath><clipPath id="4e19268567"><path d="M 0.546875 7 L 781.863281 7 L 781.863281 187 L 0.546875 187 Z M 0.546875 7 "/></clipPath><clipPath id="7992c24515"><rect x="0" width="782" y="0" height="187"/></clipPath><clipPath id="55ec305e42"><path d="M 656.972656 45 L 1438.292969 45 L 1438.292969 232 L 656.972656 232 Z M 656.972656 45 "/></clipPath><clipPath id="30ec0b1c2b"><path d="M 1.125 7 L 782.292969 7 L 782.292969 187 L 1.125 187 Z M 1.125 7 "/></clipPath><clipPath id="803a7b5b8d"><rect x="0" width="783" y="0" height="187"/></clipPath></defs><g id="8b3fef9be5"><g clip-rule="nonzero" clip-path="url(#5be62dab31)"><g transform="matrix(1,0,0,1,1,45)"><g clip-path="url(#7992c24515)"><g clip-rule="nonzero" clip-path="url(#4e19268567)"><path style=" stroke:none;fill-rule:nonzero;fill:#fe6892;fill-opacity:1;" d="M 106.089844 39.84375 C 183.027344 96.285156 236.039062 133.726562 331.476562 69.4375 C 426.976562 5.085938 486.78125 131.980469 563.964844 100.210938 C 635.953125 70.5 659.496094 -42.894531 782.125 35.898438 L 782.125 419.914062 L 0.4375 419.914062 L 0.4375 9.855469 C 22.4375 5.058594 59.519531 5.675781 106.089844 39.84375 Z M 106.089844 39.84375 "/></g></g></g></g><g clip-rule="nonzero" clip-path="url(#55ec305e42)"><g transform="matrix(1,0,0,1,656,45)"><g clip-path="url(#803a7b5b8d)"><g clip-rule="nonzero" clip-path="url(#30ec0b1c2b)"><path style=" stroke:none;fill-rule:nonzero;fill:#fe6892;fill-opacity:1;" d="M 676.898438 39.84375 C 599.964844 96.285156 546.949219 133.726562 451.511719 69.4375 C 356.011719 5.085938 296.207031 131.980469 219.023438 100.210938 C 147.039062 70.5 123.492188 -42.894531 0.863281 35.898438 L 0.863281 419.914062 L 782.554688 419.914062 L 782.554688 9.855469 C 760.550781 5.058594 723.46875 5.675781 676.898438 39.84375 Z M 676.898438 39.84375 "/></g></g></g></g></g></svg>