<svg xmlns="http://www.w3.org/2000/svg" xmlns:xlink="http://www.w3.org/1999/xlink" width="1867" zoomAndPan="magnify" viewBox="0 0 1400.25 479.999983" height="640" preserveAspectRatio="xMidYMid meet" version="1.2"><defs><clipPath id="777f93f29d"><path d="M 1183 5.226562 L 1391 5.226562 L 1391 246 L 1183 246 Z M 1183 5.226562 "/></clipPath><clipPath id="fa3973ed5f"><path d="M 7.734375 87 L 230 87 L 230 336 L 7.734375 336 Z M 7.734375 87 "/></clipPath></defs><g id="e53644a831"><path style=" stroke:none;fill-rule:nonzero;fill:#2f3655;fill-opacity:1;" d="M 1150.558594 474.351562 C 1146.324219 474.96875 1142.003906 476.027344 1137.859375 475.234375 C 1135.210938 474.792969 1133.273438 473.558594 1131.683594 471.441406 C 1130.625 469.945312 1130.007812 468.09375 1129.566406 466.328125 C 1128.421875 461.214844 1127.804688 456.011719 1127.011719 450.898438 C 1125.953125 444.019531 1125.160156 437.050781 1125.070312 430.085938 C 1124.980469 426.648438 1124.894531 423.296875 1125.335938 419.945312 C 1125.6875 417.386719 1126.128906 414.65625 1127.453125 412.449219 C 1128.511719 410.6875 1130.183594 409.1875 1132.039062 408.304688 C 1134.332031 407.246094 1136.800781 406.542969 1139.355469 406.1875 C 1144.207031 405.570312 1149.058594 406.011719 1153.910156 405.75 C 1158.847656 405.570312 1163.785156 405.042969 1168.8125 405.132812 C 1169.164062 405.132812 1169.605469 405.132812 1170.046875 405.132812 C 1170.136719 405.132812 1170.3125 405.132812 1170.398438 405.132812 C 1171.195312 405.132812 1174.808594 405.308594 1175.601562 405.484375 C 1176.394531 405.660156 1177.277344 405.75 1177.980469 406.1875 C 1180.1875 407.601562 1181.773438 410.246094 1182.214844 412.800781 C 1182.746094 415.535156 1182.304688 418.621094 1181.246094 421.269531 C 1180.628906 422.589844 1179.570312 423.738281 1178.335938 424.617188 C 1176.921875 425.589844 1175.25 426.207031 1173.574219 426.734375 C 1169.339844 428.058594 1164.84375 428.234375 1160.347656 428.234375 C 1157.347656 428.234375 1154.347656 427.96875 1151.351562 428.234375 C 1151.175781 428.234375 1150.558594 428.324219 1150.46875 428.324219 C 1150.203125 428.324219 1149.941406 428.234375 1149.675781 428.234375 C 1149.585938 429.734375 1149.675781 431.230469 1150.027344 432.644531 C 1153.644531 432.027344 1161.050781 431.671875 1163.34375 432.113281 C 1168.722656 433.085938 1171.28125 439.433594 1168.019531 443.84375 C 1166.167969 446.398438 1162.726562 447.546875 1159.640625 447.898438 C 1158.230469 448.074219 1154.085938 448.164062 1151.261719 447.898438 C 1151.527344 448.339844 1151.4375 448.867188 1151.4375 449.398438 C 1151.4375 450.457031 1151.617188 451.425781 1151.703125 452.484375 C 1151.878906 452.394531 1152.054688 452.308594 1152.234375 452.308594 C 1152.671875 452.308594 1153.027344 452.394531 1153.46875 452.394531 C 1158.230469 452.75 1162.902344 451.335938 1167.664062 451.074219 C 1171.195312 450.808594 1174.898438 450.71875 1178.070312 452.308594 C 1180.453125 453.453125 1182.039062 456.097656 1182.832031 458.65625 C 1183.539062 460.859375 1183.363281 463.332031 1182.921875 465.535156 C 1182.566406 467.035156 1182.128906 468.621094 1181.15625 469.765625 C 1180.011719 471.089844 1178.335938 472.058594 1176.660156 472.589844 C 1175.25 473.03125 1173.664062 473.117188 1172.074219 473.117188 C 1171.457031 473.117188 1167.664062 473.382812 1167.046875 473.382812 C 1161.492188 473.648438 1155.9375 473.648438 1150.558594 474.351562 Z M 1150.558594 474.351562 "/><path style=" stroke:none;fill-rule:nonzero;fill:#2f3655;fill-opacity:1;" d="M 954.085938 472.324219 C 949.679688 480.085938 936.890625 479.996094 931.863281 472.855469 C 930.539062 471 929.835938 468.796875 929.304688 466.503906 C 926.042969 453.277344 924.71875 436.964844 923.488281 425.941406 C 921.988281 411.128906 935.390625 398.785156 948.621094 413.070312 C 951.707031 416.421875 954.085938 420.386719 956.644531 424.269531 C 961.144531 431.320312 965.90625 438.464844 971.8125 444.460938 C 970.667969 436.613281 967.933594 423.828125 967.402344 415.980469 C 966.347656 399.226562 993.15625 397.8125 995.097656 416.332031 C 996.066406 425.414062 995.714844 439.875 995.714844 448.957031 C 995.800781 462.976562 989.273438 477.792969 973.488281 471.972656 C 970.667969 470.914062 967.933594 469.148438 965.816406 467.035156 C 960.703125 461.832031 957.4375 455.128906 954 448.78125 C 953.382812 447.546875 952.675781 446.3125 952.058594 445.078125 C 953.382812 449.664062 954.617188 454.335938 955.5 459.097656 C 956.292969 463.417969 956.378906 468.445312 954.085938 472.324219 Z M 954.085938 472.324219 "/><path style=" stroke:none;fill-rule:nonzero;fill:#2f3655;fill-opacity:1;" d="M 787.804688 470.207031 C 782.6875 480.171875 767.960938 476.820312 764.699219 467.738281 C 759.234375 452.75 762.230469 438.730469 765.40625 424.796875 C 766.375 420.652344 767.785156 416.421875 770.078125 412.894531 C 778.632812 400.105469 800.769531 404.074219 795.742188 422.503906 C 793.890625 429.292969 792.476562 436.171875 791.859375 443.226562 C 791.242188 449.308594 791.332031 455.570312 790.273438 461.65625 C 789.746094 464.566406 789.214844 467.5625 787.804688 470.207031 Z M 787.804688 470.207031 "/><path style=" stroke:none;fill-rule:nonzero;fill:#2f3655;fill-opacity:1;" d="M 614.40625 472.675781 C 609.910156 473.117188 605.410156 473.472656 600.914062 473.117188 C 597.5625 472.855469 594.121094 472.324219 591.210938 470.738281 C 589.890625 470.03125 588.742188 468.972656 587.949219 467.738281 C 586.539062 465.621094 586.007812 463.066406 585.65625 460.597656 C 585.390625 458.921875 584.070312 448.605469 583.894531 446.929688 C 583.011719 440.578125 582.039062 434.140625 580.898438 427.792969 C 580.367188 424.882812 579.839844 421.972656 579.839844 418.976562 C 579.839844 416.769531 580.101562 414.566406 581.070312 412.539062 C 581.777344 411.039062 583.1875 409.628906 584.6875 408.660156 C 587.242188 406.984375 590.507812 405.839844 593.683594 405.75 C 596.855469 405.574219 600.296875 406.101562 603.03125 407.515625 C 604.882812 408.484375 606.644531 409.804688 607.792969 411.480469 C 609.644531 413.949219 610.703125 416.945312 611.230469 419.945312 C 612.378906 426.824219 611.847656 433.878906 611.230469 440.84375 C 611.144531 441.992188 611.761719 446.398438 612.203125 447.457031 C 612.464844 448.074219 613.082031 448.605469 613.699219 448.78125 C 614.9375 449.042969 616.171875 449.042969 617.40625 448.957031 C 620.667969 448.867188 623.929688 448.164062 627.105469 448.425781 C 629.132812 448.605469 631.339844 449.398438 632.839844 450.71875 C 634.691406 452.394531 635.484375 454.953125 635.75 457.421875 C 636.101562 459.980469 635.484375 462.890625 633.894531 465.183594 C 632.132812 467.5625 629.132812 469.328125 626.136719 470.472656 C 622.433594 471.796875 618.375 472.238281 614.40625 472.675781 Z M 614.40625 472.675781 "/><path style=" stroke:none;fill-rule:nonzero;fill:#2f3655;fill-opacity:1;" d="M 420.566406 474.351562 C 416.332031 474.96875 412.011719 476.027344 407.867188 475.234375 C 405.222656 474.792969 403.28125 473.558594 401.691406 471.441406 C 400.636719 469.945312 400.019531 468.09375 399.578125 466.328125 C 398.429688 461.214844 397.8125 456.011719 397.019531 450.898438 C 395.960938 444.019531 395.167969 437.050781 395.078125 430.085938 C 394.992188 426.648438 394.902344 423.296875 395.34375 419.945312 C 395.695312 417.386719 396.136719 414.65625 397.460938 412.449219 C 398.519531 410.6875 400.195312 409.1875 402.046875 408.304688 C 404.339844 407.246094 406.808594 406.542969 409.367188 406.1875 C 414.214844 405.570312 419.066406 406.011719 423.917969 405.75 C 428.855469 405.570312 433.792969 405.042969 438.820312 405.132812 C 439.171875 405.132812 439.613281 405.132812 440.054688 405.132812 C 440.144531 405.132812 440.320312 405.132812 440.410156 405.132812 C 441.203125 405.132812 444.816406 405.308594 445.613281 405.484375 C 446.40625 405.660156 447.285156 405.75 447.992188 406.1875 C 450.195312 407.601562 451.78125 410.246094 452.222656 412.800781 C 452.753906 415.535156 452.3125 418.621094 451.253906 421.269531 C 450.636719 422.589844 449.578125 423.738281 448.34375 424.617188 C 446.933594 425.589844 445.257812 426.207031 443.582031 426.734375 C 439.351562 428.058594 434.851562 428.234375 430.355469 428.234375 C 427.355469 428.234375 424.359375 427.96875 421.359375 428.234375 C 421.183594 428.234375 420.566406 428.324219 420.476562 428.324219 C 420.214844 428.324219 419.949219 428.234375 419.683594 428.234375 C 419.597656 429.734375 419.683594 431.230469 420.035156 432.644531 C 423.652344 432.027344 431.058594 431.671875 433.351562 432.113281 C 438.734375 433.085938 441.289062 439.433594 438.027344 443.84375 C 436.175781 446.398438 432.734375 447.546875 429.648438 447.898438 C 428.238281 448.074219 424.09375 448.164062 421.269531 447.898438 C 421.535156 448.339844 421.449219 448.867188 421.449219 449.398438 C 421.449219 450.457031 421.625 451.425781 421.710938 452.484375 C 421.886719 452.394531 422.066406 452.308594 422.242188 452.308594 C 422.683594 452.308594 423.035156 452.394531 423.476562 452.394531 C 428.238281 452.75 432.914062 451.335938 437.675781 451.074219 C 441.203125 450.808594 444.90625 450.71875 448.078125 452.308594 C 450.460938 453.453125 452.046875 456.097656 452.839844 458.65625 C 453.546875 460.859375 453.371094 463.332031 452.929688 465.535156 C 452.578125 467.035156 452.136719 468.621094 451.164062 469.765625 C 450.019531 471.089844 448.34375 472.058594 446.667969 472.589844 C 445.257812 473.03125 443.671875 473.117188 442.085938 473.117188 C 441.464844 473.117188 437.675781 473.382812 437.058594 473.382812 C 431.5 473.648438 425.945312 473.648438 420.566406 474.351562 Z M 420.566406 474.351562 "/><path style=" stroke:none;fill-rule:nonzero;fill:#2f3655;fill-opacity:1;" d="M 232.191406 474.703125 C 229.988281 475.144531 227.785156 475.054688 225.667969 474.703125 C 223.550781 474.351562 221.433594 473.910156 219.667969 472.675781 C 217.640625 471.351562 215.878906 469.324219 215.171875 467.03125 C 214.289062 464.035156 214.113281 460.949219 213.851562 457.863281 C 213.496094 451.601562 213.410156 445.429688 213.671875 439.167969 C 213.9375 433.964844 214.203125 428.675781 214.820312 423.472656 C 214.996094 420.386719 215.347656 417.300781 215.878906 414.300781 C 216.40625 411.65625 217.378906 408.835938 219.40625 406.984375 C 221.523438 404.953125 224.695312 404.074219 227.605469 404.074219 C 229.28125 404.074219 230.957031 404.691406 232.28125 405.570312 C 232.808594 405.925781 233.339844 406.367188 233.78125 406.894531 C 238.101562 405.042969 243.039062 404.511719 247.800781 404.601562 C 252.386719 404.691406 257.152344 405.484375 261.382812 407.421875 C 263.148438 408.21875 264.824219 409.363281 266.144531 410.773438 C 267.46875 412.183594 268.4375 414.039062 268.703125 415.976562 C 269.144531 419.238281 267.996094 422.855469 265.792969 425.234375 C 263.941406 427.175781 261.296875 428.5 258.648438 429.027344 C 254.152344 430.085938 249.390625 429.820312 244.804688 429.292969 C 244.1875 429.203125 241.980469 429.027344 239.953125 428.761719 C 239.777344 429.910156 239.511719 431.230469 239.511719 431.585938 C 239.425781 432.378906 239.246094 434.757812 239.335938 436.347656 C 243.394531 435.816406 247.625 435.90625 251.683594 435.90625 C 253.621094 435.996094 255.652344 436.082031 257.328125 436.964844 C 258.738281 437.667969 259.882812 439.082031 260.414062 440.492188 C 262.441406 445.429688 260.5 451.777344 255.738281 454.070312 C 254.769531 454.511719 253.710938 454.777344 252.652344 454.863281 C 249.832031 455.042969 247.097656 454.863281 244.363281 454.511719 C 243.039062 454.425781 241.71875 454.246094 240.484375 453.984375 C 240.570312 454.6875 240.835938 455.570312 240.835938 455.921875 C 241.1875 460.597656 241.101562 465.621094 239.160156 469.765625 C 238.71875 470.648438 238.277344 471.617188 237.484375 472.324219 C 237.042969 472.851562 236.074219 473.378906 235.015625 473.820312 C 234.132812 474.261719 233.164062 474.527344 232.191406 474.703125 Z M 232.191406 474.703125 "/><g clip-rule="nonzero" clip-path="url(#777f93f29d)"><path style=" stroke:none;fill-rule:nonzero;fill:#fe6892;fill-opacity:1;" d="M 1278.242188 244.414062 C 1272.234375 245.613281 1265.925781 246.21875 1259.917969 245.015625 C 1228.070312 238.707031 1203.433594 195.148438 1236.183594 173.519531 C 1244.894531 167.8125 1255.410156 164.507812 1264.722656 159.101562 C 1271.632812 154.894531 1278.84375 150.691406 1285.152344 145.28125 C 1281.546875 146.183594 1277.640625 146.785156 1273.738281 147.386719 C 1261.71875 148.585938 1249.703125 147.984375 1237.683594 146.484375 C 1232.277344 145.882812 1226.871094 143.78125 1221.761719 141.675781 C 1212.75 137.472656 1204.339844 131.464844 1198.328125 123.953125 C 1192.320312 116.746094 1188.113281 108.332031 1185.410156 99.621094 C 1182.40625 89.40625 1183.605469 78.292969 1185.710938 68.078125 C 1200.132812 5.296875 1276.4375 -6.417969 1327.8125 15.210938 C 1372.277344 33.535156 1394.808594 74.085938 1389.703125 123.953125 C 1383.691406 183.734375 1335.625 231.796875 1278.242188 244.414062 Z M 1283.351562 70.484375 C 1254.507812 72.285156 1250.605469 113.742188 1283.949219 109.234375 C 1303.78125 106.230469 1317.597656 85.503906 1293.867188 73.1875 C 1290.558594 71.683594 1286.953125 70.183594 1283.351562 70.484375 Z M 1283.351562 70.484375 "/></g><g clip-rule="nonzero" clip-path="url(#fa3973ed5f)"><path style=" stroke:none;fill-rule:nonzero;fill:#fe6892;fill-opacity:1;" d="M 156.117188 331.03125 C 130.582031 338.839844 100.839844 337.035156 75.902344 328.023438 C 65.390625 324.421875 55.175781 319.3125 46.761719 312.40625 C 33.542969 301.289062 23.328125 286.269531 17.320312 270.347656 C 5.304688 239.109375 4.703125 205.761719 14.917969 173.320312 C 17.921875 164.007812 21.527344 154.996094 26.632812 146.585938 C 38.953125 126.757812 57.878906 110.238281 78.910156 99.722656 C 97.234375 90.710938 118.265625 87.40625 138.394531 87.105469 C 187.664062 86.804688 251.957031 132.464844 221.914062 183.835938 C 215.902344 194.046875 206.289062 202.757812 195.175781 207.265625 C 187.363281 210.570312 178.050781 209.367188 169.9375 207.265625 C 158.222656 203.660156 147.707031 196.148438 137.191406 189.84375 C 127.578125 184.132812 115.5625 179.929688 104.445312 182.03125 C 98.738281 183.234375 93.628906 187.4375 89.722656 191.945312 C 80.410156 203.660156 81.914062 218.980469 90.023438 231.296875 C 117.664062 273.054688 165.734375 211.46875 197.578125 243.613281 C 203.886719 249.921875 208.09375 258.332031 210.496094 267.042969 C 212.300781 273.953125 211.398438 281.765625 208.996094 288.375 C 205.390625 297.382812 200.28125 306.394531 192.769531 312.40625 C 181.957031 321.117188 169.039062 326.824219 156.117188 331.03125 Z M 156.117188 331.03125 "/></g><path style=" stroke:none;fill-rule:nonzero;fill:#fe6892;fill-opacity:1;" d="M 355.785156 321.714844 C 340.460938 323.21875 325.140625 324.421875 309.820312 323.21875 C 298.402344 322.316406 286.6875 320.515625 276.773438 315.105469 C 272.265625 312.703125 268.359375 309.101562 265.65625 304.894531 C 260.847656 297.683594 259.046875 288.972656 257.84375 280.5625 C 256.941406 274.855469 252.4375 239.707031 251.835938 234 C 248.832031 212.371094 245.527344 190.441406 241.621094 168.8125 C 239.820312 158.902344 238.015625 148.988281 238.015625 138.773438 C 238.015625 131.265625 238.917969 123.753906 242.222656 116.84375 C 244.625 111.738281 249.433594 106.933594 254.539062 103.628906 C 263.253906 97.921875 274.367188 94.015625 285.183594 93.714844 C 296 93.113281 307.714844 94.917969 317.027344 99.722656 C 323.339844 103.027344 329.347656 107.53125 333.25 113.238281 C 339.5625 121.652344 343.167969 131.863281 344.96875 142.078125 C 348.875 165.507812 347.074219 189.542969 344.96875 213.273438 C 344.667969 217.179688 346.773438 232.199219 348.273438 235.804688 C 349.175781 237.90625 351.277344 239.707031 353.382812 240.308594 C 357.589844 241.210938 361.792969 241.210938 366 240.910156 C 377.117188 240.609375 388.230469 238.203125 399.046875 239.109375 C 405.957031 239.707031 413.464844 242.414062 418.574219 246.917969 C 424.882812 252.625 427.585938 261.335938 428.488281 269.75 C 429.6875 278.460938 427.585938 288.375 422.179688 296.183594 C 416.171875 304.292969 405.957031 310.300781 395.742188 314.207031 C 383.121094 318.710938 369.304688 320.214844 355.785156 321.714844 Z M 355.785156 321.714844 "/><path style=" stroke:none;fill-rule:nonzero;fill:#fe6892;fill-opacity:1;" d="M 956.941406 326.824219 C 953.035156 321.71875 952.132812 314.507812 951.832031 308.199219 C 951.832031 303.09375 952.433594 288.671875 953.636719 272.453125 C 953.335938 251.421875 953.9375 230.398438 953.9375 209.667969 C 952.496094 98.789062 966.710938 113.800781 1056.382812 90.410156 C 1070.203125 86.507812 1084.921875 84.703125 1099.34375 86.804688 C 1106.554688 87.707031 1113.765625 90.410156 1120.375 93.414062 C 1135.996094 100.324219 1150.417969 111.136719 1160.933594 124.355469 C 1172.949219 139.375 1178.957031 159.203125 1181.960938 178.429688 C 1186.167969 204.863281 1185.265625 233.402344 1176.253906 258.632812 C 1167.84375 282.0625 1152.820312 304.894531 1132.691406 319.613281 C 1124.578125 325.324219 1114.964844 328.328125 1105.652344 330.429688 C 1096.039062 332.53125 1086.425781 334.035156 1076.8125 334.335938 C 1059.882812 335.023438 1038.730469 338.390625 1023.246094 334.746094 C 1003.214844 343.851562 973.050781 347.675781 956.941406 326.824219 Z M 1049.773438 236.40625 C 1057.882812 236.707031 1066.296875 235.804688 1073.808594 232.5 C 1086.125 227.09375 1098.445312 215.078125 1100.546875 201.558594 C 1102.046875 190.746094 1098.140625 177.527344 1089.730469 170.316406 C 1079.816406 161.90625 1056.984375 164.609375 1045.265625 171.21875 C 1044.667969 171.519531 1042.863281 172.71875 1041.660156 173.621094 C 1041.363281 186.238281 1041.0625 213.875 1040.757812 235.203125 C 1041.960938 235.203125 1042.863281 235.503906 1043.765625 235.804688 C 1045.867188 236.40625 1047.96875 236.40625 1049.773438 236.40625 Z M 1049.773438 236.40625 "/><path style=" stroke:none;fill-rule:nonzero;fill:#fe6892;fill-opacity:1;" d="M 851.203125 324.421875 C 830.472656 329.527344 807.941406 326.523438 787.511719 320.515625 C 766.785156 313.90625 746.65625 298.585938 736.738281 279.058594 C 725.023438 256.230469 721.117188 229.195312 721.71875 203.660156 C 722.917969 159.800781 739.746094 72.988281 798.929688 93.714844 C 842.492188 109.035156 813.648438 155.597656 804.335938 183.234375 C 780.300781 253.226562 847.296875 261.636719 847.898438 180.53125 C 848.199219 169.113281 848.199219 157.398438 848.800781 145.984375 C 849.101562 138.175781 849.101562 130.363281 850.902344 122.855469 C 852.105469 117.445312 854.507812 112.039062 858.113281 108.132812 C 861.117188 105.429688 863.820312 102.425781 867.425781 100.625 C 872.535156 97.921875 878.84375 96.71875 884.851562 96.417969 C 938.027344 94.316406 934.421875 149.289062 934.722656 183.835938 C 935.324219 240.910156 912.191406 310.003906 851.203125 324.421875 Z M 851.203125 324.421875 "/><path style=" stroke:none;fill-rule:nonzero;fill:#fe6892;fill-opacity:1;" d="M 466.328125 92.988281 C 488.628906 84.429688 517.863281 118.992188 528.003906 124.921875 C 546.230469 121.285156 564.84375 119.71875 574.605469 119.9375 C 586.800781 120.207031 606.398438 122.226562 617.914062 124.515625 C 629.867188 126.894531 655.054688 82.207031 680.410156 92.988281 C 703.027344 102.601562 689.042969 162.246094 689.730469 171.273438 C 690.414062 180.300781 709.875 194.988281 706.585938 242.824219 C 703.296875 290.65625 657.0625 334.851562 576.382812 334.851562 C 487.847656 334.851562 452.625 293.621094 443.304688 257.914062 C 431.558594 212.910156 457.96875 178.550781 457.96875 167.5 C 457.96875 156.90625 446.320312 100.667969 466.328125 92.988281 Z M 466.328125 92.988281 "/><path style=" stroke:none;fill-rule:nonzero;fill:#fff2e6;fill-opacity:1;" d="M 616.671875 225.675781 C 616.121094 225.675781 615.574219 225.640625 615.027344 225.566406 C 614.476562 225.492188 613.933594 225.378906 613.394531 225.234375 C 612.855469 225.085938 612.324219 224.902344 611.796875 224.683594 C 611.269531 224.464844 610.753906 224.207031 610.242188 223.917969 C 609.734375 223.628906 609.238281 223.304688 608.753906 222.949219 C 608.269531 222.59375 607.796875 222.203125 607.339844 221.785156 C 606.882812 221.363281 606.441406 220.914062 606.015625 220.433594 C 605.589844 219.953125 605.183594 219.449219 604.792969 218.914062 C 604.40625 218.378906 604.035156 217.816406 603.6875 217.234375 C 603.339844 216.648438 603.011719 216.042969 602.707031 215.414062 C 602.398438 214.785156 602.117188 214.136719 601.859375 213.46875 C 601.597656 212.800781 601.363281 212.117188 601.152344 211.421875 C 600.941406 210.722656 600.757812 210.011719 600.597656 209.285156 C 600.4375 208.5625 600.304688 207.828125 600.195312 207.085938 C 600.089844 206.347656 600.007812 205.597656 599.953125 204.847656 C 599.902344 204.09375 599.875 203.339844 599.875 202.582031 C 599.875 201.824219 599.902344 201.070312 599.953125 200.320312 C 600.007812 199.566406 600.089844 198.820312 600.195312 198.078125 C 600.304688 197.335938 600.4375 196.601562 600.597656 195.878906 C 600.757812 195.152344 600.941406 194.441406 601.152344 193.742188 C 601.363281 193.046875 601.597656 192.363281 601.859375 191.695312 C 602.117188 191.027344 602.398438 190.378906 602.707031 189.75 C 603.011719 189.121094 603.339844 188.515625 603.6875 187.929688 C 604.035156 187.347656 604.40625 186.785156 604.792969 186.25 C 605.183594 185.714844 605.589844 185.210938 606.015625 184.730469 C 606.441406 184.25 606.882812 183.800781 607.339844 183.378906 C 607.796875 182.960938 608.269531 182.570312 608.753906 182.214844 C 609.238281 181.859375 609.734375 181.535156 610.242188 181.246094 C 610.753906 180.957031 611.269531 180.699219 611.796875 180.480469 C 612.324219 180.261719 612.855469 180.078125 613.394531 179.929688 C 613.933594 179.785156 614.476562 179.671875 615.027344 179.597656 C 615.574219 179.523438 616.121094 179.488281 616.671875 179.488281 C 617.222656 179.488281 617.769531 179.523438 618.320312 179.597656 C 618.867188 179.671875 619.410156 179.785156 619.949219 179.929688 C 620.488281 180.078125 621.023438 180.261719 621.546875 180.480469 C 622.074219 180.699219 622.59375 180.957031 623.101562 181.246094 C 623.609375 181.535156 624.105469 181.859375 624.589844 182.214844 C 625.074219 182.570312 625.546875 182.960938 626.003906 183.378906 C 626.460938 183.800781 626.902344 184.25 627.328125 184.730469 C 627.753906 185.210938 628.160156 185.714844 628.550781 186.25 C 628.9375 186.785156 629.308594 187.347656 629.65625 187.929688 C 630.007812 188.515625 630.332031 189.121094 630.640625 189.75 C 630.945312 190.378906 631.226562 191.027344 631.488281 191.695312 C 631.746094 192.363281 631.980469 193.046875 632.191406 193.742188 C 632.402344 194.441406 632.585938 195.152344 632.746094 195.878906 C 632.90625 196.601562 633.039062 197.335938 633.148438 198.078125 C 633.253906 198.820312 633.335938 199.566406 633.390625 200.320312 C 633.441406 201.070312 633.46875 201.824219 633.46875 202.582031 C 633.46875 203.339844 633.441406 204.09375 633.390625 204.847656 C 633.335938 205.597656 633.253906 206.347656 633.148438 207.085938 C 633.039062 207.828125 632.90625 208.5625 632.746094 209.285156 C 632.585938 210.011719 632.402344 210.722656 632.191406 211.421875 C 631.980469 212.117188 631.746094 212.800781 631.488281 213.46875 C 631.226562 214.136719 630.945312 214.785156 630.640625 215.414062 C 630.332031 216.042969 630.007812 216.648438 629.65625 217.234375 C 629.308594 217.816406 628.9375 218.378906 628.550781 218.914062 C 628.160156 219.449219 627.753906 219.953125 627.328125 220.433594 C 626.902344 220.914062 626.460938 221.363281 626.003906 221.785156 C 625.546875 222.203125 625.074219 222.59375 624.589844 222.949219 C 624.105469 223.304688 623.609375 223.628906 623.101562 223.917969 C 622.59375 224.207031 622.074219 224.464844 621.546875 224.683594 C 621.023438 224.902344 620.488281 225.085938 619.949219 225.234375 C 619.410156 225.378906 618.867188 225.492188 618.320312 225.566406 C 617.769531 225.640625 617.222656 225.675781 616.671875 225.675781 Z M 616.671875 225.675781 "/><path style=" stroke:none;fill-rule:nonzero;fill:#fff2e6;fill-opacity:1;" d="M 530.582031 225.675781 C 530.03125 225.675781 529.484375 225.640625 528.9375 225.566406 C 528.386719 225.492188 527.84375 225.378906 527.304688 225.234375 C 526.765625 225.085938 526.234375 224.902344 525.707031 224.683594 C 525.179688 224.464844 524.664062 224.207031 524.152344 223.917969 C 523.644531 223.628906 523.148438 223.304688 522.664062 222.949219 C 522.179688 222.59375 521.707031 222.203125 521.25 221.785156 C 520.792969 221.363281 520.351562 220.914062 519.925781 220.433594 C 519.5 219.953125 519.09375 219.449219 518.703125 218.914062 C 518.316406 218.378906 517.945312 217.816406 517.597656 217.234375 C 517.25 216.648438 516.921875 216.042969 516.617188 215.414062 C 516.308594 214.785156 516.027344 214.136719 515.769531 213.46875 C 515.507812 212.800781 515.273438 212.117188 515.0625 211.421875 C 514.851562 210.722656 514.667969 210.011719 514.507812 209.285156 C 514.347656 208.5625 514.214844 207.828125 514.105469 207.085938 C 514 206.347656 513.917969 205.597656 513.863281 204.847656 C 513.8125 204.09375 513.785156 203.339844 513.785156 202.582031 C 513.785156 201.824219 513.8125 201.070312 513.863281 200.320312 C 513.917969 199.566406 514 198.816406 514.105469 198.078125 C 514.214844 197.335938 514.347656 196.601562 514.507812 195.878906 C 514.667969 195.152344 514.851562 194.441406 515.0625 193.742188 C 515.273438 193.046875 515.507812 192.363281 515.769531 191.695312 C 516.027344 191.027344 516.308594 190.378906 516.617188 189.75 C 516.921875 189.121094 517.25 188.515625 517.597656 187.929688 C 517.945312 187.347656 518.316406 186.785156 518.703125 186.25 C 519.09375 185.714844 519.5 185.210938 519.925781 184.730469 C 520.351562 184.25 520.792969 183.800781 521.25 183.378906 C 521.707031 182.960938 522.179688 182.570312 522.664062 182.214844 C 523.148438 181.859375 523.644531 181.535156 524.152344 181.246094 C 524.664062 180.957031 525.179688 180.699219 525.707031 180.480469 C 526.234375 180.261719 526.765625 180.078125 527.304688 179.929688 C 527.84375 179.785156 528.386719 179.671875 528.9375 179.597656 C 529.484375 179.523438 530.03125 179.488281 530.582031 179.488281 C 531.132812 179.488281 531.679688 179.523438 532.230469 179.597656 C 532.777344 179.671875 533.320312 179.785156 533.859375 179.929688 C 534.398438 180.078125 534.933594 180.261719 535.457031 180.480469 C 535.984375 180.699219 536.503906 180.957031 537.011719 181.246094 C 537.519531 181.535156 538.015625 181.859375 538.5 182.214844 C 538.984375 182.570312 539.457031 182.960938 539.914062 183.378906 C 540.371094 183.800781 540.8125 184.25 541.238281 184.730469 C 541.664062 185.210938 542.070312 185.714844 542.460938 186.25 C 542.847656 186.785156 543.21875 187.347656 543.566406 187.929688 C 543.917969 188.515625 544.242188 189.121094 544.550781 189.75 C 544.855469 190.378906 545.136719 191.027344 545.398438 191.695312 C 545.65625 192.363281 545.890625 193.046875 546.101562 193.742188 C 546.3125 194.441406 546.496094 195.152344 546.65625 195.878906 C 546.816406 196.601562 546.949219 197.335938 547.058594 198.078125 C 547.164062 198.816406 547.246094 199.566406 547.300781 200.320312 C 547.351562 201.070312 547.378906 201.824219 547.378906 202.582031 C 547.378906 203.339844 547.351562 204.09375 547.300781 204.847656 C 547.246094 205.597656 547.164062 206.347656 547.058594 207.085938 C 546.949219 207.828125 546.816406 208.5625 546.65625 209.285156 C 546.496094 210.011719 546.3125 210.722656 546.101562 211.421875 C 545.890625 212.117188 545.65625 212.800781 545.398438 213.46875 C 545.136719 214.136719 544.855469 214.785156 544.550781 215.414062 C 544.242188 216.042969 543.917969 216.648438 543.566406 217.234375 C 543.21875 217.816406 542.847656 218.378906 542.460938 218.914062 C 542.070312 219.449219 541.664062 219.953125 541.238281 220.433594 C 540.8125 220.914062 540.371094 221.363281 539.914062 221.785156 C 539.457031 222.203125 538.984375 222.59375 538.5 222.949219 C 538.015625 223.304688 537.519531 223.628906 537.011719 223.917969 C 536.503906 224.207031 535.984375 224.464844 535.457031 224.683594 C 534.933594 224.902344 534.398438 225.085938 533.859375 225.234375 C 533.320312 225.378906 532.777344 225.492188 532.230469 225.566406 C 531.679688 225.640625 531.132812 225.675781 530.582031 225.675781 Z M 530.582031 225.675781 "/></g></svg>