<?xml version="1.0" standalone="no"?><svg xmlns="http://www.w3.org/2000/svg" viewBox="0 0 1440 320"><path fill="#FE6892" fill-opacity="1" d="M0,0L14.1,42.7C28.2,85,56,171,85,197.3C112.9,224,141,192,169,192C197.6,192,226,224,254,234.7C282.4,245,311,235,339,218.7C367.1,203,395,181,424,192C451.8,203,480,245,508,240C536.5,235,565,181,593,154.7C621.2,128,649,128,678,128C705.9,128,734,128,762,144C790.6,160,819,192,847,197.3C875.3,203,904,181,932,192C960,203,988,245,1016,261.3C1044.7,277,1073,267,1101,250.7C1129.4,235,1158,213,1186,224C1214.1,235,1242,277,1271,288C1298.8,299,1327,277,1355,240C1383.5,203,1412,149,1426,122.7L1440,96L1440,320L1425.9,320C1411.8,320,1384,320,1355,320C1327.1,320,1299,320,1271,320C1242.4,320,1214,320,1186,320C1157.6,320,1129,320,1101,320C1072.9,320,1045,320,1016,320C988.2,320,960,320,932,320C903.5,320,875,320,847,320C818.8,320,791,320,762,320C734.1,320,706,320,678,320C649.4,320,621,320,593,320C564.7,320,536,320,508,320C480,320,452,320,424,320C395.3,320,367,320,339,320C310.6,320,282,320,254,320C225.9,320,198,320,169,320C141.2,320,113,320,85,320C56.5,320,28,320,14,320L0,320Z"></path></svg>