<?xml version="1.0" standalone="no"?><svg xmlns="http://www.w3.org/2000/svg" viewBox="0 0 1440 320"><path fill="#ff608a" fill-opacity="1" d="M0,32L15,64C30,96,60,160,90,208C120,256,150,288,180,272C210,256,240,192,270,181.3C300,171,330,213,360,229.3C390,245,420,235,450,240C480,245,510,267,540,245.3C570,224,600,160,630,128C660,96,690,96,720,122.7C750,149,780,203,810,229.3C840,256,870,256,900,245.3C930,235,960,213,990,218.7C1020,224,1050,256,1080,240C1110,224,1140,160,1170,133.3C1200,107,1230,117,1260,138.7C1290,160,1320,192,1350,170.7C1380,149,1410,75,1425,37.3L1440,0L1440,320L1425,320C1410,320,1380,320,1350,320C1320,320,1290,320,1260,320C1230,320,1200,320,1170,320C1140,320,1110,320,1080,320C1050,320,1020,320,990,320C960,320,930,320,900,320C870,320,840,320,810,320C780,320,750,320,720,320C690,320,660,320,630,320C600,320,570,320,540,320C510,320,480,320,450,320C420,320,390,320,360,320C330,320,300,320,270,320C240,320,210,320,180,320C150,320,120,320,90,320C60,320,30,320,15,320L0,320Z"></path></svg>