<svg xmlns="http://www.w3.org/2000/svg" width="900" height="600"><path fill="#FE6892" d="M0 0h900v600H0z"/><path fill="#FFF3E0" d="m0 562 7.8-.8c7.9-.9 23.5-2.5 39.4-11 15.8-8.5 31.8-23.9 47.6-22.7 15.9 1.2 31.5 18.8 47.2 26.7 15.7 7.8 31.3 5.8 47.2 7.3 15.8 1.5 31.8 6.5 47.6 9 15.9 2.5 31.5 2.5 47.4-6.8 15.8-9.4 31.8-28 47.6-29.7 15.9-1.7 31.5 13.7 47.2 12.8 15.7-.8 31.3-17.8 47.2-24.5 15.8-6.6 31.8-3 47.6 4.5 15.9 7.5 31.5 18.9 47.2 26.5 15.7 7.7 31.3 11.7 47.2 9.7 15.8-2 31.8-10 47.6-9.2 15.9.9 31.5 10.5 47.4 7.7 15.8-2.8 31.8-18.2 47.6-21 15.9-2.8 31.5 6.8 47.2 13.8 15.7 7 31.3 11.4 47.2 3.5C821 550 837 530 852.8 525.2c15.9-4.9 31.5 5.5 39.4 10.6l7.8 5.2v60H0Z"/></svg>